{
	"asset":{
		"generator":"Khronos glTF Blender I/O v5.0.21",
		"version":"2.0"
	},
	"extensionsUsed":[
		"KHR_materials_specular"
	],
	"scene":0,
	"scenes":[
		{
			"name":"Scene",
			"nodes":[
				39
			]
		}
	],
	"nodes":[
		{
			"name":"PupilsAnim_joint",
			"scale":[
				1.0000001192092896,
				0.9999999403953552,
				1.0000001192092896
			],
			"translation":[
				0,
				-7.450580596923828e-09,
				0.10854047536849976
			]
		},
		{
			"children":[
				0
			],
			"name":"FacialAnim_joint",
			"scale":[
				1.0000001192092896,
				1.0000001192092896,
				1.0000001192092896
			]
		},
		{
			"name":"LeftToe_joint",
			"rotation":[
				-0.014876166358590126,
				-0.005960820708423853,
				-0.3719150722026825,
				0.9281284213066101
			],
			"scale":[
				0.9999999403953552,
				0.9999997615814209,
				0.9999996423721313
			],
			"translation":[
				0.19811579585075378,
				-2.243759809061885e-07,
				7.274957170011476e-08
			]
		},
		{
			"children":[
				2
			],
			"name":"LeftAnkle_joint",
			"rotation":[
				0.02498520165681839,
				0.011340167373418808,
				-0.44087597727775574,
				0.8971485495567322
			],
			"translation":[
				0.22199974954128265,
				8.509960025548935e-08,
				5.801848601549864e-08
			]
		},
		{
			"children":[
				3
			],
			"name":"LeftKnee_joint",
			"rotation":[
				-4.950009291349033e-10,
				-6.765223048432745e-08,
				0.030856825411319733,
				0.9995238184928894
			],
			"scale":[
				1.0000001192092896,
				0.9999999403953552,
				1
			],
			"translation":[
				0.3074997663497925,
				3.655441105365753e-08,
				1.717717168503441e-07
			]
		},
		{
			"children":[
				4
			],
			"name":"LeftHip_joint",
			"rotation":[
				-0.9994826316833496,
				0.019050683826208115,
				0.02591436356306076,
				0.0001815391588024795
			],
			"scale":[
				1.0000008344650269,
				0.9999999403953552,
				1
			],
			"translation":[
				0.10499999672174454,
				-0.007000056095421314,
				-0.10600002855062485
			]
		},
		{
			"name":"RightToe_joint",
			"rotation":[
				0.0003361593699082732,
				0.00013482598296832293,
				-0.3719591796398163,
				0.9282490611076355
			],
			"scale":[
				0.9999996423721313,
				0.9999997615814209,
				0.9999998211860657
			],
			"translation":[
				-0.1979999989271164,
				2.745946403592825e-08,
				9.022369340527803e-08
			]
		},
		{
			"children":[
				6
			],
			"name":"RightAnkle_joint",
			"rotation":[
				0.010277017951011658,
				0.01856628805398941,
				-0.44064319133758545,
				0.897431492805481
			],
			"scale":[
				0.9999999403953552,
				1.0000001192092896,
				0.9999999403953552
			],
			"translation":[
				-0.22200000286102295,
				-2.9103830456733704e-08,
				-3.7496647564694285e-08
			]
		},
		{
			"children":[
				7
			],
			"name":"RightKnee_joint",
			"rotation":[
				2.6226314275845652e-06,
				-8.410551527049392e-05,
				0.030863719061017036,
				0.9995235800743103
			],
			"scale":[
				1.0000001192092896,
				1,
				1
			],
			"translation":[
				-0.30749988555908203,
				3.192690201103687e-08,
				2.1690539142582566e-08
			]
		},
		{
			"children":[
				8
			],
			"name":"RightHip_joint",
			"rotation":[
				0.019050920382142067,
				0.9994835257530212,
				-0.00017850665608420968,
				0.025881050154566765
			],
			"scale":[
				0.9999999403953552,
				0.9999998211860657,
				1.0000001192092896
			],
			"translation":[
				0.10500004142522812,
				-0.007000037003308535,
				0.10599993914365768
			]
		},
		{
			"children":[
				5,
				9
			],
			"name":"CenterHip_joint",
			"rotation":[
				0.49999991059303284,
				-0.5000000596046448,
				-0.5000000596046448,
				0.4999999403953552
			],
			"scale":[
				0.9999999403953552,
				0.9999995827674866,
				0.9999998211860657
			],
			"translation":[
				9.81032543070394e-15,
				-3.0196001254978455e-10,
				-7.043290395358781e-10
			]
		},
		{
			"name":"Nose_joint",
			"rotation":[
				3.4833251632779023e-15,
				-1.2249951053533437e-11,
				1.3969839729455202e-09,
				1
			],
			"scale":[
				0.9999999403953552,
				0.9999999403953552,
				0.9999998807907104
			],
			"translation":[
				0.12202272564172745,
				0.2190805822610855,
				5.070836639475829e-09
			]
		},
		{
			"children":[
				11
			],
			"name":"Head_joint",
			"rotation":[
				3.8559461179588084e-10,
				-1.0773867353819355e-09,
				-0.009045026265084743,
				0.9999591112136841
			],
			"scale":[
				0.9999998807907104,
				0.9999998211860657,
				1.0000001192092896
			],
			"translation":[
				0.2956107258796692,
				-0.005366533063352108,
				2.572726742755549e-08
			]
		},
		{
			"name":"LeftIndexFinger_joint",
			"rotation":[
				1.0601682731703477e-07,
				-0.843328058719635,
				-8.425460443261049e-15,
				0.5373991131782532
			],
			"scale":[
				1,
				1,
				1.000000238418579
			],
			"translation":[
				0.13572245836257935,
				0.04991675168275833,
				0.000865202397108078
			]
		},
		{
			"name":"LeftMidFinger_joint",
			"rotation":[
				0.029784973710775375,
				-0.8514531850814819,
				-0.041733574122190475,
				0.5219183564186096
			],
			"scale":[
				0.9999997615814209,
				0.9999997019767761,
				0.9999998211860657
			],
			"translation":[
				0.1371949017047882,
				0.003396756947040558,
				-0.0014661028981208801
			]
		},
		{
			"name":"LeftPinkyFinger_joint",
			"rotation":[
				0.029784830287098885,
				-0.8514531254768372,
				-0.041733186691999435,
				0.5219184160232544
			],
			"scale":[
				0.9999998211860657,
				0.9999997615814209,
				0.9999997615814209
			],
			"translation":[
				0.13698118925094604,
				-0.04501833766698837,
				-0.0035625845193862915
			]
		},
		{
			"name":"LeftThumb_joint",
			"rotation":[
				0.08875507116317749,
				-0.14572010934352875,
				0.03007541224360466,
				0.9848775267601013
			],
			"scale":[
				0.9999998807907104,
				0.9999999403953552,
				0.9999998807907104
			],
			"translation":[
				0.05937378853559494,
				0.10219230502843857,
				0.015469051897525787
			]
		},
		{
			"name":"LeftWeapon_joint",
			"rotation":[
				0.05149565264582634,
				0.708388090133667,
				0.010654564015567303,
				0.7038614749908447
			],
			"scale":[
				1,
				1,
				1.0000001192092896
			],
			"translation":[
				0.11218845099210739,
				-0.0003287121653556824,
				0.027974933385849
			]
		},
		{
			"children":[
				13,
				14,
				15,
				16,
				17
			],
			"name":"LeftHand_joint",
			"rotation":[
				-1.1920928244535389e-07,
				-1.0244548320770264e-06,
				3.185123773619125e-07,
				1
			],
			"scale":[
				0.9999998211860657,
				1,
				1.0000001192092896
			],
			"translation":[
				0.22650006413459778,
				1.2665987014770508e-07,
				-2.2724270820617676e-07
			]
		},
		{
			"children":[
				18
			],
			"name":"LeftElbow_joint",
			"rotation":[
				0.7066830992698669,
				-0.024479741230607033,
				0.02447936125099659,
				0.7066828012466431
			],
			"scale":[
				1.0000001192092896,
				0.9999996423721313,
				0.9999998211860657
			],
			"translation":[
				0.2955000400543213,
				-3.3527612686157227e-08,
				5.960464477539063e-08
			]
		},
		{
			"children":[
				19
			],
			"name":"LeftShoulder_joint",
			"rotation":[
				-0.00711109908297658,
				0.6492434144020081,
				0.6531722545623779,
				0.38961315155029297
			],
			"scale":[
				0.9999998211860657,
				0.9999995231628418,
				1.0000001192092896
			],
			"translation":[
				-0.17399996519088745,
				-1.58662913918306e-08,
				2.7314359840602265e-07
			]
		},
		{
			"children":[
				20
			],
			"name":"LeftCollar_joint",
			"rotation":[
				0.006395966280251741,
				0.7070778012275696,
				-0.006395966745913029,
				0.7070779204368591
			],
			"scale":[
				1,
				0.9999995827674866,
				0.9999998211860657
			],
			"translation":[
				0.1589999794960022,
				-0.032999999821186066,
				0.055000003427267075
			]
		},
		{
			"name":"RightIndexFinger_joint",
			"rotation":[
				-6.146728992462158e-08,
				1.564621925354004e-07,
				-3.725291186640334e-09,
				1
			],
			"scale":[
				1,
				0.9999999403953552,
				1
			],
			"translation":[
				-0.13572224974632263,
				-0.04991678148508072,
				-0.0008650310337543488
			]
		},
		{
			"name":"RightMidFinger_joint",
			"rotation":[
				-4.917383193969727e-07,
				8.195638656616211e-08,
				2.477318048477173e-07,
				1
			],
			"scale":[
				1,
				0.9999998807907104,
				1
			],
			"translation":[
				-0.13719457387924194,
				-0.003396831452846527,
				0.0014662444591522217
			]
		},
		{
			"name":"RightPnkyFinger_joint",
			"rotation":[
				-2.7939680791178034e-08,
				-2.7939677238464355e-08,
				8.009375562778587e-08,
				1
			],
			"scale":[
				0.9999999403953552,
				0.9999998211860657,
				1.0000001192092896
			],
			"translation":[
				-0.13698099553585052,
				0.04501821845769882,
				0.0035625696182250977
			]
		},
		{
			"name":"RightThumb_joint",
			"rotation":[
				0.08875522017478943,
				-0.1457199603319168,
				0.030075812712311745,
				0.9848774671554565
			],
			"scale":[
				0.9999999403953552,
				1.0000001192092896,
				1.0000003576278687
			],
			"translation":[
				-0.05937345325946808,
				-0.10219230502843857,
				-0.015469007194042206
			]
		},
		{
			"name":"RightWeapon_joint",
			"rotation":[
				-0.7038632035255432,
				-0.010576250031590462,
				0.7083935141563416,
				0.051414843648672104
			],
			"scale":[
				1.0000183582305908,
				0.9999998211860657,
				1.0000418424606323
			],
			"translation":[
				-0.11218753457069397,
				0.00026426464319229126,
				-0.027978546917438507
			]
		},
		{
			"children":[
				22,
				23,
				24,
				25,
				26
			],
			"name":"RightHand_joint",
			"rotation":[
				1.3783579788650968e-07,
				-1.586974235578964e-06,
				-2.663583131834457e-07,
				1
			],
			"scale":[
				0.9999998211860657,
				0.9999996423721313,
				0.9999995827674866
			],
			"translation":[
				-0.2265000343322754,
				3.725290298461914e-08,
				-3.3527612686157227e-08
			]
		},
		{
			"children":[
				27
			],
			"name":"RightElbow_joint",
			"rotation":[
				8.573309173698362e-08,
				-1.3735931361225084e-06,
				0.034619901329278946,
				0.9994005560874939
			],
			"scale":[
				1,
				1,
				0.9999997615814209
			],
			"translation":[
				-0.2954999804496765,
				-2.942979335784912e-07,
				-5.031004548072815e-06
			]
		},
		{
			"children":[
				28
			],
			"name":"RightShoulder_joint",
			"rotation":[
				0.2705012261867523,
				0.9209498763084412,
				0.0026756806764751673,
				0.28048765659332275
			],
			"scale":[
				0.9999998807907104,
				1.000000238418579,
				1
			],
			"translation":[
				0.17400000989437103,
				-1.372983504666081e-09,
				-2.484003687186487e-07
			]
		},
		{
			"children":[
				29
			],
			"name":"RightCollar_joint",
			"rotation":[
				-0.7070778012275696,
				0.006395991891622543,
				0.7070779204368591,
				0.0063959332183003426
			],
			"scale":[
				0.9999997019767761,
				0.9999995231628418,
				0.9999998211860657
			],
			"translation":[
				0.1589999794960022,
				-0.033000003546476364,
				-0.054999977350234985
			]
		},
		{
			"children":[
				12,
				21,
				30
			],
			"name":"SpineB_joint",
			"rotation":[
				9.528765732312402e-23,
				7.1054265105680546e-15,
				-5.329070518200751e-15,
				1
			],
			"scale":[
				1.0000001192092896,
				0.9999999403953552,
				1.0000001192092896
			],
			"translation":[
				0.20610761642456055,
				-2.9971143788998234e-08,
				1.8018500469452192e-08
			]
		},
		{
			"children":[
				31
			],
			"name":"SpineA_joint",
			"rotation":[
				0.5000000596046448,
				0.5,
				0.5,
				0.5
			],
			"scale":[
				1.0000001192092896,
				0.9999999403953552,
				1.0000001192092896
			],
			"translation":[
				4.539015783242353e-15,
				-3.0196001254978455e-10,
				-7.043290395358781e-10
			]
		},
		{
			"children":[
				10,
				32
			],
			"name":"CenterRoot_joint",
			"scale":[
				1.0000001192092896,
				1.0000001192092896,
				1.0000001192092896
			],
			"translation":[
				-4.149081373412088e-17,
				0.7684822678565979,
				0.00882190465927124
			]
		},
		{
			"children":[
				33
			],
			"name":"WorldRoot2_joint",
			"scale":[
				1.0000001192092896,
				1.0000001192092896,
				1.0000001192092896
			]
		},
		{
			"children":[
				1,
				34
			],
			"name":"WorldRoot1_joint",
			"rotation":[
				3.5527132552840273e-15,
				0,
				0,
				1
			],
			"scale":[
				1.0000001192092896,
				1.0000001192092896,
				1.0000001192092896
			]
		},
		{
			"children":[
				35
			],
			"name":"npc_custom_cookieMonster_mdl",
			"scale":[
				1.0000001192092896,
				1.0000001192092896,
				1.0000001192092896
			]
		},
		{
			"children":[
				36
			],
			"name":"npc_custom_cookieMonster_mdl (merge)",
			"rotation":[
				-0.7071067690849304,
				0,
				0,
				0.7071067690849304
			],
			"scale":[
				1.000000238418579,
				1.000000238418579,
				1.000000238418579
			]
		},
		{
			"mesh":0,
			"name":"cookieMonster_geo",
			"skin":0
		},
		{
			"children":[
				38,
				37
			],
			"name":"Armature",
			"rotation":[
				0.7071067690849304,
				0,
				0,
				0.7071068286895752
			],
			"scale":[
				1.973699927330017,
				1.973699927330017,
				1.973699927330017
			]
		}
	],
	"materials":[
		{
			"doubleSided":true,
			"extensions":{
				"KHR_materials_specular":{
					"specularColorFactor":[
						0.4000000059604645,
						0.4000000059604645,
						0.4000000059604645
					]
				}
			},
			"name":"cookieMonster_body_FGC_mat",
			"pbrMetallicRoughness":{
				"baseColorTexture":{
					"index":0
				},
				"metallicFactor":0
			}
		},
		{
			"doubleSided":true,
			"extensions":{
				"KHR_materials_specular":{
					"specularColorFactor":[
						0.4000000059604645,
						0.4000000059604645,
						0.4000000059604645
					]
				}
			},
			"name":"cookieMonster_rightPupil_FGCE_mat",
			"pbrMetallicRoughness":{
				"baseColorTexture":{
					"index":1
				},
				"metallicFactor":0
			}
		},
		{
			"doubleSided":true,
			"extensions":{
				"KHR_materials_specular":{
					"specularColorFactor":[
						0.4000000059604645,
						0.4000000059604645,
						0.4000000059604645
					]
				}
			},
			"name":"cookieMonster_leftPupil_FGCE_mat",
			"pbrMetallicRoughness":{
				"baseColorTexture":{
					"index":2
				},
				"metallicFactor":0
			}
		}
	],
	"meshes":[
		{
			"name":"cookieMonster_geo",
			"primitives":[
				{
					"attributes":{
						"POSITION":0,
						"NORMAL":1,
						"TEXCOORD_0":2,
						"JOINTS_0":3,
						"WEIGHTS_0":4
					},
					"indices":5,
					"material":0
				},
				{
					"attributes":{
						"POSITION":6,
						"NORMAL":7,
						"TEXCOORD_0":8,
						"JOINTS_0":9,
						"WEIGHTS_0":10
					},
					"indices":11,
					"material":1
				},
				{
					"attributes":{
						"POSITION":12,
						"NORMAL":13,
						"TEXCOORD_0":14,
						"JOINTS_0":15,
						"WEIGHTS_0":16
					},
					"indices":17,
					"material":2
				}
			]
		}
	],
	"textures":[
		{
			"sampler":0,
			"source":0
		},
		{
			"sampler":0,
			"source":1
		},
		{
			"sampler":0,
			"source":1
		}
	],
	"images":[
		{
			"mimeType":"image/png",
			"name":"npc_custom_cookieMonster_col",
			"uri":"npc_custom_cookieMonster_col.png"
		},
		{
			"mimeType":"image/png",
			"name":"npc_shared_pupil_col_Edited",
			"uri":"npc_shared_pupil_col_Edited.png"
		}
	],
	"skins":[
		{
			"inverseBindMatrices":18,
			"joints":[
				37,
				36,
				35,
				1,
				0,
				34,
				33,
				10,
				5,
				4,
				3,
				2,
				9,
				8,
				7,
				6,
				32,
				31,
				12,
				11,
				21,
				20,
				19,
				18,
				13,
				14,
				15,
				16,
				17,
				30,
				29,
				28,
				27,
				22,
				23,
				24,
				25,
				26
			],
			"name":"Armature"
		}
	],
	"accessors":[
		{
			"bufferView":0,
			"componentType":5126,
			"count":1283,
			"max":[
				1.410719633102417,
				3.257766008377075,
				0.8246051669120789
			],
			"min":[
				-1.4107199907302856,
				-0.0024826761800795794,
				-0.6520529985427856
			],
			"type":"VEC3"
		},
		{
			"bufferView":1,
			"componentType":5126,
			"count":1283,
			"type":"VEC3"
		},
		{
			"bufferView":2,
			"componentType":5126,
			"count":1283,
			"type":"VEC2"
		},
		{
			"bufferView":3,
			"componentType":5121,
			"count":1283,
			"type":"VEC4"
		},
		{
			"bufferView":4,
			"componentType":5126,
			"count":1283,
			"type":"VEC4"
		},
		{
			"bufferView":5,
			"componentType":5123,
			"count":7044,
			"type":"SCALAR"
		},
		{
			"bufferView":6,
			"componentType":5126,
			"count":39,
			"max":[
				-0.004009508993476629,
				3.253474235534668,
				0.18918195366859436
			],
			"min":[
				-0.23756109178066254,
				3.0199227333068848,
				0.09380662441253662
			],
			"type":"VEC3"
		},
		{
			"bufferView":7,
			"componentType":5126,
			"count":39,
			"type":"VEC3"
		},
		{
			"bufferView":8,
			"componentType":5126,
			"count":39,
			"type":"VEC2"
		},
		{
			"bufferView":9,
			"componentType":5121,
			"count":39,
			"type":"VEC4"
		},
		{
			"bufferView":10,
			"componentType":5126,
			"count":39,
			"type":"VEC4"
		},
		{
			"bufferView":11,
			"componentType":5123,
			"count":186,
			"type":"SCALAR"
		},
		{
			"bufferView":12,
			"componentType":5126,
			"count":39,
			"max":[
				0.2375611960887909,
				3.253474235534668,
				0.18918195366859436
			],
			"min":[
				0.004009650554507971,
				3.0199227333068848,
				0.09380662441253662
			],
			"type":"VEC3"
		},
		{
			"bufferView":13,
			"componentType":5126,
			"count":39,
			"type":"VEC3"
		},
		{
			"bufferView":14,
			"componentType":5126,
			"count":39,
			"type":"VEC2"
		},
		{
			"bufferView":15,
			"componentType":5121,
			"count":39,
			"type":"VEC4"
		},
		{
			"bufferView":16,
			"componentType":5126,
			"count":39,
			"type":"VEC4"
		},
		{
			"bufferView":17,
			"componentType":5123,
			"count":186,
			"type":"SCALAR"
		},
		{
			"bufferView":18,
			"componentType":5126,
			"count":38,
			"type":"MAT4"
		}
	],
	"bufferViews":[
		{
			"buffer":0,
			"byteLength":15396,
			"byteOffset":0,
			"target":34962
		},
		{
			"buffer":0,
			"byteLength":15396,
			"byteOffset":15396,
			"target":34962
		},
		{
			"buffer":0,
			"byteLength":10264,
			"byteOffset":30792,
			"target":34962
		},
		{
			"buffer":0,
			"byteLength":5132,
			"byteOffset":41056,
			"target":34962
		},
		{
			"buffer":0,
			"byteLength":20528,
			"byteOffset":46188,
			"target":34962
		},
		{
			"buffer":0,
			"byteLength":14088,
			"byteOffset":66716,
			"target":34963
		},
		{
			"buffer":0,
			"byteLength":468,
			"byteOffset":80804,
			"target":34962
		},
		{
			"buffer":0,
			"byteLength":468,
			"byteOffset":81272,
			"target":34962
		},
		{
			"buffer":0,
			"byteLength":312,
			"byteOffset":81740,
			"target":34962
		},
		{
			"buffer":0,
			"byteLength":156,
			"byteOffset":82052,
			"target":34962
		},
		{
			"buffer":0,
			"byteLength":624,
			"byteOffset":82208,
			"target":34962
		},
		{
			"buffer":0,
			"byteLength":372,
			"byteOffset":82832,
			"target":34963
		},
		{
			"buffer":0,
			"byteLength":468,
			"byteOffset":83204,
			"target":34962
		},
		{
			"buffer":0,
			"byteLength":468,
			"byteOffset":83672,
			"target":34962
		},
		{
			"buffer":0,
			"byteLength":312,
			"byteOffset":84140,
			"target":34962
		},
		{
			"buffer":0,
			"byteLength":156,
			"byteOffset":84452,
			"target":34962
		},
		{
			"buffer":0,
			"byteLength":624,
			"byteOffset":84608,
			"target":34962
		},
		{
			"buffer":0,
			"byteLength":372,
			"byteOffset":85232,
			"target":34963
		},
		{
			"buffer":0,
			"byteLength":2432,
			"byteOffset":85604
		}
	],
	"samplers":[
		{
			"magFilter":9729,
			"minFilter":9987
		}
	],
	"buffers":[
		{
			"byteLength":88036,
			"uri":"Cookie%20Monster.bin"
		}
	]
}
