{
	"asset":{
		"generator":"Khronos glTF Blender I/O v5.0.21",
		"version":"2.0"
	},
	"extensionsUsed":[
		"KHR_materials_specular"
	],
	"scene":0,
	"scenes":[
		{
			"name":"Scene",
			"nodes":[
				41
			]
		}
	],
	"nodes":[
		{
			"name":"PupilsAnim_joint",
			"translation":[
				0,
				0,
				0.10854048281908035
			]
		},
		{
			"children":[
				0
			],
			"name":"FacialAnim_joint"
		},
		{
			"name":"LeftToe_joint",
			"rotation":[
				-0.01487588882446289,
				-0.005962570663541555,
				-0.3719157874584198,
				0.9281281232833862
			],
			"scale":[
				1.0000001192092896,
				0.9999998807907104,
				0.9999997615814209
			],
			"translation":[
				0.19811508059501648,
				-1.331500243395567e-06,
				6.453701644204557e-07
			]
		},
		{
			"children":[
				2
			],
			"name":"LeftAnkle_joint",
			"rotation":[
				0.015475696884095669,
				-0.028668375685811043,
				-0.47316017746925354,
				0.8803738355636597
			],
			"scale":[
				1.0000001192092896,
				0.9999999403953552,
				1.0000001192092896
			],
			"translation":[
				0.2219984531402588,
				1.039355993270874e-06,
				7.547205314040184e-07
			]
		},
		{
			"children":[
				3
			],
			"name":"LeftKnee_joint",
			"rotation":[
				-4.044081833853852e-07,
				-1.4318912633370928e-07,
				0.117259182035923,
				0.9931013584136963
			],
			"scale":[
				1.0000001192092896,
				1,
				1
			],
			"translation":[
				0.3074977397918701,
				5.867332220077515e-07,
				1.0595540516078472e-06
			]
		},
		{
			"children":[
				4
			],
			"name":"LeftHip_joint",
			"rotation":[
				-0.995417594909668,
				-0.09262340515851974,
				-0.007354392670094967,
				0.022596128284931183
			],
			"scale":[
				1.0000073909759521,
				1.0000005960464478,
				1.0000003576278687
			],
			"translation":[
				0.1050000786781311,
				-0.007000027224421501,
				-0.10599999129772186
			]
		},
		{
			"name":"RightToe_joint",
			"rotation":[
				0.00033622485352680087,
				0.0001347383949905634,
				-0.3719594180583954,
				0.928248941898346
			],
			"scale":[
				0.9999997019767761,
				0.9999998211860657,
				1
			],
			"translation":[
				-0.1979999989271164,
				-2.6338966563344e-09,
				4.4774878915632144e-08
			]
		},
		{
			"children":[
				6
			],
			"name":"RightAnkle_joint",
			"rotation":[
				0.0010387126822024584,
				-0.020921994000673294,
				-0.4735777676105499,
				0.8805028796195984
			],
			"translation":[
				-0.22200004756450653,
				2.6542693376541138e-08,
				3.003515303134918e-08
			]
		},
		{
			"children":[
				7
			],
			"name":"RightKnee_joint",
			"rotation":[
				7.518049187638098e-06,
				-6.362607382470742e-05,
				0.11726512759923935,
				0.9931007027626038
			],
			"scale":[
				0.9999997615814209,
				0.9999998807907104,
				1.0000001192092896
			],
			"translation":[
				-0.3075001537799835,
				-3.119930624961853e-08,
				3.0762748792767525e-08
			]
		},
		{
			"children":[
				8
			],
			"name":"RightHip_joint",
			"rotation":[
				0.09262140840291977,
				-0.995417594909668,
				0.022598765790462494,
				0.007378558628261089
			],
			"scale":[
				1.0000001192092896,
				1,
				0.9999998807907104
			],
			"translation":[
				0.10500002652406693,
				-0.007000036537647247,
				0.10599999874830246
			]
		},
		{
			"children":[
				5,
				9
			],
			"name":"CenterHip_joint",
			"rotation":[
				0.5,
				-0.5,
				-0.5,
				0.5000000596046448
			],
			"translation":[
				-1.3574655891815824e-15,
				-5.180481821298599e-08,
				4.6566128730773926e-09
			]
		},
		{
			"name":"Jaw_joint",
			"rotation":[
				1.2502458623941948e-08,
				-2.1836061847579913e-08,
				-0.2871916890144348,
				0.9578731060028076
			],
			"scale":[
				1,
				1.0000001192092896,
				1.0000001192092896
			],
			"translation":[
				0.17739015817642212,
				0.08647024631500244,
				1.1766275953561944e-08
			]
		},
		{
			"name":"Nose_joint",
			"rotation":[
				-2.958567076630182e-15,
				-1.7763566276420137e-15,
				-5.960464477539063e-08,
				1
			],
			"scale":[
				1.0000001192092896,
				1,
				1.0000001192092896
			],
			"translation":[
				0.19661292433738708,
				0.1868189573287964,
				1.3041320912066112e-08
			]
		},
		{
			"children":[
				11,
				12
			],
			"name":"Head_joint",
			"rotation":[
				1.3200756932008062e-08,
				-2.6710607059499125e-08,
				-0.1414690911769867,
				0.9899426698684692
			],
			"scale":[
				1,
				0.9999998211860657,
				1.0000001192092896
			],
			"translation":[
				0.36397141218185425,
				-0.006603240966796875,
				4.378353679612701e-08
			]
		},
		{
			"name":"LeftIndexFinger_joint",
			"rotation":[
				-0.03209386020898819,
				-0.5664997100830078,
				-0.2681099772453308,
				0.7785660624504089
			],
			"scale":[
				0.9999998807907104,
				0.9999998807907104,
				0.9999996423721313
			],
			"translation":[
				0.14291976392269135,
				0.05485640466213226,
				0.013027365319430828
			]
		},
		{
			"name":"LeftMidFinger_joint",
			"rotation":[
				-0.11664565652608871,
				-0.5548681020736694,
				-0.23275242745876312,
				0.7901528477668762
			],
			"scale":[
				0.9999995827674866,
				1.000000238418579,
				1
			],
			"translation":[
				0.10896879434585571,
				0.0061174724251031876,
				0.014776292257010937
			]
		},
		{
			"name":"LeftPinkyFinger_joint",
			"rotation":[
				-0.23582498729228973,
				-0.4777945578098297,
				-0.15010954439640045,
				0.8328061699867249
			],
			"scale":[
				0.9999997615814209,
				1.0000001192092896,
				1
			],
			"translation":[
				0.08399998396635056,
				-0.02499992586672306,
				-0.013999944552779198
			]
		},
		{
			"name":"LeftThumb_joint",
			"rotation":[
				0.27880844473838806,
				-0.18355093896389008,
				-0.23675604164600372,
				0.9124261736869812
			],
			"scale":[
				1,
				0.9999998807907104,
				0.9999998211860657
			],
			"translation":[
				0.05888490006327629,
				0.1001097783446312,
				0.05666765943169594
			]
		},
		{
			"name":"LeftWeapon_joint",
			"rotation":[
				0.051495157182216644,
				0.708388090133667,
				0.010654961690306664,
				0.7038615345954895
			],
			"scale":[
				0.9999999403953552,
				1.000000238418579,
				1
			],
			"translation":[
				0.11218813806772232,
				-0.0003286073624622077,
				0.027975233271718025
			]
		},
		{
			"children":[
				14,
				15,
				16,
				17,
				18
			],
			"name":"LeftHand_joint",
			"rotation":[
				-0.19170139729976654,
				-0.038092900067567825,
				-0.3321758806705475,
				0.9227452278137207
			],
			"scale":[
				0.9999999403953552,
				0.9999999403953552,
				0.9999999403953552
			],
			"translation":[
				0.24000008404254913,
				1.2293457984924316e-07,
				-2.9802322387695312e-08
			]
		},
		{
			"children":[
				19
			],
			"name":"LeftElbow_joint",
			"rotation":[
				0.6360266208648682,
				-0.308982253074646,
				0.30898213386535645,
				0.6360267996788025
			],
			"scale":[
				1,
				1,
				0.9999998211860657
			],
			"translation":[
				0.24999994039535522,
				-5.587935447692871e-08,
				7.450580596923828e-09
			]
		},
		{
			"children":[
				20
			],
			"name":"LeftShoulder_joint",
			"rotation":[
				0.024669354781508446,
				0.16940206289291382,
				0.8652858138084412,
				0.4711419939994812
			],
			"scale":[
				1.000000238418579,
				1.0000001192092896,
				0.9999999403953552
			],
			"translation":[
				-0.1599999964237213,
				-1.4901161193847656e-08,
				-6.928370765990621e-08
			]
		},
		{
			"children":[
				21
			],
			"name":"LeftCollar_joint",
			"rotation":[
				-0.10637367516756058,
				0.6990598440170288,
				-0.11900171637535095,
				0.6970212459564209
			],
			"scale":[
				1,
				0.9999995827674866,
				0.9999998211860657
			],
			"translation":[
				0.2332487255334854,
				-0.022082965821027756,
				0.050936270505189896
			]
		},
		{
			"name":"RightIndexFinger_joint",
			"rotation":[
				-0.03209126740694046,
				-0.5664976835250854,
				-0.2681112289428711,
				0.7785671949386597
			],
			"scale":[
				0.9999998807907104,
				1.0000001192092896,
				1
			],
			"translation":[
				-0.14291970431804657,
				-0.05485597252845764,
				-0.013027284294366837
			]
		},
		{
			"name":"RightMidFinger_joint",
			"rotation":[
				-0.11664556711912155,
				-0.5548650026321411,
				-0.23275436460971832,
				0.7901544570922852
			],
			"scale":[
				0.9999998807907104,
				1,
				0.9999998807907104
			],
			"translation":[
				-0.10896879434585571,
				-0.0061172298155725,
				-0.0147762605920434
			]
		},
		{
			"name":"RightPnkyFinger_joint",
			"rotation":[
				-0.23582570254802704,
				-0.47779420018196106,
				-0.15010981261730194,
				0.8328061103820801
			],
			"scale":[
				0.9999999403953552,
				1.0000001192092896,
				0.9999999403953552
			],
			"translation":[
				-0.08399999141693115,
				0.02500000223517418,
				0.01399998925626278
			]
		},
		{
			"name":"RightThumb_joint",
			"rotation":[
				0.278810054063797,
				-0.1835547536611557,
				-0.23675481975078583,
				0.9124252200126648
			],
			"scale":[
				0.9999998807907104,
				0.9999998807907104,
				0.9999998807907104
			],
			"translation":[
				-0.05888492986559868,
				-0.10010924935340881,
				-0.05666766315698624
			]
		},
		{
			"name":"RightWeapon_joint",
			"rotation":[
				-0.7038681507110596,
				-0.010575121268630028,
				0.7083885669708252,
				0.051415301859378815
			],
			"scale":[
				1.0000090599060059,
				0.9999998807907104,
				1.0000208616256714
			],
			"translation":[
				-0.11218755692243576,
				0.00026452913880348206,
				-0.02797866426408291
			]
		},
		{
			"children":[
				23,
				24,
				25,
				26,
				27
			],
			"name":"RightHand_joint",
			"rotation":[
				-0.18908701837062836,
				-0.03848019614815712,
				-0.33275261521339417,
				0.9230607151985168
			],
			"scale":[
				0.9999998807907104,
				0.9999998807907104,
				0.9999998807907104
			],
			"translation":[
				-0.23999936878681183,
				7.003545761108398e-07,
				-1.4156103134155273e-07
			]
		},
		{
			"children":[
				28
			],
			"name":"RightElbow_joint",
			"rotation":[
				-1.4702729345117405e-07,
				4.5143585225559946e-07,
				0.43696585297584534,
				0.8994780778884888
			],
			"scale":[
				1,
				1,
				0.9999999403953552
			],
			"translation":[
				-0.25,
				5.21540641784668e-08,
				-5.960464477539063e-08
			]
		},
		{
			"children":[
				29
			],
			"name":"RightShoulder_joint",
			"rotation":[
				0.3505367040634155,
				0.7300360202789307,
				0.4935460090637207,
				0.3171495497226715
			],
			"scale":[
				0.9999998211860657,
				1.0000001192092896,
				1
			],
			"translation":[
				0.15999998152256012,
				-4.470348358154297e-08,
				8.260893480382947e-08
			]
		},
		{
			"children":[
				30
			],
			"name":"RightCollar_joint",
			"rotation":[
				-0.6990598440170288,
				-0.10637369006872177,
				0.6970212459564209,
				0.11900141835212708
			],
			"scale":[
				1.0000001192092896,
				1.0000001192092896,
				1.0000027418136597
			],
			"translation":[
				0.23299983143806458,
				-0.021999988704919815,
				-0.05093621835112572
			]
		},
		{
			"children":[
				13,
				22,
				31
			],
			"name":"SpineB_joint",
			"rotation":[
				-2.519096220510164e-08,
				3.6439715245251136e-08,
				0.30719709396362305,
				0.9516459107398987
			],
			"scale":[
				1.0000001192092896,
				1.0000001192092896,
				1
			],
			"translation":[
				0.20610767602920532,
				3.725290298461914e-09,
				9.009249346547676e-09
			]
		},
		{
			"children":[
				32
			],
			"name":"SpineA_joint",
			"rotation":[
				0.5238415598869324,
				0.4749631881713867,
				0.5238416194915771,
				0.4749631881713867
			],
			"scale":[
				1.0000001192092896,
				1.0000001192092896,
				1.000000238418579
			],
			"translation":[
				5.280538389059277e-16,
				-5.180481821298599e-08,
				4.6566128730773926e-09
			]
		},
		{
			"children":[
				10,
				33
			],
			"name":"CenterRoot_joint",
			"rotation":[
				0.063008151948452,
				0,
				0,
				0.9980130195617676
			],
			"translation":[
				-4.149081373412088e-17,
				0.7647886276245117,
				0.00882191676646471
			]
		},
		{
			"name":"Walker_joint",
			"translation":[
				-4.149081373412088e-17,
				-3.552713678800501e-15,
				0.4222753643989563
			]
		},
		{
			"children":[
				34,
				35
			],
			"name":"WorldRoot2_joint"
		},
		{
			"children":[
				1,
				36
			],
			"name":"WorldRoot1_joint"
		},
		{
			"children":[
				37
			],
			"name":"npc_custom_herbert_mdl"
		},
		{
			"children":[
				38
			],
			"name":"npc_custom_herbert_mdl (merge)",
			"rotation":[
				-0.7071067690849304,
				0,
				0,
				0.7071067690849304
			]
		},
		{
			"mesh":0,
			"name":"herbert_geo",
			"skin":0
		},
		{
			"children":[
				40,
				39
			],
			"name":"Armature",
			"rotation":[
				0.7071067690849304,
				0,
				0,
				0.7071068286895752
			],
			"scale":[
				1.7670000791549683,
				1.7670000791549683,
				1.7670000791549683
			]
		}
	],
	"materials":[
		{
			"doubleSided":true,
			"extensions":{
				"KHR_materials_specular":{
					"specularColorFactor":[
						0.4000000059604645,
						0.4000000059604645,
						0.4000000059604645
					]
				}
			},
			"name":"herbert_body_FGC_mat",
			"pbrMetallicRoughness":{
				"baseColorTexture":{
					"index":0
				},
				"metallicFactor":0
			}
		},
		{
			"doubleSided":true,
			"extensions":{
				"KHR_materials_specular":{
					"specularColorFactor":[
						0.4000000059604645,
						0.4000000059604645,
						0.4000000059604645
					]
				}
			},
			"name":"herbert_rightPupil_FGCE_mat",
			"pbrMetallicRoughness":{
				"baseColorTexture":{
					"index":1
				},
				"metallicFactor":0
			}
		},
		{
			"doubleSided":true,
			"extensions":{
				"KHR_materials_specular":{
					"specularColorFactor":[
						0.4000000059604645,
						0.4000000059604645,
						0.4000000059604645
					]
				}
			},
			"name":"herbert_leftPupil_FGCE_mat",
			"pbrMetallicRoughness":{
				"baseColorTexture":{
					"index":2
				},
				"metallicFactor":0,
				"roughnessFactor":0.5527864098548889
			}
		},
		{
			"alphaMode":"BLEND",
			"doubleSided":true,
			"extensions":{
				"KHR_materials_specular":{
					"specularColorFactor":[
						0.4000000059604645,
						0.4000000059604645,
						0.4000000059604645
					]
				}
			},
			"name":"herbert_brows_FGFG_mat",
			"pbrMetallicRoughness":{
				"baseColorTexture":{
					"index":3
				},
				"metallicFactor":0
			}
		}
	],
	"meshes":[
		{
			"name":"herbert_geo",
			"primitives":[
				{
					"attributes":{
						"POSITION":0,
						"NORMAL":1,
						"TEXCOORD_0":2,
						"JOINTS_0":3,
						"WEIGHTS_0":4
					},
					"indices":5,
					"material":0
				},
				{
					"attributes":{
						"POSITION":6,
						"NORMAL":7,
						"TEXCOORD_0":8,
						"JOINTS_0":9,
						"WEIGHTS_0":10
					},
					"indices":11,
					"material":1
				},
				{
					"attributes":{
						"POSITION":12,
						"NORMAL":13,
						"TEXCOORD_0":14,
						"JOINTS_0":15,
						"WEIGHTS_0":16
					},
					"indices":17,
					"material":2
				},
				{
					"attributes":{
						"POSITION":18,
						"NORMAL":19,
						"TEXCOORD_0":20,
						"JOINTS_0":21,
						"WEIGHTS_0":22
					},
					"indices":23,
					"material":3
				}
			]
		}
	],
	"textures":[
		{
			"sampler":0,
			"source":0
		},
		{
			"sampler":0,
			"source":1
		},
		{
			"sampler":0,
			"source":1
		},
		{
			"sampler":0,
			"source":2
		}
	],
	"images":[
		{
			"mimeType":"image/png",
			"name":"npc_custom_herbert_col",
			"uri":"npc_custom_herbert_col.png"
		},
		{
			"mimeType":"image/png",
			"name":"npc_shared_pupil_col_Edited",
			"uri":"npc_shared_pupil_col_Edited.png"
		},
		{
			"mimeType":"image/png",
			"name":"npc_shared_browsHerbert_col",
			"uri":"npc_shared_browsHerbert_col.png"
		}
	],
	"skins":[
		{
			"inverseBindMatrices":24,
			"joints":[
				39,
				38,
				37,
				1,
				0,
				36,
				34,
				10,
				5,
				4,
				3,
				2,
				9,
				8,
				7,
				6,
				33,
				32,
				13,
				11,
				12,
				22,
				21,
				20,
				19,
				14,
				15,
				16,
				17,
				18,
				31,
				30,
				29,
				28,
				23,
				24,
				25,
				26,
				27,
				35
			],
			"name":"Armature"
		}
	],
	"accessors":[
		{
			"bufferView":0,
			"componentType":5126,
			"count":1949,
			"max":[
				0.5806825757026672,
				2.8891496658325195,
				1.834081768989563
			],
			"min":[
				-0.5806819796562195,
				-8.772964793024585e-05,
				-0.31741365790367126
			],
			"type":"VEC3"
		},
		{
			"bufferView":1,
			"componentType":5126,
			"count":1949,
			"type":"VEC3"
		},
		{
			"bufferView":2,
			"componentType":5126,
			"count":1949,
			"type":"VEC2"
		},
		{
			"bufferView":3,
			"componentType":5121,
			"count":1949,
			"type":"VEC4"
		},
		{
			"bufferView":4,
			"componentType":5126,
			"count":1949,
			"type":"VEC4"
		},
		{
			"bufferView":5,
			"componentType":5123,
			"count":7206,
			"type":"SCALAR"
		},
		{
			"bufferView":6,
			"componentType":5126,
			"count":28,
			"max":[
				-0.07152552902698517,
				2.5506982803344727,
				1.1551209688186646
			],
			"min":[
				-0.250357061624527,
				2.35032320022583,
				1.0901886224746704
			],
			"type":"VEC3"
		},
		{
			"bufferView":7,
			"componentType":5126,
			"count":28,
			"type":"VEC3"
		},
		{
			"bufferView":8,
			"componentType":5126,
			"count":28,
			"type":"VEC2"
		},
		{
			"bufferView":9,
			"componentType":5121,
			"count":28,
			"type":"VEC4"
		},
		{
			"bufferView":10,
			"componentType":5126,
			"count":28,
			"type":"VEC4"
		},
		{
			"bufferView":11,
			"componentType":5123,
			"count":102,
			"type":"SCALAR"
		},
		{
			"bufferView":12,
			"componentType":5126,
			"count":28,
			"max":[
				0.2503569424152374,
				2.5506982803344727,
				1.1551209688186646
			],
			"min":[
				0.07152543216943741,
				2.35032320022583,
				1.0901886224746704
			],
			"type":"VEC3"
		},
		{
			"bufferView":13,
			"componentType":5126,
			"count":28,
			"type":"VEC3"
		},
		{
			"bufferView":14,
			"componentType":5126,
			"count":28,
			"type":"VEC2"
		},
		{
			"bufferView":15,
			"componentType":5121,
			"count":28,
			"type":"VEC4"
		},
		{
			"bufferView":16,
			"componentType":5126,
			"count":28,
			"type":"VEC4"
		},
		{
			"bufferView":17,
			"componentType":5123,
			"count":102,
			"type":"SCALAR"
		},
		{
			"bufferView":18,
			"componentType":5126,
			"count":12,
			"max":[
				0.3115313947200775,
				2.685699701309204,
				1.174619197845459
			],
			"min":[
				-0.3114296793937683,
				2.521136999130249,
				1.0340181589126587
			],
			"type":"VEC3"
		},
		{
			"bufferView":19,
			"componentType":5126,
			"count":12,
			"type":"VEC3"
		},
		{
			"bufferView":20,
			"componentType":5126,
			"count":12,
			"type":"VEC2"
		},
		{
			"bufferView":21,
			"componentType":5121,
			"count":12,
			"type":"VEC4"
		},
		{
			"bufferView":22,
			"componentType":5126,
			"count":12,
			"type":"VEC4"
		},
		{
			"bufferView":23,
			"componentType":5123,
			"count":24,
			"type":"SCALAR"
		},
		{
			"bufferView":24,
			"componentType":5126,
			"count":40,
			"type":"MAT4"
		}
	],
	"bufferViews":[
		{
			"buffer":0,
			"byteLength":23388,
			"byteOffset":0,
			"target":34962
		},
		{
			"buffer":0,
			"byteLength":23388,
			"byteOffset":23388,
			"target":34962
		},
		{
			"buffer":0,
			"byteLength":15592,
			"byteOffset":46776,
			"target":34962
		},
		{
			"buffer":0,
			"byteLength":7796,
			"byteOffset":62368,
			"target":34962
		},
		{
			"buffer":0,
			"byteLength":31184,
			"byteOffset":70164,
			"target":34962
		},
		{
			"buffer":0,
			"byteLength":14412,
			"byteOffset":101348,
			"target":34963
		},
		{
			"buffer":0,
			"byteLength":336,
			"byteOffset":115760,
			"target":34962
		},
		{
			"buffer":0,
			"byteLength":336,
			"byteOffset":116096,
			"target":34962
		},
		{
			"buffer":0,
			"byteLength":224,
			"byteOffset":116432,
			"target":34962
		},
		{
			"buffer":0,
			"byteLength":112,
			"byteOffset":116656,
			"target":34962
		},
		{
			"buffer":0,
			"byteLength":448,
			"byteOffset":116768,
			"target":34962
		},
		{
			"buffer":0,
			"byteLength":204,
			"byteOffset":117216,
			"target":34963
		},
		{
			"buffer":0,
			"byteLength":336,
			"byteOffset":117420,
			"target":34962
		},
		{
			"buffer":0,
			"byteLength":336,
			"byteOffset":117756,
			"target":34962
		},
		{
			"buffer":0,
			"byteLength":224,
			"byteOffset":118092,
			"target":34962
		},
		{
			"buffer":0,
			"byteLength":112,
			"byteOffset":118316,
			"target":34962
		},
		{
			"buffer":0,
			"byteLength":448,
			"byteOffset":118428,
			"target":34962
		},
		{
			"buffer":0,
			"byteLength":204,
			"byteOffset":118876,
			"target":34963
		},
		{
			"buffer":0,
			"byteLength":144,
			"byteOffset":119080,
			"target":34962
		},
		{
			"buffer":0,
			"byteLength":144,
			"byteOffset":119224,
			"target":34962
		},
		{
			"buffer":0,
			"byteLength":96,
			"byteOffset":119368,
			"target":34962
		},
		{
			"buffer":0,
			"byteLength":48,
			"byteOffset":119464,
			"target":34962
		},
		{
			"buffer":0,
			"byteLength":192,
			"byteOffset":119512,
			"target":34962
		},
		{
			"buffer":0,
			"byteLength":48,
			"byteOffset":119704,
			"target":34963
		},
		{
			"buffer":0,
			"byteLength":2560,
			"byteOffset":119752
		}
	],
	"samplers":[
		{
			"magFilter":9729,
			"minFilter":9987
		}
	],
	"buffers":[
		{
			"byteLength":122312,
			"uri":"Herbert.bin"
		}
	]
}
