{
	"asset":{
		"generator":"Khronos glTF Blender I/O v5.0.21",
		"version":"2.0"
	},
	"extensionsUsed":[
		"KHR_materials_specular"
	],
	"scene":0,
	"scenes":[
		{
			"name":"Scene",
			"nodes":[
				30
			]
		}
	],
	"nodes":[
		{
			"name":"LeftToe_joint",
			"rotation":[
				-1.1432256741272795e-07,
				-1.5233948147397314e-07,
				-0.4035366475582123,
				0.9149634838104248
			],
			"scale":[
				1.000000238418579,
				0.9999998807907104,
				1.0000001192092896
			],
			"translation":[
				0.04437457025051117,
				-0.029275458306074142,
				-0.0007727196789346635
			]
		},
		{
			"children":[
				0
			],
			"name":"LeftAnkle_joint",
			"rotation":[
				0.033976517617702484,
				0.020369041711091995,
				0.8745364546775818,
				0.4833391606807709
			],
			"scale":[
				1,
				1,
				1.0000001192092896
			],
			"translation":[
				-0.21499988436698914,
				9.266659617424011e-08,
				1.8742866814136505e-08
			]
		},
		{
			"children":[
				1
			],
			"name":"LeftKnee_joint",
			"rotation":[
				2.0919246708217543e-06,
				-5.709193260372558e-07,
				0.9665265083312988,
				0.2565667927265167
			],
			"scale":[
				1.0000005960464478,
				1,
				1
			],
			"translation":[
				-0.11599999666213989,
				-5.587935447692871e-09,
				0
			]
		},
		{
			"children":[
				2
			],
			"name":"LeftHip_joint",
			"rotation":[
				0.5816758275032043,
				0.26763272285461426,
				0.7203100919723511,
				0.26679471135139465
			],
			"scale":[
				1,
				0.9999997615814209,
				0.9999998211860657
			],
			"translation":[
				0.027262063696980476,
				-0.0405072420835495,
				-0.07933365553617477
			]
		},
		{
			"name":"RightToe_joint",
			"rotation":[
				6.801208485285315e-08,
				3.540786508438032e-08,
				-0.40353792905807495,
				0.914962887763977
			],
			"scale":[
				1,
				1.0000001192092896,
				0.9999998807907104
			],
			"translation":[
				-0.04400001838803291,
				0.02899998426437378,
				0.0009999955072999
			]
		},
		{
			"children":[
				4
			],
			"name":"RightAnkle_joint",
			"rotation":[
				0.020347923040390015,
				-0.03365807235240936,
				-0.48335036635398865,
				0.8745430111885071
			],
			"scale":[
				1,
				1,
				1.0000001192092896
			],
			"translation":[
				-0.2147986739873886,
				3.91155481338501e-08,
				-7.799826562404633e-09
			]
		},
		{
			"children":[
				5
			],
			"name":"RightKnee_joint",
			"rotation":[
				-3.372696255610208e-08,
				-5.299951588710883e-09,
				0.9664757251739502,
				0.2567579448223114
			],
			"scale":[
				1.0000001192092896,
				0.9999998807907104,
				0.9999998807907104
			],
			"translation":[
				-0.1159999892115593,
				-1.862645149230957e-09,
				-7.450580596923828e-09
			]
		},
		{
			"children":[
				6
			],
			"name":"RightHip_joint",
			"rotation":[
				-0.5817531943321228,
				-0.26732373237609863,
				0.7203442454338074,
				0.2668435275554657
			],
			"scale":[
				1,
				0.9999997615814209,
				0.9999997019767761
			],
			"translation":[
				0.027171296998858452,
				-0.0403904914855957,
				0.07920000702142715
			]
		},
		{
			"children":[
				3,
				7
			],
			"name":"CenterHip_joint",
			"rotation":[
				0.5000000596046448,
				-0.5,
				-0.5,
				0.5
			],
			"translation":[
				-6.9152166860535105e-18,
				2.490194717097438e-10,
				-4.887877658177331e-09
			]
		},
		{
			"name":"Jaw_joint",
			"rotation":[
				-8.82810957201832e-17,
				-4.442626821976603e-15,
				-3.2596292331987797e-09,
				1
			],
			"scale":[
				1,
				0.9999999403953552,
				1
			],
			"translation":[
				-0.008576802909374237,
				0.04784722626209259,
				-3.7490399673600905e-10
			]
		},
		{
			"name":"Nose_joint",
			"rotation":[
				-7.04553899156124e-18,
				1.4546302530560329e-11,
				4.656612873077393e-10,
				1
			],
			"scale":[
				1,
				0.9999999403953552,
				1
			],
			"translation":[
				0.22999998927116394,
				-5.122274160385132e-09,
				1.0053621934957846e-08
			]
		},
		{
			"children":[
				9,
				10
			],
			"name":"Head_joint",
			"rotation":[
				4.718640554652416e-16,
				4.370960127175749e-08,
				-0.009044895879924297,
				0.9999591112136841
			],
			"scale":[
				0.9999998807907104,
				0.9999997019767761,
				1
			],
			"translation":[
				0.03427545726299286,
				-0.024251826107501984,
				-1.4982276530517424e-09
			]
		},
		{
			"name":"LeftMidFinger_joint",
			"rotation":[
				0.7071067690849304,
				2.5624482535846482e-09,
				2.7078794762047664e-09,
				0.7071067690849304
			],
			"scale":[
				1,
				0.9999998807907104,
				0.9999999403953552
			],
			"translation":[
				0.024730326607823372,
				7.598313089829389e-10,
				1.879584488051478e-09
			]
		},
		{
			"children":[
				12
			],
			"name":"LeftHand_joint",
			"rotation":[
				0.71124666929245,
				-0.04943784326314926,
				0.13836656510829926,
				0.6874146461486816
			],
			"scale":[
				1,
				1,
				0.9999999403953552
			],
			"translation":[
				0.046000003814697266,
				-9.313225746154785e-09,
				-1.1583324521780014e-08
			]
		},
		{
			"children":[
				13
			],
			"name":"LeftElbow_joint",
			"rotation":[
				0.5344650745391846,
				-0.4629767835140228,
				0.4629763960838318,
				0.5344645977020264
			],
			"scale":[
				0.9999998211860657,
				0.9999998211860657,
				0.9999998211860657
			],
			"translation":[
				0.03400002047419548,
				-1.8320861272513866e-08,
				3.5797711461782455e-09
			]
		},
		{
			"children":[
				14
			],
			"name":"LeftShoulder_joint",
			"rotation":[
				-0.0831172987818718,
				-0.081493079662323,
				0.6977631449699402,
				0.7068076729774475
			],
			"scale":[
				0.9999998211860657,
				0.9999998211860657,
				1.000000238418579
			],
			"translation":[
				-0.04799998924136162,
				-3.73048569812795e-09,
				-2.4577415658200152e-09
			]
		},
		{
			"children":[
				15
			],
			"name":"LeftCollar_joint",
			"rotation":[
				0.006395719014108181,
				0.7070779204368591,
				-0.006395717617124319,
				0.7070778012275696
			],
			"scale":[
				0.9999999403953552,
				0.9999996423721313,
				0.9999997019767761
			],
			"translation":[
				0.07770485430955887,
				0.058590855449438095,
				0.059999994933605194
			]
		},
		{
			"name":"RightMidFinger_joint",
			"rotation":[
				0.7071132063865662,
				-2.6659433771669683e-08,
				2.3979700358722766e-07,
				0.7071003317832947
			],
			"translation":[
				-0.024730348959565163,
				1.0154984408927703e-08,
				-1.0502844816073775e-08
			]
		},
		{
			"children":[
				17
			],
			"name":"RightHand_joint",
			"rotation":[
				0.6891189813613892,
				-0.02954813651740551,
				0.12177588790655136,
				0.7137314677238464
			],
			"scale":[
				0.9999998807907104,
				0.9999997019767761,
				0.9999998211860657
			],
			"translation":[
				-0.046262044459581375,
				-1.641456037759781e-07,
				-4.7923531383275986e-06
			]
		},
		{
			"children":[
				18
			],
			"name":"RightElbow_joint",
			"rotation":[
				-0.00010483824007678777,
				0.0001012064894894138,
				0.6594896912574768,
				0.7517136335372925
			],
			"scale":[
				0.9999998211860657,
				1.0000001192092896,
				1
			],
			"translation":[
				-0.03414502739906311,
				-1.7951970221474767e-07,
				-5.019421223551035e-06
			]
		},
		{
			"children":[
				19
			],
			"name":"RightShoulder_joint",
			"rotation":[
				0.4368792772293091,
				0.47100162506103516,
				0.5499017834663391,
				0.5337620377540588
			],
			"scale":[
				0.9999997615814209,
				0.9999999403953552,
				0.9999998211860657
			],
			"translation":[
				0.047999996691942215,
				-6.930481522005039e-09,
				6.882398650986943e-09
			]
		},
		{
			"children":[
				20
			],
			"name":"RightCollar_joint",
			"rotation":[
				-0.7070778608322144,
				0.006395718548446894,
				0.7070778608322144,
				0.006395719014108181
			],
			"scale":[
				0.9999999403953552,
				0.9999998807907104,
				0.9999998211860657
			],
			"translation":[
				0.07770485430955887,
				0.058590855449438095,
				-0.06000000238418579
			]
		},
		{
			"children":[
				11,
				16,
				21
			],
			"name":"SpineB_joint",
			"rotation":[
				0,
				1.5893254712295857e-08,
				0,
				1
			],
			"translation":[
				0.03136920556426048,
				-9.970149150717589e-09,
				-2.3683091043835702e-09
			]
		},
		{
			"children":[
				22
			],
			"name":"SpineA_joint",
			"rotation":[
				0.5000000596046448,
				0.5,
				0.5,
				0.5
			],
			"translation":[
				-6.9150446324860995e-18,
				2.490194717097438e-10,
				-4.887877658177331e-09
			]
		},
		{
			"children":[
				8,
				23
			],
			"name":"CenterRoot_joint",
			"rotation":[
				0.7071067690849304,
				0,
				0,
				0.7071067690849304
			],
			"translation":[
				-3.4575673148683726e-17,
				0.10198430716991425,
				-0.06474189460277557
			]
		},
		{
			"children":[
				24
			],
			"name":"WorldRoot2_joint"
		},
		{
			"children":[
				25
			],
			"name":"WorldRoot1_joint"
		},
		{
			"children":[
				26
			],
			"name":"npc_custom_toadSpotted_mdl"
		},
		{
			"children":[
				27
			],
			"name":"npc_custom_toadSpotted_mdl (merge)",
			"rotation":[
				-0.7071067690849304,
				0,
				0,
				0.7071067690849304
			]
		},
		{
			"mesh":0,
			"name":"toadSpotted_geo",
			"skin":0
		},
		{
			"children":[
				29,
				28
			],
			"name":"Armature",
			"rotation":[
				0.7071068286895752,
				0,
				0,
				0.7071068286895752
			],
			"scale":[
				1.534500002861023,
				1.534500002861023,
				1.534500002861023
			]
		}
	],
	"materials":[
		{
			"doubleSided":true,
			"extensions":{
				"KHR_materials_specular":{
					"specularColorFactor":[
						0.4000000059604645,
						0.4000000059604645,
						0.4000000059604645
					]
				}
			},
			"name":"toadSpotted_body_FGC_mat",
			"pbrMetallicRoughness":{
				"baseColorTexture":{
					"index":0
				},
				"metallicFactor":0
			}
		}
	],
	"meshes":[
		{
			"name":"toadSpotted_geo",
			"primitives":[
				{
					"attributes":{
						"POSITION":0,
						"NORMAL":1,
						"TEXCOORD_0":2,
						"JOINTS_0":3,
						"WEIGHTS_0":4
					},
					"indices":5,
					"material":0
				}
			]
		}
	],
	"textures":[
		{
			"sampler":0,
			"source":0
		}
	],
	"images":[
		{
			"mimeType":"image/png",
			"name":"npc_custom_toadSpotted_col",
			"uri":"npc_custom_toadSpotted_col.png"
		}
	],
	"skins":[
		{
			"inverseBindMatrices":6,
			"joints":[
				28,
				27,
				26,
				25,
				24,
				8,
				3,
				2,
				1,
				0,
				7,
				6,
				5,
				4,
				23,
				22,
				11,
				9,
				10,
				16,
				15,
				14,
				13,
				12,
				21,
				20,
				19,
				18,
				17
			],
			"name":"Armature"
		}
	],
	"accessors":[
		{
			"bufferView":0,
			"componentType":5126,
			"count":738,
			"max":[
				0.36937981843948364,
				0.3924998342990875,
				0.3822788894176483
			],
			"min":[
				-0.36937981843948364,
				-0.001196095603518188,
				-0.2320900410413742
			],
			"type":"VEC3"
		},
		{
			"bufferView":1,
			"componentType":5126,
			"count":738,
			"type":"VEC3"
		},
		{
			"bufferView":2,
			"componentType":5126,
			"count":738,
			"type":"VEC2"
		},
		{
			"bufferView":3,
			"componentType":5121,
			"count":738,
			"type":"VEC4"
		},
		{
			"bufferView":4,
			"componentType":5126,
			"count":738,
			"type":"VEC4"
		},
		{
			"bufferView":5,
			"componentType":5123,
			"count":3270,
			"type":"SCALAR"
		},
		{
			"bufferView":6,
			"componentType":5126,
			"count":29,
			"type":"MAT4"
		}
	],
	"bufferViews":[
		{
			"buffer":0,
			"byteLength":8856,
			"byteOffset":0,
			"target":34962
		},
		{
			"buffer":0,
			"byteLength":8856,
			"byteOffset":8856,
			"target":34962
		},
		{
			"buffer":0,
			"byteLength":5904,
			"byteOffset":17712,
			"target":34962
		},
		{
			"buffer":0,
			"byteLength":2952,
			"byteOffset":23616,
			"target":34962
		},
		{
			"buffer":0,
			"byteLength":11808,
			"byteOffset":26568,
			"target":34962
		},
		{
			"buffer":0,
			"byteLength":6540,
			"byteOffset":38376,
			"target":34963
		},
		{
			"buffer":0,
			"byteLength":1856,
			"byteOffset":44916
		}
	],
	"samplers":[
		{
			"magFilter":9729,
			"minFilter":9987
		}
	],
	"buffers":[
		{
			"byteLength":46772,
			"uri":"Toad%20Spotted.bin"
		}
	]
}
