{
	"asset":{
		"generator":"Khronos glTF Blender I/O v5.0.21",
		"version":"2.0"
	},
	"extensionsUsed":[
		"KHR_materials_specular"
	],
	"scene":0,
	"scenes":[
		{
			"name":"Scene",
			"nodes":[
				42
			]
		}
	],
	"nodes":[
		{
			"name":"PupilsAnim_joint",
			"translation":[
				0,
				0,
				0.10854047536849976
			]
		},
		{
			"children":[
				0
			],
			"name":"FacialAnim_joint"
		},
		{
			"name":"LeftToe_joint",
			"rotation":[
				-0.014876177534461021,
				-0.005960692651569843,
				-0.3719148635864258,
				0.9281285405158997
			],
			"scale":[
				1,
				0.9999999403953552,
				0.9999997615814209
			],
			"translation":[
				0.1981159746646881,
				-1.3715180102735758e-07,
				5.2174982556607574e-08
			]
		},
		{
			"children":[
				2
			],
			"name":"LeftAnkle_joint",
			"rotation":[
				0.02498512715101242,
				0.011340259574353695,
				-0.44087615609169006,
				0.8971484899520874
			],
			"scale":[
				1,
				0.9999998807907104,
				1
			],
			"translation":[
				0.22199992835521698,
				4.598405212163925e-08,
				1.6676494851708412e-08
			]
		},
		{
			"children":[
				3
			],
			"name":"LeftKnee_joint",
			"rotation":[
				-1.281178541034933e-08,
				-7.177693817084219e-08,
				0.030856873840093613,
				0.9995238184928894
			],
			"scale":[
				1.0000001192092896,
				1,
				1
			],
			"translation":[
				0.30749985575675964,
				-5.020410753786564e-10,
				1.1525753507157788e-07
			]
		},
		{
			"children":[
				4
			],
			"name":"LeftHip_joint",
			"rotation":[
				-0.9994826316833496,
				0.019050734117627144,
				0.025914303958415985,
				0.00018154270946979523
			],
			"scale":[
				1.0000004768371582,
				1,
				0.9999999403953552
			],
			"translation":[
				0.10499995201826096,
				-0.007000039331614971,
				-0.10600002110004425
			]
		},
		{
			"name":"RightToe_joint",
			"rotation":[
				0.0003362038405612111,
				0.00013471760030370206,
				-0.37195923924446106,
				0.9282490015029907
			],
			"scale":[
				0.9999998807907104,
				1,
				0.9999998807907104
			],
			"translation":[
				-0.19800007343292236,
				6.475602276623249e-09,
				4.721232471638359e-08
			]
		},
		{
			"children":[
				6
			],
			"name":"RightAnkle_joint",
			"rotation":[
				0.0102770384401083,
				0.018566351383924484,
				-0.440643310546875,
				0.8974314332008362
			],
			"scale":[
				0.9999998807907104,
				0.9999999403953552,
				0.9999997615814209
			],
			"translation":[
				-0.22200004756450653,
				-7.62520357966423e-09,
				-2.7346686692908406e-08
			]
		},
		{
			"children":[
				7
			],
			"name":"RightKnee_joint",
			"rotation":[
				2.596614422145649e-06,
				-8.416991477133706e-05,
				0.03086373209953308,
				0.9995235800743103
			],
			"scale":[
				1,
				1,
				1.0000001192092896
			],
			"translation":[
				-0.30750009417533875,
				3.017339622601867e-08,
				-2.3140273697208613e-08
			]
		},
		{
			"children":[
				8
			],
			"name":"RightHip_joint",
			"rotation":[
				0.019050976261496544,
				0.9994834661483765,
				-0.00017852320161182433,
				0.025881165638566017
			],
			"scale":[
				1,
				0.9999998211860657,
				1
			],
			"translation":[
				0.10499996691942215,
				-0.007000058423727751,
				0.10600000619888306
			]
		},
		{
			"children":[
				5,
				9
			],
			"name":"CenterHip_joint",
			"rotation":[
				0.4999999701976776,
				-0.5,
				-0.5,
				0.5
			],
			"scale":[
				0.9999999403953552,
				0.9999997615814209,
				0.9999998807907104
			],
			"translation":[
				-6.617444900424222e-24,
				-6.660318963014333e-10,
				2.7679547542902583e-10
			]
		},
		{
			"name":"Mouth_joint",
			"rotation":[
				-5.270402051658603e-15,
				3.1804894717879506e-08,
				-8.381903171539307e-08,
				1
			],
			"translation":[
				0.028811730444431305,
				0.004084832966327667,
				-3.0912701287633126e-09
			]
		},
		{
			"name":"Teeth_joint",
			"rotation":[
				-0.006395730189979076,
				-0.7070777416229248,
				-0.006395730189979076,
				0.7070779800415039
			],
			"scale":[
				1,
				1.0000003576278687,
				1.0000001192092896
			],
			"translation":[
				0.08180803060531616,
				0.00892649032175541,
				-8.77735484294817e-09
			]
		},
		{
			"children":[
				11,
				12
			],
			"name":"Jaw_joint",
			"rotation":[
				0.7071068286895752,
				0.7071067094802856,
				-2.2481883021896465e-08,
				5.338507591545749e-08
			],
			"scale":[
				1,
				0.9999998807907104,
				1
			],
			"translation":[
				0.10116115212440491,
				0.09842728078365326,
				4.421119914610472e-09
			]
		},
		{
			"name":"Nose_joint",
			"rotation":[
				-0.49545711278915405,
				-0.50450199842453,
				-0.49545711278915405,
				0.5045019388198853
			],
			"scale":[
				1,
				0.9999999403953552,
				1
			],
			"translation":[
				0.19661304354667664,
				0.18681901693344116,
				8.59271764852565e-09
			]
		},
		{
			"children":[
				13,
				14
			],
			"name":"Head_joint",
			"rotation":[
				3.953288807423405e-10,
				-3.830871384002954e-12,
				-0.00904486607760191,
				0.9999591112136841
			],
			"scale":[
				0.9999998807907104,
				0.9999999403953552,
				1
			],
			"translation":[
				0.2956109046936035,
				-0.005366531666368246,
				1.2921572256630043e-08
			]
		},
		{
			"name":"LeftIndexFinger_joint",
			"rotation":[
				-1.2293457984924316e-07,
				7.450580596923828e-08,
				1.0244548320770264e-07,
				1
			],
			"scale":[
				1,
				1,
				0.9999999403953552
			],
			"translation":[
				0.135722354054451,
				0.04991669952869415,
				0.0008654296398162842
			]
		},
		{
			"name":"LeftMidFinger_joint",
			"rotation":[
				-1.2852251529693604e-07,
				7.264316082000732e-08,
				1.6391277313232422e-07,
				1
			],
			"scale":[
				1,
				1.0000001192092896,
				0.9999999403953552
			],
			"translation":[
				0.1371947079896927,
				0.003396764397621155,
				-0.0014659576117992401
			]
		},
		{
			"name":"LeftPinkyFinger_joint",
			"rotation":[
				-9.685754776000977e-08,
				8.195638656616211e-08,
				1.73225998878479e-07,
				1
			],
			"translation":[
				0.1369810849428177,
				-0.04501825571060181,
				-0.003562353551387787
			]
		},
		{
			"name":"LeftThumb_joint",
			"rotation":[
				0.08875508606433868,
				-0.14572004973888397,
				0.030075566843152046,
				0.9848775267601013
			],
			"scale":[
				0.9999999403953552,
				0.9999999403953552,
				0.9999998807907104
			],
			"translation":[
				0.05937352776527405,
				0.10219232738018036,
				0.015469241887331009
			]
		},
		{
			"name":"LeftWeapon_joint",
			"rotation":[
				0.051495179533958435,
				0.708388090133667,
				0.01065487414598465,
				0.7038615345954895
			],
			"scale":[
				0.9999999403953552,
				0.9999999403953552,
				1
			],
			"translation":[
				0.11218823492527008,
				-0.00032867491245269775,
				0.02797520160675049
			]
		},
		{
			"children":[
				16,
				17,
				18,
				19,
				20
			],
			"name":"LeftHand_joint",
			"rotation":[
				4.842877388000488e-08,
				-1.041218638420105e-06,
				-1.1175871783564162e-08,
				1
			],
			"scale":[
				0.9999999403953552,
				1,
				1.0000001192092896
			],
			"translation":[
				0.2264999896287918,
				3.725290298461914e-08,
				-1.7881393432617188e-07
			]
		},
		{
			"children":[
				21
			],
			"name":"LeftElbow_joint",
			"rotation":[
				0.7066829800605774,
				-0.024479664862155914,
				0.02447952702641487,
				0.7066828608512878
			],
			"scale":[
				1.0000001192092896,
				0.9999998807907104,
				0.9999999403953552
			],
			"translation":[
				0.2955000400543213,
				5.029141902923584e-08,
				1.4901161193847656e-08
			]
		},
		{
			"children":[
				22
			],
			"name":"LeftShoulder_joint",
			"rotation":[
				-0.00711106788367033,
				0.6492431163787842,
				0.653172492980957,
				0.3896133303642273
			],
			"scale":[
				0.9999999403953552,
				0.9999998807907104,
				1.000000238418579
			],
			"translation":[
				-0.17400000989437103,
				-4.999402136718345e-08,
				8.234665216377834e-08
			]
		},
		{
			"children":[
				23
			],
			"name":"LeftCollar_joint",
			"rotation":[
				0.006395685952156782,
				0.7070778608322144,
				-0.006395685952156782,
				0.7070778608322144
			],
			"scale":[
				0.9999999403953552,
				0.9999997019767761,
				0.9999998211860657
			],
			"translation":[
				0.15899991989135742,
				-0.03300000727176666,
				0.05500000715255737
			]
		},
		{
			"name":"RightIndexFinger_joint",
			"rotation":[
				-2.4400651454925537e-07,
				1.6763806343078613e-07,
				-8.568167686462402e-08,
				1
			],
			"translation":[
				-0.13572239875793457,
				-0.049916744232177734,
				-0.0008652731776237488
			]
		},
		{
			"name":"RightMidFinger_joint",
			"rotation":[
				-2.551823854446411e-07,
				1.1734664440155029e-07,
				-3.725290298461914e-08,
				1
			],
			"translation":[
				-0.1371946930885315,
				-0.0033967792987823486,
				0.0014661811292171478
			]
		},
		{
			"name":"RightPinkyFinger_joint",
			"rotation":[
				-4.0978193283081055e-08,
				-3.725290298461914e-09,
				-3.91155481338501e-08,
				1
			],
			"translation":[
				-0.1369810700416565,
				0.045018270611763,
				0.003562506288290024
			]
		},
		{
			"name":"RightThumb_joint",
			"rotation":[
				0.08875497430562973,
				-0.14572012424468994,
				0.0300754364579916,
				0.9848775267601013
			],
			"scale":[
				1,
				1.000000238418579,
				1.000000238418579
			],
			"translation":[
				-0.05937356501817703,
				-0.10219234228134155,
				-0.015469074249267578
			]
		},
		{
			"name":"RightWeapon_joint",
			"rotation":[
				-0.7038680911064148,
				-0.010575054213404655,
				0.70838862657547,
				0.05141519755125046
			],
			"scale":[
				1.000009298324585,
				0.9999999403953552,
				1.000020980834961
			],
			"translation":[
				-0.11218761652708054,
				0.0002643167972564697,
				-0.027978554368019104
			]
		},
		{
			"children":[
				25,
				26,
				27,
				28,
				29
			],
			"name":"RightHand_joint",
			"rotation":[
				1.8067662210796698e-07,
				-1.6428532489953795e-06,
				-9.313225746154785e-09,
				1
			],
			"scale":[
				1,
				0.9999997615814209,
				0.9999997615814209
			],
			"translation":[
				-0.22650004923343658,
				5.960464477539063e-08,
				-3.725290298461914e-08
			]
		},
		{
			"children":[
				30
			],
			"name":"RightElbow_joint",
			"rotation":[
				2.0315013671279303e-07,
				-1.3102252296448569e-06,
				0.0346197746694088,
				0.9994005560874939
			],
			"scale":[
				0.9999999403953552,
				1.0000001192092896,
				0.9999998211860657
			],
			"translation":[
				-0.29550009965896606,
				-2.1606683731079102e-07,
				-5.038455128669739e-06
			]
		},
		{
			"children":[
				31
			],
			"name":"RightShoulder_joint",
			"rotation":[
				0.27050143480300903,
				0.9209497570991516,
				0.002676186617463827,
				0.2804877460002899
			],
			"scale":[
				0.9999997615814209,
				0.9999998807907104,
				1.0000001192092896
			],
			"translation":[
				0.17400003969669342,
				-1.1768074514861837e-08,
				4.5428848238771025e-08
			]
		},
		{
			"children":[
				32
			],
			"name":"RightCollar_joint",
			"rotation":[
				-0.7070779204368591,
				0.006395682226866484,
				0.7070778012275696,
				0.006395681761205196
			],
			"scale":[
				0.9999998807907104,
				0.9999997019767761,
				0.9999998211860657
			],
			"translation":[
				0.15899991989135742,
				-0.03300000727176666,
				-0.05499999225139618
			]
		},
		{
			"children":[
				15,
				24,
				33
			],
			"name":"SpineB_joint",
			"rotation":[
				4.632211430296955e-23,
				0,
				0,
				1
			],
			"translation":[
				0.20610761642456055,
				-2.9797313061408204e-08,
				9.009248458369257e-09
			]
		},
		{
			"children":[
				34
			],
			"name":"SpineA_joint",
			"rotation":[
				0.5,
				0.5,
				0.5,
				0.5
			],
			"scale":[
				1,
				0.9999999403953552,
				1
			],
			"translation":[
				6.617444900424222e-24,
				-6.660318963014333e-10,
				2.7679547542902583e-10
			]
		},
		{
			"children":[
				10,
				35
			],
			"name":"CenterRoot_joint",
			"translation":[
				-4.149081042539843e-17,
				0.7684822082519531,
				0.00882191676646471
			]
		},
		{
			"children":[
				36
			],
			"name":"WorldRoot2_joint"
		},
		{
			"children":[
				1,
				37
			],
			"name":"WorldRoot1_joint"
		},
		{
			"children":[
				38
			],
			"name":"npc_custom_dogCopB_mdl"
		},
		{
			"children":[
				39
			],
			"name":"npc_custom_dogCopB_mdl (merge)",
			"rotation":[
				-0.7071067690849304,
				0,
				0,
				0.7071067690849304
			]
		},
		{
			"mesh":0,
			"name":"dogCopB_geo.001",
			"skin":0
		},
		{
			"children":[
				41,
				40
			],
			"name":"Armature",
			"rotation":[
				0.7071068286895752,
				0,
				0,
				0.7071068286895752
			]
		}
	],
	"materials":[
		{
			"doubleSided":true,
			"extensions":{
				"KHR_materials_specular":{
					"specularColorFactor":[
						0.4000000059604645,
						0.4000000059604645,
						0.4000000059604645
					]
				}
			},
			"name":"dogCopB_body_FGC_mat",
			"pbrMetallicRoughness":{
				"baseColorTexture":{
					"index":0
				},
				"metallicFactor":0
			}
		},
		{
			"doubleSided":true,
			"extensions":{
				"KHR_materials_specular":{
					"specularColorFactor":[
						0.4000000059604645,
						0.4000000059604645,
						0.4000000059604645
					]
				}
			},
			"name":"dogCopB_rightPupil_FGCE_mat",
			"pbrMetallicRoughness":{
				"baseColorTexture":{
					"index":1
				},
				"metallicFactor":0
			}
		},
		{
			"doubleSided":true,
			"extensions":{
				"KHR_materials_specular":{
					"specularColorFactor":[
						0.4000000059604645,
						0.4000000059604645,
						0.4000000059604645
					]
				}
			},
			"name":"dogCopB_leftPupil_FGCE_mat",
			"pbrMetallicRoughness":{
				"baseColorTexture":{
					"index":2
				},
				"metallicFactor":0
			}
		}
	],
	"meshes":[
		{
			"name":"dogCopB_geo.001",
			"primitives":[
				{
					"attributes":{
						"POSITION":0,
						"NORMAL":1,
						"TEXCOORD_0":2,
						"JOINTS_0":3,
						"WEIGHTS_0":4
					},
					"indices":5,
					"material":0
				},
				{
					"attributes":{
						"POSITION":6,
						"NORMAL":7,
						"TEXCOORD_0":8,
						"JOINTS_0":9,
						"WEIGHTS_0":10
					},
					"indices":11,
					"material":1
				},
				{
					"attributes":{
						"POSITION":12,
						"NORMAL":13,
						"TEXCOORD_0":14,
						"JOINTS_0":15,
						"WEIGHTS_0":16
					},
					"indices":17,
					"material":2
				}
			]
		}
	],
	"textures":[
		{
			"sampler":0,
			"source":0
		},
		{
			"sampler":0,
			"source":1
		},
		{
			"sampler":0,
			"source":1
		}
	],
	"images":[
		{
			"mimeType":"image/png",
			"name":"npc_custom_dogCopB_col",
			"uri":"npc_custom_dogCopB_col.png"
		},
		{
			"mimeType":"image/png",
			"name":"npc_shared_pupil_col_Edited",
			"uri":"npc_shared_pupil_col_Edited.png"
		}
	],
	"skins":[
		{
			"inverseBindMatrices":18,
			"joints":[
				40,
				39,
				38,
				1,
				0,
				37,
				36,
				10,
				5,
				4,
				3,
				2,
				9,
				8,
				7,
				6,
				35,
				34,
				15,
				13,
				11,
				12,
				14,
				24,
				23,
				22,
				21,
				16,
				17,
				18,
				19,
				20,
				33,
				32,
				31,
				30,
				25,
				26,
				27,
				28,
				29
			],
			"name":"Armature"
		}
	],
	"accessors":[
		{
			"bufferView":0,
			"componentType":5126,
			"count":1807,
			"max":[
				0.7374802827835083,
				1.8165159225463867,
				0.4314636290073395
			],
			"min":[
				-0.7374802827835083,
				-4.351210591835297e-08,
				-0.46542492508888245
			],
			"type":"VEC3"
		},
		{
			"bufferView":1,
			"componentType":5126,
			"count":1807,
			"type":"VEC3"
		},
		{
			"bufferView":2,
			"componentType":5126,
			"count":1807,
			"type":"VEC2"
		},
		{
			"bufferView":3,
			"componentType":5121,
			"count":1807,
			"type":"VEC4"
		},
		{
			"bufferView":4,
			"componentType":5126,
			"count":1807,
			"type":"VEC4"
		},
		{
			"bufferView":5,
			"componentType":5123,
			"count":7482,
			"type":"SCALAR"
		},
		{
			"bufferView":6,
			"componentType":5126,
			"count":26,
			"max":[
				-0.010817961767315865,
				1.6777600049972534,
				0.16002999246120453
			],
			"min":[
				-0.08915747702121735,
				1.5998072624206543,
				0.1223624050617218
			],
			"type":"VEC3"
		},
		{
			"bufferView":7,
			"componentType":5126,
			"count":26,
			"type":"VEC3"
		},
		{
			"bufferView":8,
			"componentType":5126,
			"count":26,
			"type":"VEC2"
		},
		{
			"bufferView":9,
			"componentType":5121,
			"count":26,
			"type":"VEC4"
		},
		{
			"bufferView":10,
			"componentType":5126,
			"count":26,
			"type":"VEC4"
		},
		{
			"bufferView":11,
			"componentType":5123,
			"count":111,
			"type":"SCALAR"
		},
		{
			"bufferView":12,
			"componentType":5126,
			"count":26,
			"max":[
				0.08915748447179794,
				1.6777596473693848,
				0.16002999246120453
			],
			"min":[
				0.01081796269863844,
				1.5998072624206543,
				0.122362419962883
			],
			"type":"VEC3"
		},
		{
			"bufferView":13,
			"componentType":5126,
			"count":26,
			"type":"VEC3"
		},
		{
			"bufferView":14,
			"componentType":5126,
			"count":26,
			"type":"VEC2"
		},
		{
			"bufferView":15,
			"componentType":5121,
			"count":26,
			"type":"VEC4"
		},
		{
			"bufferView":16,
			"componentType":5126,
			"count":26,
			"type":"VEC4"
		},
		{
			"bufferView":17,
			"componentType":5123,
			"count":111,
			"type":"SCALAR"
		},
		{
			"bufferView":18,
			"componentType":5126,
			"count":41,
			"type":"MAT4"
		}
	],
	"bufferViews":[
		{
			"buffer":0,
			"byteLength":21684,
			"byteOffset":0,
			"target":34962
		},
		{
			"buffer":0,
			"byteLength":21684,
			"byteOffset":21684,
			"target":34962
		},
		{
			"buffer":0,
			"byteLength":14456,
			"byteOffset":43368,
			"target":34962
		},
		{
			"buffer":0,
			"byteLength":7228,
			"byteOffset":57824,
			"target":34962
		},
		{
			"buffer":0,
			"byteLength":28912,
			"byteOffset":65052,
			"target":34962
		},
		{
			"buffer":0,
			"byteLength":14964,
			"byteOffset":93964,
			"target":34963
		},
		{
			"buffer":0,
			"byteLength":312,
			"byteOffset":108928,
			"target":34962
		},
		{
			"buffer":0,
			"byteLength":312,
			"byteOffset":109240,
			"target":34962
		},
		{
			"buffer":0,
			"byteLength":208,
			"byteOffset":109552,
			"target":34962
		},
		{
			"buffer":0,
			"byteLength":104,
			"byteOffset":109760,
			"target":34962
		},
		{
			"buffer":0,
			"byteLength":416,
			"byteOffset":109864,
			"target":34962
		},
		{
			"buffer":0,
			"byteLength":222,
			"byteOffset":110280,
			"target":34963
		},
		{
			"buffer":0,
			"byteLength":312,
			"byteOffset":110504,
			"target":34962
		},
		{
			"buffer":0,
			"byteLength":312,
			"byteOffset":110816,
			"target":34962
		},
		{
			"buffer":0,
			"byteLength":208,
			"byteOffset":111128,
			"target":34962
		},
		{
			"buffer":0,
			"byteLength":104,
			"byteOffset":111336,
			"target":34962
		},
		{
			"buffer":0,
			"byteLength":416,
			"byteOffset":111440,
			"target":34962
		},
		{
			"buffer":0,
			"byteLength":222,
			"byteOffset":111856,
			"target":34963
		},
		{
			"buffer":0,
			"byteLength":2624,
			"byteOffset":112080
		}
	],
	"samplers":[
		{
			"magFilter":9729,
			"minFilter":9987
		}
	],
	"buffers":[
		{
			"byteLength":114704,
			"uri":"Dog%20Cop%20B.bin"
		}
	]
}
