{
	"asset":{
		"generator":"Khronos glTF Blender I/O v5.0.21",
		"version":"2.0"
	},
	"extensionsUsed":[
		"KHR_materials_specular"
	],
	"scene":0,
	"scenes":[
		{
			"name":"Scene",
			"nodes":[
				19
			]
		}
	],
	"nodes":[
		{
			"name":"rugAdamWest_geo",
			"rotation":[
				3.5527141023169746e-15,
				0,
				0,
				1
			],
			"scale":[
				0.9999999403953552,
				0.9999999403953552,
				0.9999999403953552
			]
		},
		{
			"name":"Nose_joint",
			"rotation":[
				1.7763566276420137e-15,
				0,
				0,
				1
			],
			"scale":[
				1,
				1.0000001192092896,
				1.0000001192092896
			],
			"translation":[
				0,
				1.3883827421068418e-10,
				6.774660277208966e-10
			]
		},
		{
			"children":[
				1
			],
			"name":"PupilsAnim_joint",
			"scale":[
				0.8268964290618896,
				0.9971002340316772,
				1.0000001192092896
			],
			"translation":[
				0,
				-6.130454721642309e-08,
				0.10854048281908035
			]
		},
		{
			"children":[
				2
			],
			"name":"FacialAnim_joint",
			"rotation":[
				3.558043210104625e-15,
				0,
				0,
				1
			],
			"scale":[
				0.8267878890037537,
				0.9970088601112366,
				0.9999999403953552
			],
			"translation":[
				0,
				0.008973359130322933,
				5.551115123125783e-17
			]
		},
		{
			"name":"LeftToe_joint",
			"rotation":[
				-0.014876537956297398,
				-0.005961139686405659,
				-0.3719147741794586,
				0.9281285405158997
			],
			"scale":[
				0.9999999403953552,
				1,
				1.0000001192092896
			],
			"translation":[
				0.1981159895658493,
				-1.7695128917694092e-07,
				-4.470348358154297e-08
			]
		},
		{
			"children":[
				4
			],
			"name":"LeftAnkle_joint",
			"rotation":[
				0.02498519793152809,
				0.011339778080582619,
				-0.44087618589401245,
				0.8971484303474426
			],
			"scale":[
				1.0000001192092896,
				1,
				1.000000238418579
			],
			"translation":[
				0.22200000286102295,
				5.5842974688857794e-08,
				1.3667158782482147e-07
			]
		},
		{
			"children":[
				5
			],
			"name":"LeftKnee_joint",
			"rotation":[
				-2.8856451450565146e-08,
				3.3973088875427493e-07,
				-1.1666180199654264e-07,
				1
			],
			"scale":[
				0.9999999403953552,
				1,
				0.9999998211860657
			],
			"translation":[
				0.30749988555908203,
				-1.626904122531414e-08,
				3.463355824351311e-08
			]
		},
		{
			"children":[
				6
			],
			"name":"LeftHip_joint",
			"rotation":[
				-0.9994826316833496,
				0.019050728529691696,
				0.0259143877774477,
				0.00018154566350858659
			],
			"scale":[
				1.0000003576278687,
				0.9999999403953552,
				0.9999998807907104
			],
			"translation":[
				0.10499998927116394,
				-0.007000017445534468,
				-0.10600000619888306
			]
		},
		{
			"name":"RightToe_joint",
			"rotation":[
				0.00033634615829214454,
				0.0001346512872260064,
				-0.3719594478607178,
				0.928248941898346
			],
			"scale":[
				0.9999998211860657,
				0.9999999403953552,
				1.0000001192092896
			],
			"translation":[
				-0.19800007343292236,
				6.938353180885315e-08,
				-4.284083843231201e-08
			]
		},
		{
			"children":[
				8
			],
			"name":"RightAnkle_joint",
			"rotation":[
				0.010277136228978634,
				0.018566589802503586,
				-0.44064319133758545,
				0.897431492805481
			],
			"scale":[
				0.9999999403953552,
				1,
				1
			],
			"translation":[
				-0.2220000922679901,
				3.444438334554434e-08,
				-3.958120942115784e-09
			]
		},
		{
			"children":[
				9
			],
			"name":"RightKnee_joint",
			"rotation":[
				-8.498317605187822e-09,
				-4.271259967936203e-08,
				8.616552804596722e-09,
				1
			],
			"scale":[
				0.9999998807907104,
				1.0000001192092896,
				1.0000001192092896
			],
			"translation":[
				-0.3075000047683716,
				1.5025580069050193e-07,
				-3.614695742726326e-08
			]
		},
		{
			"children":[
				10
			],
			"name":"RightHip_joint",
			"rotation":[
				0.0190509632229805,
				0.9994834661483765,
				-0.00017852896417025477,
				0.025881171226501465
			],
			"scale":[
				0.9999998211860657,
				1.000000238418579,
				0.9999999403953552
			],
			"translation":[
				0.10500005632638931,
				-0.007000017445534468,
				0.10599999129772186
			]
		},
		{
			"children":[
				7,
				11
			],
			"name":"CenterHip_joint",
			"rotation":[
				0.5,
				-0.5,
				-0.5,
				0.5
			],
			"scale":[
				0.9999999403953552,
				0.9999998807907104,
				0.9999999403953552
			],
			"translation":[
				-1.635291654727164e-15,
				0.051809098571538925,
				0.001470257411710918
			]
		},
		{
			"children":[
				12
			],
			"name":"CenterRoot_joint",
			"rotation":[
				-0.7071067690849304,
				0,
				0,
				0.7071067690849304
			],
			"scale":[
				0.9999999403953552,
				0.9999999403953552,
				0.9999999403953552
			],
			"translation":[
				-3.4575673148683726e-17,
				0.43131446838378906,
				0.5834428668022156
			]
		},
		{
			"children":[
				13
			],
			"name":"WorldRoot2_joint",
			"rotation":[
				3.5527141023169746e-15,
				0,
				0,
				1
			],
			"scale":[
				0.9999999403953552,
				0.9999999403953552,
				0.9999999403953552
			]
		},
		{
			"children":[
				3,
				14
			],
			"name":"WorldRoot1_joint",
			"rotation":[
				3.5527141023169746e-15,
				0,
				0,
				1
			],
			"scale":[
				0.9999999403953552,
				0.9999999403953552,
				0.9999999403953552
			]
		},
		{
			"children":[
				0,
				15
			],
			"name":"npc_iconic_rugAdamWest_mdl",
			"rotation":[
				3.5527141023169746e-15,
				0,
				0,
				1
			],
			"scale":[
				0.9999999403953552,
				0.9999999403953552,
				0.9999999403953552
			]
		},
		{
			"children":[
				16
			],
			"name":"npc_iconic_rugAdamWest_mdl (merge)",
			"rotation":[
				-0.7071067690849304,
				0,
				0,
				0.7071067690849304
			],
			"scale":[
				0.9999999403953552,
				0.9999999403953552,
				0.9999999403953552
			]
		},
		{
			"mesh":0,
			"name":"WorldRoot1_joint",
			"skin":0
		},
		{
			"children":[
				18,
				17
			],
			"name":"Armature",
			"rotation":[
				0.7071067690849304,
				0,
				0,
				0.7071068286895752
			],
			"scale":[
				0.9239999651908875,
				0.9239999651908875,
				0.9239999651908875
			]
		}
	],
	"materials":[
		{
			"doubleSided":true,
			"extensions":{
				"KHR_materials_specular":{
					"specularColorFactor":[
						0.4000000059604645,
						0.4000000059604645,
						0.4000000059604645
					]
				}
			},
			"name":"rugAdamWest_body_FGC_mat",
			"pbrMetallicRoughness":{
				"baseColorTexture":{
					"index":0
				},
				"metallicFactor":0
			}
		}
	],
	"meshes":[
		{
			"name":"WorldRoot1_joint.001",
			"primitives":[
				{
					"attributes":{
						"POSITION":0,
						"NORMAL":1,
						"TEXCOORD_0":2,
						"JOINTS_0":3,
						"WEIGHTS_0":4
					},
					"indices":5,
					"material":0
				}
			]
		}
	],
	"textures":[
		{
			"sampler":0,
			"source":0
		}
	],
	"images":[
		{
			"mimeType":"image/png",
			"name":"npc_iconic_rugAdamWest_col",
			"uri":"npc_iconic_rugAdamWest_col.png"
		}
	],
	"skins":[
		{
			"inverseBindMatrices":6,
			"joints":[
				17,
				16,
				0,
				15,
				3,
				2,
				1,
				14,
				13,
				12,
				7,
				6,
				5,
				4,
				11,
				10,
				9,
				8
			],
			"name":"Armature"
		}
	],
	"accessors":[
		{
			"bufferView":0,
			"componentType":5126,
			"count":1081,
			"max":[
				0.975520670413971,
				0.6513582468032837,
				1.2041841745376587
			],
			"min":[
				-0.9682871699333191,
				-8.148178665123851e-08,
				-1.1189326047897339
			],
			"type":"VEC3"
		},
		{
			"bufferView":1,
			"componentType":5126,
			"count":1081,
			"type":"VEC3"
		},
		{
			"bufferView":2,
			"componentType":5126,
			"count":1081,
			"type":"VEC2"
		},
		{
			"bufferView":3,
			"componentType":5121,
			"count":1081,
			"type":"VEC4"
		},
		{
			"bufferView":4,
			"componentType":5126,
			"count":1081,
			"type":"VEC4"
		},
		{
			"bufferView":5,
			"componentType":5123,
			"count":3078,
			"type":"SCALAR"
		},
		{
			"bufferView":6,
			"componentType":5126,
			"count":18,
			"type":"MAT4"
		}
	],
	"bufferViews":[
		{
			"buffer":0,
			"byteLength":12972,
			"byteOffset":0,
			"target":34962
		},
		{
			"buffer":0,
			"byteLength":12972,
			"byteOffset":12972,
			"target":34962
		},
		{
			"buffer":0,
			"byteLength":8648,
			"byteOffset":25944,
			"target":34962
		},
		{
			"buffer":0,
			"byteLength":4324,
			"byteOffset":34592,
			"target":34962
		},
		{
			"buffer":0,
			"byteLength":17296,
			"byteOffset":38916,
			"target":34962
		},
		{
			"buffer":0,
			"byteLength":6156,
			"byteOffset":56212,
			"target":34963
		},
		{
			"buffer":0,
			"byteLength":1152,
			"byteOffset":62368
		}
	],
	"samplers":[
		{
			"magFilter":9729,
			"minFilter":9987
		}
	],
	"buffers":[
		{
			"byteLength":63520,
			"uri":"Rug%20Adam%20West.bin"
		}
	]
}
