{
	"asset":{
		"generator":"Khronos glTF Blender I/O v5.0.21",
		"version":"2.0"
	},
	"extensionsUsed":[
		"KHR_materials_specular"
	],
	"scene":0,
	"scenes":[
		{
			"name":"Scene",
			"nodes":[
				39
			]
		}
	],
	"nodes":[
		{
			"name":"PupilsAnim_joint",
			"rotation":[
				3.552713678800501e-15,
				0,
				0,
				1
			],
			"translation":[
				0,
				0,
				0.10854047536849976
			]
		},
		{
			"children":[
				0
			],
			"name":"FacialAnim_joint",
			"rotation":[
				3.552713678800501e-15,
				0,
				0,
				1
			]
		},
		{
			"name":"LeftToe_joint",
			"rotation":[
				-0.014876177534461021,
				-0.005960693582892418,
				-0.3719148635864258,
				0.9281285405158997
			],
			"scale":[
				1.0000001192092896,
				1,
				0.9999998211860657
			],
			"translation":[
				0.1981159746646881,
				-1.5205296222120523e-07,
				5.263973434921354e-08
			]
		},
		{
			"children":[
				2
			],
			"name":"LeftAnkle_joint",
			"rotation":[
				0.02498512715101242,
				0.01134026050567627,
				-0.44087615609169006,
				0.8971484899520874
			],
			"scale":[
				1,
				0.9999999403953552,
				1
			],
			"translation":[
				0.2219998985528946,
				5.058245733380318e-08,
				1.6683770809322596e-08
			]
		},
		{
			"children":[
				3
			],
			"name":"LeftKnee_joint",
			"rotation":[
				-1.3001049126160069e-08,
				-6.991157164293327e-08,
				0.030856866389513016,
				0.9995238184928894
			],
			"scale":[
				1.000000238418579,
				1.0000001192092896,
				1.0000001192092896
			],
			"translation":[
				0.3074999153614044,
				4.2928149923682213e-10,
				1.2270629667909816e-07
			]
		},
		{
			"children":[
				4
			],
			"name":"LeftHip_joint",
			"rotation":[
				-0.9994826316833496,
				0.019050737842917442,
				0.025914302095770836,
				0.00018154273857362568
			],
			"scale":[
				1.0000004768371582,
				1,
				0.9999999403953552
			],
			"translation":[
				0.10500001162290573,
				-0.007000040262937546,
				-0.10600002110004425
			]
		},
		{
			"name":"RightToe_joint",
			"rotation":[
				0.0003362068673595786,
				0.00013471735292114317,
				-0.37195926904678345,
				0.9282490015029907
			],
			"scale":[
				0.9999999403953552,
				1,
				0.9999998211860657
			],
			"translation":[
				-0.19800007343292236,
				6.475602276623249e-09,
				4.6979039325378835e-08
			]
		},
		{
			"children":[
				6
			],
			"name":"RightAnkle_joint",
			"rotation":[
				0.01027703657746315,
				0.018566349521279335,
				-0.44064322113990784,
				0.897431492805481
			],
			"scale":[
				0.9999998807907104,
				1,
				0.9999998211860657
			],
			"translation":[
				-0.22200004756450653,
				-1.4260876923799515e-08,
				-4.1789462557062507e-08
			]
		},
		{
			"children":[
				7
			],
			"name":"RightKnee_joint",
			"rotation":[
				2.5968620320782065e-06,
				-8.416899072472006e-05,
				0.03086373396217823,
				0.9995236396789551
			],
			"scale":[
				1,
				1.0000001192092896,
				1.0000001192092896
			],
			"translation":[
				-0.30750003457069397,
				3.018067218363285e-08,
				-2.127853804267943e-08
			]
		},
		{
			"children":[
				8
			],
			"name":"RightHip_joint",
			"rotation":[
				0.019050978124141693,
				0.9994834661483765,
				-0.00017852320161182433,
				0.025881165638566017
			],
			"scale":[
				1,
				0.9999998211860657,
				1
			],
			"translation":[
				0.10500002652406693,
				-0.007000059355050325,
				0.10600000619888306
			]
		},
		{
			"children":[
				5,
				9
			],
			"name":"CenterHip_joint",
			"rotation":[
				0.4999999701976776,
				-0.5,
				-0.5,
				0.5
			],
			"scale":[
				0.9999999403953552,
				0.9999997615814209,
				0.9999999403953552
			],
			"translation":[
				-6.617444900424222e-24,
				-6.660318963014333e-10,
				2.7679902814270463e-10
			]
		},
		{
			"name":"Nose_joint",
			"rotation":[
				-0.49545708298683167,
				-0.50450199842453,
				-0.49545711278915405,
				0.5045020580291748
			],
			"scale":[
				1.0000001192092896,
				1.0000001192092896,
				1.0000001192092896
			],
			"translation":[
				0.1966131329536438,
				0.18681904673576355,
				8.587613287147633e-09
			]
		},
		{
			"children":[
				11
			],
			"name":"Head_joint",
			"rotation":[
				3.9521458328195536e-10,
				-1.684233134902069e-11,
				-0.00904493872076273,
				0.9999591112136841
			],
			"scale":[
				0.9999997615814209,
				0.9999998807907104,
				0.9999999403953552
			],
			"translation":[
				0.29561078548431396,
				-0.005366531666368246,
				1.2921572256630043e-08
			]
		},
		{
			"name":"LeftIndexFinger_joint",
			"rotation":[
				-1.0058283095304432e-07,
				1.434236764907837e-07,
				2.3096799850463867e-07,
				1
			],
			"scale":[
				1,
				1,
				1.0000001192092896
			],
			"translation":[
				0.13572239875793457,
				0.04991675913333893,
				0.0008652657270431519
			]
		},
		{
			"name":"LeftMidFinger_joint",
			"rotation":[
				-7.264316082000732e-08,
				1.5273688802608376e-07,
				1.6577541828155518e-07,
				1
			],
			"scale":[
				1,
				0.9999999403953552,
				1.0000001192092896
			],
			"translation":[
				0.13719463348388672,
				0.00339682400226593,
				-0.0014661438763141632
			]
		},
		{
			"name":"LeftPinkyFinger_joint",
			"rotation":[
				-7.636845111846924e-08,
				1.5459953317531472e-07,
				2.2910535335540771e-07,
				1
			],
			"scale":[
				1,
				1,
				1.0000001192092896
			],
			"translation":[
				0.13698101043701172,
				-0.045018211007118225,
				-0.0035625696182250977
			]
		},
		{
			"name":"LeftThumb_joint",
			"rotation":[
				0.08875507116317749,
				-0.14572003483772278,
				0.0300755612552166,
				0.9848775267601013
			],
			"scale":[
				1,
				0.9999999403953552,
				0.9999999403953552
			],
			"translation":[
				0.05937347561120987,
				0.10219235718250275,
				0.015469115227460861
			]
		},
		{
			"name":"LeftWeapon_joint",
			"rotation":[
				0.051495205610990524,
				0.7083881497383118,
				0.010654936544597149,
				0.7038614153862
			],
			"translation":[
				0.1121881976723671,
				-0.0003286600112915039,
				0.027975130826234818
			]
		},
		{
			"children":[
				13,
				14,
				15,
				16,
				17
			],
			"name":"LeftHand_joint",
			"rotation":[
				5.587935447692871e-09,
				-1.0896475259869476e-06,
				-8.381903882082042e-08,
				1
			],
			"scale":[
				0.9999999403953552,
				1,
				0.9999999403953552
			],
			"translation":[
				0.22649994492530823,
				-2.9802322387695312e-08,
				-1.1175870895385742e-07
			]
		},
		{
			"children":[
				18
			],
			"name":"LeftElbow_joint",
			"rotation":[
				0.7066829800605774,
				-0.024479636922478676,
				0.024479543790221214,
				0.7066828608512878
			],
			"scale":[
				1.0000001192092896,
				0.9999998807907104,
				0.9999999403953552
			],
			"translation":[
				0.2955000102519989,
				-5.029141902923584e-08,
				2.60770320892334e-08
			]
		},
		{
			"children":[
				19
			],
			"name":"LeftShoulder_joint",
			"rotation":[
				-0.007111090701073408,
				0.6492431163787842,
				0.653172492980957,
				0.3896133303642273
			],
			"scale":[
				0.9999999403953552,
				0.9999998211860657,
				1.0000001192092896
			],
			"translation":[
				-0.17399999499320984,
				-5.022685201083732e-08,
				-3.683353000383249e-08
			]
		},
		{
			"children":[
				20
			],
			"name":"LeftCollar_joint",
			"rotation":[
				0.006395686883479357,
				0.7070778608322144,
				-0.006395685486495495,
				0.7070778608322144
			],
			"scale":[
				0.9999998807907104,
				0.9999995827674866,
				0.9999997615814209
			],
			"translation":[
				0.15899991989135742,
				-0.033000003546476364,
				0.055000003427267075
			]
		},
		{
			"name":"RightIndexFinger_joint",
			"rotation":[
				-2.3841855067985307e-07,
				1.8067656526454812e-07,
				-8.568166975919667e-08,
				1
			],
			"scale":[
				1,
				1.0000001192092896,
				1.0000001192092896
			],
			"translation":[
				-0.13572242856025696,
				-0.04991673678159714,
				-0.0008653104305267334
			]
		},
		{
			"name":"RightMidFinger_joint",
			"rotation":[
				-2.514570951461792e-07,
				1.2293457984924316e-07,
				-4.6566128730773926e-08,
				1
			],
			"scale":[
				1,
				1,
				1.0000001192092896
			],
			"translation":[
				-0.1371946930885315,
				-0.0033968165516853333,
				0.0014661476016044617
			]
		},
		{
			"name":"RightPinkyFinger_joint",
			"rotation":[
				-4.284083843231201e-08,
				1.1175870007207322e-08,
				-4.0978193283081055e-08,
				1
			],
			"scale":[
				1,
				1,
				1.0000001192092896
			],
			"translation":[
				-0.13698111474514008,
				0.0450182780623436,
				0.003562469035387039
			]
		},
		{
			"name":"RightThumb_joint",
			"rotation":[
				0.08875499665737152,
				-0.14572012424468994,
				0.03007541596889496,
				0.9848775267601013
			],
			"scale":[
				1.0000001192092896,
				1.0000001192092896,
				1.000000238418579
			],
			"translation":[
				-0.05937357246875763,
				-0.10219237953424454,
				-0.015469137579202652
			]
		},
		{
			"name":"RightWeapon_joint",
			"rotation":[
				-0.7038680911064148,
				-0.010575070045888424,
				0.70838862657547,
				0.051415205001831055
			],
			"scale":[
				1.0000094175338745,
				0.9999999403953552,
				1.000020980834961
			],
			"translation":[
				-0.11218762397766113,
				0.0002643093466758728,
				-0.027978647500276566
			]
		},
		{
			"children":[
				22,
				23,
				24,
				25,
				26
			],
			"name":"RightHand_joint",
			"rotation":[
				1.7695131759865035e-07,
				-1.6484411844430724e-06,
				2.2351743567128324e-08,
				1
			],
			"scale":[
				1,
				0.9999998807907104,
				0.9999998211860657
			],
			"translation":[
				-0.22650007903575897,
				-1.4901161193847656e-08,
				-3.725290298461914e-08
			]
		},
		{
			"children":[
				27
			],
			"name":"RightElbow_joint",
			"rotation":[
				2.0874142592219869e-07,
				-1.2934514188600588e-06,
				0.034619756042957306,
				0.9994005560874939
			],
			"scale":[
				0.9999999403953552,
				0.9999999403953552,
				0.9999997615814209
			],
			"translation":[
				-0.2954999804496765,
				-2.2724270820617676e-07,
				-4.889443516731262e-06
			]
		},
		{
			"children":[
				28
			],
			"name":"RightShoulder_joint",
			"rotation":[
				0.27050140500068665,
				0.9209497570991516,
				0.002676190808415413,
				0.2804877460002899
			],
			"scale":[
				0.9999998807907104,
				0.9999998807907104,
				1.0000001192092896
			],
			"translation":[
				0.17400002479553223,
				-1.1768074514861837e-08,
				4.545795206922776e-08
			]
		},
		{
			"children":[
				29
			],
			"name":"RightCollar_joint",
			"rotation":[
				-0.7070779204368591,
				0.006395682692527771,
				0.7070778012275696,
				0.006395680829882622
			],
			"scale":[
				0.9999998807907104,
				0.9999995827674866,
				0.9999997615814209
			],
			"translation":[
				0.15899991989135742,
				-0.033000003546476364,
				-0.05499998852610588
			]
		},
		{
			"children":[
				12,
				21,
				30
			],
			"name":"SpineB_joint",
			"rotation":[
				3.308722450212111e-24,
				0,
				1.7763570511584873e-15,
				1
			],
			"scale":[
				0.9999999403953552,
				0.9999999403953552,
				0.9999999403953552
			],
			"translation":[
				0.20610761642456055,
				-2.9797313061408204e-08,
				9.009248458369257e-09
			]
		},
		{
			"children":[
				31
			],
			"name":"SpineA_joint",
			"rotation":[
				0.5,
				0.5,
				0.5,
				0.5
			],
			"scale":[
				1,
				0.9999999403953552,
				1
			],
			"translation":[
				6.617444900424222e-24,
				-6.660318963014333e-10,
				2.7679902814270463e-10
			]
		},
		{
			"children":[
				10,
				32
			],
			"name":"CenterRoot_joint",
			"rotation":[
				3.552713678800501e-15,
				0,
				0,
				1
			],
			"translation":[
				-4.149081373412088e-17,
				0.7684822082519531,
				0.008821917697787285
			]
		},
		{
			"children":[
				33
			],
			"name":"WorldRoot2_joint",
			"rotation":[
				3.552713678800501e-15,
				0,
				0,
				1
			]
		},
		{
			"children":[
				1,
				34
			],
			"name":"WorldRoot1_joint",
			"rotation":[
				3.552713678800501e-15,
				0,
				0,
				1
			]
		},
		{
			"children":[
				35
			],
			"name":"npc_custom_swampMonster_mdl",
			"rotation":[
				3.552713678800501e-15,
				0,
				0,
				1
			]
		},
		{
			"children":[
				36
			],
			"name":"npc_custom_swampMonster_mdl (merge)",
			"rotation":[
				-0.7071067690849304,
				0,
				0,
				0.7071067690849304
			]
		},
		{
			"mesh":0,
			"name":"npc_swampMonster_geo",
			"skin":0
		},
		{
			"children":[
				38,
				37
			],
			"name":"Armature",
			"rotation":[
				0.7071068286895752,
				0,
				0,
				0.7071068286895752
			],
			"scale":[
				1.3080101013183594,
				1.3080101013183594,
				1.3080101013183594
			]
		}
	],
	"materials":[
		{
			"doubleSided":true,
			"extensions":{
				"KHR_materials_specular":{
					"specularColorFactor":[
						0.4000000059604645,
						0.4000000059604645,
						0.4000000059604645
					]
				}
			},
			"name":"swampMonster_body_FGC_mat",
			"pbrMetallicRoughness":{
				"baseColorTexture":{
					"index":0
				},
				"metallicFactor":0
			}
		}
	],
	"meshes":[
		{
			"name":"npc_swampMonster_geo",
			"primitives":[
				{
					"attributes":{
						"POSITION":0,
						"NORMAL":1,
						"TEXCOORD_0":2,
						"JOINTS_0":3,
						"WEIGHTS_0":4
					},
					"indices":5,
					"material":0
				}
			]
		}
	],
	"textures":[
		{
			"sampler":0,
			"source":0
		}
	],
	"images":[
		{
			"mimeType":"image/png",
			"name":"npc_custom_swampMonster_col",
			"uri":"npc_custom_swampMonster_col.png"
		}
	],
	"skins":[
		{
			"inverseBindMatrices":6,
			"joints":[
				37,
				36,
				35,
				1,
				0,
				34,
				33,
				10,
				5,
				4,
				3,
				2,
				9,
				8,
				7,
				6,
				32,
				31,
				12,
				11,
				21,
				20,
				19,
				18,
				13,
				14,
				15,
				16,
				17,
				30,
				29,
				28,
				27,
				22,
				23,
				24,
				25,
				26
			],
			"name":"Armature"
		}
	],
	"accessors":[
		{
			"bufferView":0,
			"componentType":5126,
			"count":1813,
			"max":[
				0.9592863321304321,
				2.277679204940796,
				0.5312022566795349
			],
			"min":[
				-0.9592863321304321,
				-8.453676514363906e-08,
				-0.3903442323207855
			],
			"type":"VEC3"
		},
		{
			"bufferView":1,
			"componentType":5126,
			"count":1813,
			"type":"VEC3"
		},
		{
			"bufferView":2,
			"componentType":5126,
			"count":1813,
			"type":"VEC2"
		},
		{
			"bufferView":3,
			"componentType":5121,
			"count":1813,
			"type":"VEC4"
		},
		{
			"bufferView":4,
			"componentType":5126,
			"count":1813,
			"type":"VEC4"
		},
		{
			"bufferView":5,
			"componentType":5123,
			"count":6057,
			"type":"SCALAR"
		},
		{
			"bufferView":6,
			"componentType":5126,
			"count":38,
			"type":"MAT4"
		}
	],
	"bufferViews":[
		{
			"buffer":0,
			"byteLength":21756,
			"byteOffset":0,
			"target":34962
		},
		{
			"buffer":0,
			"byteLength":21756,
			"byteOffset":21756,
			"target":34962
		},
		{
			"buffer":0,
			"byteLength":14504,
			"byteOffset":43512,
			"target":34962
		},
		{
			"buffer":0,
			"byteLength":7252,
			"byteOffset":58016,
			"target":34962
		},
		{
			"buffer":0,
			"byteLength":29008,
			"byteOffset":65268,
			"target":34962
		},
		{
			"buffer":0,
			"byteLength":12114,
			"byteOffset":94276,
			"target":34963
		},
		{
			"buffer":0,
			"byteLength":2432,
			"byteOffset":106392
		}
	],
	"samplers":[
		{
			"magFilter":9729,
			"minFilter":9987
		}
	],
	"buffers":[
		{
			"byteLength":108824,
			"uri":"Swamp%20Monster.bin"
		}
	]
}
