{
	"asset":{
		"generator":"Khronos glTF Blender I/O v5.0.21",
		"version":"2.0"
	},
	"extensionsUsed":[
		"KHR_materials_specular"
	],
	"scene":0,
	"scenes":[
		{
			"name":"Scene",
			"nodes":[
				40
			]
		}
	],
	"nodes":[
		{
			"name":"PupilsAnim_joint",
			"rotation":[
				-3.552713678800501e-15,
				0,
				0,
				1
			],
			"translation":[
				0,
				8.881784197001252e-16,
				0.10854047536849976
			]
		},
		{
			"children":[
				0
			],
			"name":"FacialAnim_joint",
			"rotation":[
				-3.552713678800501e-15,
				0,
				0,
				1
			]
		},
		{
			"name":"LeftToe_joint",
			"rotation":[
				-0.014876579865813255,
				-0.005961480084806681,
				-0.3719147741794586,
				0.9281285405158997
			],
			"scale":[
				0.9999998807907104,
				0.9999998211860657,
				0.9999997615814209
			],
			"translation":[
				0.1981160193681717,
				-4.3568434193730354e-08,
				-9.364157449454069e-09
			]
		},
		{
			"children":[
				2
			],
			"name":"LeftAnkle_joint",
			"rotation":[
				0.01887587271630764,
				-0.016218647360801697,
				-0.45544588565826416,
				0.8899155855178833
			],
			"scale":[
				1.0000001192092896,
				1.000000238418579,
				1.000000238418579
			],
			"translation":[
				0.22200004756450653,
				1.0011717677116394e-08,
				-2.2351741790771484e-08
			]
		},
		{
			"children":[
				3
			],
			"name":"LeftKnee_joint",
			"rotation":[
				2.4225961681167973e-08,
				1.1213845141355705e-07,
				0.06045554205775261,
				0.9981709122657776
			],
			"scale":[
				1.0000001192092896,
				0.9999999403953552,
				0.9999999403953552
			],
			"translation":[
				0.30750009417533875,
				1.3271346688270569e-08,
				-9.465293260291219e-08
			]
		},
		{
			"children":[
				4
			],
			"name":"LeftHip_joint",
			"rotation":[
				-0.9998520612716675,
				0.006717566400766373,
				0.0025133329909294844,
				0.015636134892702103
			],
			"scale":[
				0.9999998211860657,
				0.9999999403953552,
				1.0000001192092896
			],
			"translation":[
				0.10499995201826096,
				-0.007000030018389225,
				-0.10600002110004425
			]
		},
		{
			"name":"RightToe_joint",
			"rotation":[
				0.0003362121933605522,
				0.00013470234989654273,
				-0.37195923924446106,
				0.9282490015029907
			],
			"scale":[
				0.9999998807907104,
				0.9999998807907104,
				0.9999998211860657
			],
			"translation":[
				-0.19800005853176117,
				-2.4563632905483246e-08,
				4.4845364755019546e-08
			]
		},
		{
			"children":[
				6
			],
			"name":"RightAnkle_joint",
			"rotation":[
				0.005195189267396927,
				-0.004843409173190594,
				-0.45519885420799255,
				0.890361487865448
			],
			"scale":[
				0.9999998807907104,
				0.9999999403953552,
				0.9999998807907104
			],
			"translation":[
				-0.22200003266334534,
				3.702007234096527e-08,
				2.246815711259842e-08
			]
		},
		{
			"children":[
				7
			],
			"name":"RightKnee_joint",
			"rotation":[
				4.61087347503053e-06,
				-7.738475687801838e-05,
				0.05934866517782211,
				0.9982373118400574
			],
			"scale":[
				1,
				1.000000238418579,
				0.9999999403953552
			],
			"translation":[
				-0.30750009417533875,
				2.468004822731018e-08,
				5.6927092373371124e-08
			]
		},
		{
			"children":[
				8
			],
			"name":"RightHip_joint",
			"rotation":[
				0.007220214232802391,
				0.999866247177124,
				-0.013454033061861992,
				0.00586076220497489
			],
			"scale":[
				0.9999999403953552,
				1.0000001192092896,
				1.0000001192092896
			],
			"translation":[
				0.10499996691942215,
				-0.007000058889389038,
				0.10600000619888306
			]
		},
		{
			"children":[
				5,
				9
			],
			"name":"CenterHip_joint",
			"rotation":[
				0.4999999701976776,
				-0.5,
				-0.5,
				0.5
			],
			"scale":[
				0.9999999403953552,
				0.9999997615814209,
				0.9999998807907104
			],
			"translation":[
				-9.926167350636332e-24,
				-6.660316742568284e-10,
				2.7678837000166823e-10
			]
		},
		{
			"name":"Jaw_joint",
			"rotation":[
				-9.841118889984896e-16,
				-3.520694152880921e-11,
				0,
				1
			],
			"translation":[
				0.03541596233844757,
				0.29617318511009216,
				1.5498113903333888e-09
			]
		},
		{
			"name":"Nose_joint",
			"rotation":[
				-0.49545708298683167,
				-0.50450199842453,
				-0.49545711278915405,
				0.5045018792152405
			],
			"scale":[
				1.0000001192092896,
				1.000000238418579,
				1.000000238418579
			],
			"translation":[
				0.19661305844783783,
				0.18681901693344116,
				8.603861623157627e-09
			]
		},
		{
			"children":[
				11,
				12
			],
			"name":"Head_joint",
			"rotation":[
				3.9558309405940406e-10,
				2.448186271764019e-11,
				-0.00904480554163456,
				0.9999591112136841
			],
			"scale":[
				0.9999998807907104,
				0.9999998211860657,
				1
			],
			"translation":[
				0.29561108350753784,
				-0.005366531200706959,
				1.2921575809343722e-08
			]
		},
		{
			"name":"LeftIndexFinger_joint",
			"rotation":[
				1.3038517820973539e-08,
				1.3038517820973539e-08,
				-1.1734665150697765e-07,
				1
			],
			"scale":[
				1,
				0.9999999403953552,
				0.9999999403953552
			],
			"translation":[
				0.13572238385677338,
				0.049916647374629974,
				0.0008653588593006134
			]
		},
		{
			"name":"LeftMidFinger_joint",
			"rotation":[
				2.2351741790771484e-08,
				1.6763806343078613e-08,
				-1.210719347000122e-07,
				1
			],
			"scale":[
				1,
				0.9999999403953552,
				1
			],
			"translation":[
				0.13768886029720306,
				0.0033163055777549744,
				-0.0010888166725635529
			]
		},
		{
			"name":"LeftPinkyFinger_joint",
			"rotation":[
				-3.725290298461914e-09,
				1.862645149230957e-09,
				-7.078051567077637e-08,
				1
			],
			"scale":[
				1,
				0.9999999403953552,
				1
			],
			"translation":[
				0.13698114454746246,
				-0.04501839727163315,
				-0.0035623572766780853
			]
		},
		{
			"name":"LeftThumb_joint",
			"rotation":[
				0.08875502645969391,
				-0.14572016894817352,
				0.030075356364250183,
				0.9848775267601013
			],
			"translation":[
				0.05937361717224121,
				0.10219224542379379,
				0.015469204634428024
			]
		},
		{
			"name":"LeftWeapon_joint",
			"rotation":[
				0.051495205610990524,
				0.708388090133667,
				0.01065481174737215,
				0.7038614749908447
			],
			"translation":[
				0.11218826472759247,
				-0.00032880157232284546,
				0.027975205332040787
			]
		},
		{
			"children":[
				14,
				15,
				16,
				17,
				18
			],
			"name":"LeftHand_joint",
			"rotation":[
				2.1792946824916726e-07,
				-1.0225920732409577e-06,
				1.3133510037732776e-05,
				1
			],
			"scale":[
				1.0000001192092896,
				1,
				1.0000001192092896
			],
			"translation":[
				0.22649995982646942,
				1.043081283569336e-07,
				-5.21540641784668e-08
			]
		},
		{
			"children":[
				19
			],
			"name":"LeftElbow_joint",
			"rotation":[
				0.7066834568977356,
				-0.024463485926389694,
				0.02446351759135723,
				0.7066835165023804
			],
			"scale":[
				1,
				0.9999998807907104,
				1.0000001192092896
			],
			"translation":[
				0.2954999804496765,
				1.862645149230957e-08,
				1.2665987014770508e-07
			]
		},
		{
			"children":[
				20
			],
			"name":"LeftShoulder_joint",
			"rotation":[
				-0.007104614749550819,
				0.6492392420768738,
				0.6531726121902466,
				0.38961976766586304
			],
			"scale":[
				1,
				0.9999998807907104,
				1
			],
			"translation":[
				-0.17399999499320984,
				-4.5803190573678876e-08,
				-3.7247652073801873e-08
			]
		},
		{
			"children":[
				21
			],
			"name":"LeftCollar_joint",
			"rotation":[
				0.006395682226866484,
				0.7070778608322144,
				-0.006395679898560047,
				0.7070778608322144
			],
			"scale":[
				0.9999999403953552,
				0.9999995827674866,
				0.9999998211860657
			],
			"translation":[
				0.1589999794960022,
				-0.033000003546476364,
				0.05500000715255737
			]
		},
		{
			"name":"RightIndexFinger_joint",
			"rotation":[
				-1.1175870895385742e-08,
				-2.0489096641540527e-08,
				-1.0058283805847168e-07,
				1
			],
			"translation":[
				-0.13572239875793457,
				-0.049916766583919525,
				-0.0008653700351715088
			]
		},
		{
			"name":"RightMidFinger_joint",
			"rotation":[
				-2.7939677238464355e-08,
				-2.0489096641540527e-08,
				7.450580596923828e-09,
				1
			],
			"translation":[
				-0.13719484210014343,
				-0.0033967122435569763,
				0.0014659129083156586
			]
		},
		{
			"name":"RightPinkyFinger_joint",
			"rotation":[
				7.078051567077637e-08,
				-1.1920928955078125e-07,
				0,
				1
			],
			"translation":[
				-0.13698112964630127,
				0.04501824826002121,
				0.0035624317824840546
			]
		},
		{
			"name":"RightThumb_joint",
			"rotation":[
				0.08875499665737152,
				-0.14572012424468994,
				0.03007541224360466,
				0.9848774671554565
			],
			"scale":[
				0.9999998211860657,
				1.0000001192092896,
				1
			],
			"translation":[
				-0.059373579919338226,
				-0.10219237953424454,
				-0.015469200909137726
			]
		},
		{
			"name":"RightWeapon_joint",
			"rotation":[
				-0.7038680911064148,
				-0.010575107298791409,
				0.70838862657547,
				0.05141531676054001
			],
			"scale":[
				1.0000091791152954,
				1,
				1.0000208616256714
			],
			"translation":[
				-0.1121876910328865,
				0.00026432424783706665,
				-0.027978666126728058
			]
		},
		{
			"children":[
				23,
				24,
				25,
				26,
				27
			],
			"name":"RightHand_joint",
			"rotation":[
				-8.482486009597778e-06,
				-1.3131649438946624e-06,
				1.3887882232666016e-05,
				1
			],
			"scale":[
				0.9999999403953552,
				1.0000001192092896,
				0.9999999403953552
			],
			"translation":[
				-0.22649997472763062,
				-1.4901161193847656e-08,
				3.725290298461914e-08
			]
		},
		{
			"children":[
				28
			],
			"name":"RightElbow_joint",
			"rotation":[
				2.1806005179314525e-07,
				-1.1965345265707583e-06,
				0.034595564007759094,
				0.9994013905525208
			],
			"scale":[
				0.9999999403953552,
				0.9999997615814209,
				1
			],
			"translation":[
				-0.29550009965896606,
				-2.2351741790771484e-07,
				-5.070120096206665e-06
			]
		},
		{
			"children":[
				29
			],
			"name":"RightShoulder_joint",
			"rotation":[
				0.27051350474357605,
				0.9209470152854919,
				0.0026713323313742876,
				0.2804851830005646
			],
			"scale":[
				1.0000001192092896,
				1,
				0.9999999403953552
			],
			"translation":[
				0.17400003969669342,
				-1.549336481332375e-08,
				4.554526356059796e-08
			]
		},
		{
			"children":[
				30
			],
			"name":"RightCollar_joint",
			"rotation":[
				-0.7070779204368591,
				0.006395682692527771,
				0.7070778012275696,
				0.0063956803642213345
			],
			"scale":[
				0.9999998807907104,
				0.9999995827674866,
				0.9999998211860657
			],
			"translation":[
				0.1589999794960022,
				-0.033000003546476364,
				-0.05499999225139618
			]
		},
		{
			"children":[
				13,
				22,
				31
			],
			"name":"SpineB_joint",
			"rotation":[
				1.0587913102856203e-22,
				0,
				-3.552713678800501e-15,
				1
			],
			"scale":[
				1,
				0.9999999403953552,
				1
			],
			"translation":[
				0.20610761642456055,
				-2.979732016683556e-08,
				9.009248458369257e-09
			]
		},
		{
			"children":[
				32
			],
			"name":"SpineA_joint",
			"rotation":[
				0.5,
				0.5,
				0.5,
				0.5
			],
			"scale":[
				1,
				0.9999999403953552,
				1
			],
			"translation":[
				-3.308722450212111e-24,
				-6.660316742568284e-10,
				2.7678837000166823e-10
			]
		},
		{
			"children":[
				10,
				33
			],
			"name":"CenterRoot_joint",
			"rotation":[
				-3.552713678800501e-15,
				0,
				0,
				1
			],
			"translation":[
				-4.149081042539843e-17,
				0.7684822082519531,
				0.00882191676646471
			]
		},
		{
			"children":[
				34
			],
			"name":"WorldRoot2_joint",
			"rotation":[
				-3.552713678800501e-15,
				0,
				0,
				1
			]
		},
		{
			"children":[
				1,
				35
			],
			"name":"WorldRoot1_joint",
			"rotation":[
				-3.552713678800501e-15,
				0,
				0,
				1
			]
		},
		{
			"children":[
				36
			],
			"name":"npc_custom_jamesWilliamsBottomtooth_mdl",
			"rotation":[
				-3.552713678800501e-15,
				0,
				0,
				1
			]
		},
		{
			"children":[
				37
			],
			"name":"npc_custom_jamesWilliamsBottomtooth_mdl (merge)",
			"rotation":[
				-0.7071067690849304,
				0,
				0,
				0.7071067690849304
			]
		},
		{
			"mesh":0,
			"name":"jamesWilliamsBottomtooth_geo",
			"skin":0
		},
		{
			"children":[
				39,
				38
			],
			"name":"Armature",
			"rotation":[
				0.7071068286895752,
				0,
				0,
				0.7071068286895752
			],
			"scale":[
				1.9838001728057861,
				1.9838001728057861,
				1.9838001728057861
			]
		}
	],
	"materials":[
		{
			"doubleSided":true,
			"extensions":{
				"KHR_materials_specular":{
					"specularColorFactor":[
						0.4000000059604645,
						0.4000000059604645,
						0.4000000059604645
					]
				}
			},
			"name":"jamesWilliamsBottomtooth_body_FGC_mat",
			"pbrMetallicRoughness":{
				"baseColorTexture":{
					"index":0
				},
				"metallicFactor":0
			}
		},
		{
			"doubleSided":true,
			"extensions":{
				"KHR_materials_specular":{
					"specularColorFactor":[
						0.4000000059604645,
						0.4000000059604645,
						0.4000000059604645
					]
				}
			},
			"name":"jamesWilliamsBottomtooth_leftPupil_FGCE_mat",
			"pbrMetallicRoughness":{
				"baseColorTexture":{
					"index":1
				},
				"metallicFactor":0
			}
		},
		{
			"doubleSided":true,
			"extensions":{
				"KHR_materials_specular":{
					"specularColorFactor":[
						0.4000000059604645,
						0.4000000059604645,
						0.4000000059604645
					]
				}
			},
			"name":"jamesWilliamsBottomtooth_rightPupil_FGCE_mat",
			"pbrMetallicRoughness":{
				"baseColorTexture":{
					"index":2
				},
				"metallicFactor":0
			}
		},
		{
			"alphaMode":"BLEND",
			"doubleSided":true,
			"extensions":{
				"KHR_materials_specular":{
					"specularColorFactor":[
						0.4000000059604645,
						0.4000000059604645,
						0.4000000059604645
					]
				}
			},
			"name":"jamesWilliamsBottomtooth_brows_FGFG_mat",
			"pbrMetallicRoughness":{
				"baseColorTexture":{
					"index":3
				},
				"metallicFactor":0,
				"roughnessFactor":0.5527864098548889
			}
		}
	],
	"meshes":[
		{
			"name":"jamesWilliamsBottomtooth_geo",
			"primitives":[
				{
					"attributes":{
						"POSITION":0,
						"NORMAL":1,
						"TEXCOORD_0":2,
						"JOINTS_0":3,
						"WEIGHTS_0":4
					},
					"indices":5,
					"material":0
				},
				{
					"attributes":{
						"POSITION":6,
						"NORMAL":7,
						"TEXCOORD_0":8,
						"JOINTS_0":9,
						"WEIGHTS_0":10
					},
					"indices":11,
					"material":1
				},
				{
					"attributes":{
						"POSITION":12,
						"NORMAL":13,
						"TEXCOORD_0":14,
						"JOINTS_0":15,
						"WEIGHTS_0":16
					},
					"indices":17,
					"material":2
				},
				{
					"attributes":{
						"POSITION":18,
						"NORMAL":19,
						"TEXCOORD_0":20,
						"JOINTS_0":21,
						"WEIGHTS_0":22
					},
					"indices":23,
					"material":3
				}
			]
		}
	],
	"textures":[
		{
			"sampler":0,
			"source":0
		},
		{
			"sampler":0,
			"source":1
		},
		{
			"sampler":0,
			"source":1
		},
		{
			"sampler":0,
			"source":2
		}
	],
	"images":[
		{
			"mimeType":"image/png",
			"name":"npc_custom_jamesWilliamsBottomtooth_col",
			"uri":"npc_custom_jamesWilliamsBottomtooth_col.png"
		},
		{
			"mimeType":"image/png",
			"name":"npc_shared_pupil_col_Edited",
			"uri":"npc_shared_pupil_col_Edited.png"
		},
		{
			"mimeType":"image/png",
			"name":"npc_shared_browsJamesWilliamsBottomtooth_col",
			"uri":"npc_shared_browsJamesWilliamsBottomtooth_col.png"
		}
	],
	"skins":[
		{
			"inverseBindMatrices":24,
			"joints":[
				38,
				37,
				36,
				1,
				0,
				35,
				34,
				10,
				5,
				4,
				3,
				2,
				9,
				8,
				7,
				6,
				33,
				32,
				13,
				11,
				12,
				22,
				21,
				20,
				19,
				14,
				15,
				16,
				17,
				18,
				31,
				30,
				29,
				28,
				23,
				24,
				25,
				26,
				27
			],
			"name":"Armature"
		}
	],
	"accessors":[
		{
			"bufferView":0,
			"componentType":5126,
			"count":1780,
			"max":[
				1.4123774766921997,
				3.727419376373291,
				1.621166467666626
			],
			"min":[
				-1.4123774766921997,
				-0.010436776094138622,
				-0.4867803156375885
			],
			"type":"VEC3"
		},
		{
			"bufferView":1,
			"componentType":5126,
			"count":1780,
			"type":"VEC3"
		},
		{
			"bufferView":2,
			"componentType":5126,
			"count":1780,
			"type":"VEC2"
		},
		{
			"bufferView":3,
			"componentType":5121,
			"count":1780,
			"type":"VEC4"
		},
		{
			"bufferView":4,
			"componentType":5126,
			"count":1780,
			"type":"VEC4"
		},
		{
			"bufferView":5,
			"componentType":5123,
			"count":7671,
			"type":"SCALAR"
		},
		{
			"bufferView":6,
			"componentType":5126,
			"count":21,
			"max":[
				0.25916165113449097,
				3.523599624633789,
				0.2014853060245514
			],
			"min":[
				0.060788996517658234,
				3.3221209049224854,
				0.12380875647068024
			],
			"type":"VEC3"
		},
		{
			"bufferView":7,
			"componentType":5126,
			"count":21,
			"type":"VEC3"
		},
		{
			"bufferView":8,
			"componentType":5126,
			"count":21,
			"type":"VEC2"
		},
		{
			"bufferView":9,
			"componentType":5121,
			"count":21,
			"type":"VEC4"
		},
		{
			"bufferView":10,
			"componentType":5126,
			"count":21,
			"type":"VEC4"
		},
		{
			"bufferView":11,
			"componentType":5123,
			"count":60,
			"type":"SCALAR"
		},
		{
			"bufferView":12,
			"componentType":5126,
			"count":21,
			"max":[
				-0.060788996517658234,
				3.523599624633789,
				0.2014853060245514
			],
			"min":[
				-0.25916165113449097,
				3.3221209049224854,
				0.12380875647068024
			],
			"type":"VEC3"
		},
		{
			"bufferView":13,
			"componentType":5126,
			"count":21,
			"type":"VEC3"
		},
		{
			"bufferView":14,
			"componentType":5126,
			"count":21,
			"type":"VEC2"
		},
		{
			"bufferView":15,
			"componentType":5121,
			"count":21,
			"type":"VEC4"
		},
		{
			"bufferView":16,
			"componentType":5126,
			"count":21,
			"type":"VEC4"
		},
		{
			"bufferView":17,
			"componentType":5123,
			"count":60,
			"type":"SCALAR"
		},
		{
			"bufferView":18,
			"componentType":5126,
			"count":12,
			"max":[
				0.3672497570514679,
				3.6659584045410156,
				0.17740964889526367
			],
			"min":[
				-0.3672497570514679,
				3.4431357383728027,
				0.05031152814626694
			],
			"type":"VEC3"
		},
		{
			"bufferView":19,
			"componentType":5126,
			"count":12,
			"type":"VEC3"
		},
		{
			"bufferView":20,
			"componentType":5126,
			"count":12,
			"type":"VEC2"
		},
		{
			"bufferView":21,
			"componentType":5121,
			"count":12,
			"type":"VEC4"
		},
		{
			"bufferView":22,
			"componentType":5126,
			"count":12,
			"type":"VEC4"
		},
		{
			"bufferView":23,
			"componentType":5123,
			"count":24,
			"type":"SCALAR"
		},
		{
			"bufferView":24,
			"componentType":5126,
			"count":39,
			"type":"MAT4"
		}
	],
	"bufferViews":[
		{
			"buffer":0,
			"byteLength":21360,
			"byteOffset":0,
			"target":34962
		},
		{
			"buffer":0,
			"byteLength":21360,
			"byteOffset":21360,
			"target":34962
		},
		{
			"buffer":0,
			"byteLength":14240,
			"byteOffset":42720,
			"target":34962
		},
		{
			"buffer":0,
			"byteLength":7120,
			"byteOffset":56960,
			"target":34962
		},
		{
			"buffer":0,
			"byteLength":28480,
			"byteOffset":64080,
			"target":34962
		},
		{
			"buffer":0,
			"byteLength":15342,
			"byteOffset":92560,
			"target":34963
		},
		{
			"buffer":0,
			"byteLength":252,
			"byteOffset":107904,
			"target":34962
		},
		{
			"buffer":0,
			"byteLength":252,
			"byteOffset":108156,
			"target":34962
		},
		{
			"buffer":0,
			"byteLength":168,
			"byteOffset":108408,
			"target":34962
		},
		{
			"buffer":0,
			"byteLength":84,
			"byteOffset":108576,
			"target":34962
		},
		{
			"buffer":0,
			"byteLength":336,
			"byteOffset":108660,
			"target":34962
		},
		{
			"buffer":0,
			"byteLength":120,
			"byteOffset":108996,
			"target":34963
		},
		{
			"buffer":0,
			"byteLength":252,
			"byteOffset":109116,
			"target":34962
		},
		{
			"buffer":0,
			"byteLength":252,
			"byteOffset":109368,
			"target":34962
		},
		{
			"buffer":0,
			"byteLength":168,
			"byteOffset":109620,
			"target":34962
		},
		{
			"buffer":0,
			"byteLength":84,
			"byteOffset":109788,
			"target":34962
		},
		{
			"buffer":0,
			"byteLength":336,
			"byteOffset":109872,
			"target":34962
		},
		{
			"buffer":0,
			"byteLength":120,
			"byteOffset":110208,
			"target":34963
		},
		{
			"buffer":0,
			"byteLength":144,
			"byteOffset":110328,
			"target":34962
		},
		{
			"buffer":0,
			"byteLength":144,
			"byteOffset":110472,
			"target":34962
		},
		{
			"buffer":0,
			"byteLength":96,
			"byteOffset":110616,
			"target":34962
		},
		{
			"buffer":0,
			"byteLength":48,
			"byteOffset":110712,
			"target":34962
		},
		{
			"buffer":0,
			"byteLength":192,
			"byteOffset":110760,
			"target":34962
		},
		{
			"buffer":0,
			"byteLength":48,
			"byteOffset":110952,
			"target":34963
		},
		{
			"buffer":0,
			"byteLength":2496,
			"byteOffset":111000
		}
	],
	"samplers":[
		{
			"magFilter":9729,
			"minFilter":9987
		}
	],
	"buffers":[
		{
			"byteLength":113496,
			"uri":"James%20Williams%20Bottomtooth.bin"
		}
	]
}
