{
	"asset":{
		"generator":"Khronos glTF Blender I/O v5.0.21",
		"version":"2.0"
	},
	"extensionsUsed":[
		"KHR_materials_specular"
	],
	"scene":0,
	"scenes":[
		{
			"name":"Scene",
			"nodes":[
				39
			]
		}
	],
	"nodes":[
		{
			"name":"PupilsAnim_joint",
			"rotation":[
				0.7071067690849304,
				-4.595617290869854e-17,
				-0.7071067690849304,
				2.4734881425174707e-16
			],
			"scale":[
				-1.5999999936067155e-11,
				-1.1337256654309069e-11,
				-1
			],
			"translation":[
				0,
				0.9140625,
				-0.8914594650268555
			]
		},
		{
			"children":[
				0
			],
			"name":"FacialAnim_joint",
			"scale":[
				4.999999980020986e-13,
				1.0000001044244144e-12,
				1
			],
			"translation":[
				0.000224513525608927,
				-1.1920930376163597e-07,
				0
			]
		},
		{
			"name":"LeftAnkle_joint",
			"rotation":[
				0.06697732955217361,
				-0.060769468545913696,
				0.26409682631492615,
				0.9602468609809875
			],
			"scale":[
				0.9999997019767761,
				0.9999998211860657,
				0.9999998211860657
			],
			"translation":[
				0.3810279071331024,
				1.1175870895385742e-07,
				-5.774199962615967e-08
			]
		},
		{
			"children":[
				2
			],
			"name":"LeftKnee_joint",
			"rotation":[
				-8.394287647206511e-07,
				2.5536508019285975e-06,
				0.3181403577327728,
				0.9480436444282532
			],
			"scale":[
				1.000000238418579,
				1,
				1
			],
			"translation":[
				0.3433227241039276,
				6.332993507385254e-08,
				-5.960464477539063e-08
			]
		},
		{
			"children":[
				3
			],
			"name":"LeftThigh_joint",
			"rotation":[
				0.10104049742221832,
				-0.069290392100811,
				-0.2563779354095459,
				0.9587804675102234
			],
			"scale":[
				1,
				1.0000001192092896,
				1.0000001192092896
			],
			"translation":[
				0.37432965636253357,
				2.9802322387695312e-08,
				7.450580596923828e-08
			]
		},
		{
			"children":[
				4
			],
			"name":"LeftHip_joint",
			"rotation":[
				-0.1882074624300003,
				-0.029736092314124107,
				0.7315196394920349,
				0.6546546816825867
			],
			"scale":[
				0.9999997615814209,
				0.9999999403953552,
				0.9999999403953552
			],
			"translation":[
				0.10318563133478165,
				0.027917098253965378,
				-0.2199999839067459
			]
		},
		{
			"name":"RightAnkle_joint",
			"rotation":[
				0.04436816647648811,
				0.038147471845149994,
				-0.961986780166626,
				0.26675379276275635
			],
			"scale":[
				1.000000238418579,
				0.9999998211860657,
				1.0000001192092896
			],
			"translation":[
				-0.3809930682182312,
				-1.1920928955078125e-07,
				-9.313225746154785e-08
			]
		},
		{
			"children":[
				6
			],
			"name":"RightKnee_joint",
			"rotation":[
				1.4263532648328692e-06,
				2.832196514646057e-06,
				0.3185526132583618,
				0.9479051828384399
			],
			"scale":[
				1,
				0.9999998807907104,
				1
			],
			"translation":[
				-0.34348419308662415,
				-7.450580596923828e-08,
				-7.450580596923828e-08
			]
		},
		{
			"children":[
				7
			],
			"name":"RightThigh_joint",
			"rotation":[
				0.10104432702064514,
				-0.06938589364290237,
				-0.2567044496536255,
				0.9586858153343201
			],
			"scale":[
				0.9999998807907104,
				1.0000001192092896,
				0.9999997615814209
			],
			"translation":[
				-0.3743758797645569,
				-3.725290298461914e-08,
				-1.4901161193847656e-08
			]
		},
		{
			"children":[
				8
			],
			"name":"RightHip_joint",
			"rotation":[
				-0.01666218414902687,
				0.17370425164699554,
				-0.6566259264945984,
				0.7337517738342285
			],
			"scale":[
				0.9999998807907104,
				0.9999998807907104,
				1
			],
			"translation":[
				0.10318561643362045,
				0.02791733667254448,
				0.2199999839067459
			]
		},
		{
			"name":"LeftWrist_joint",
			"rotation":[
				0.01954694651067257,
				-0.016442090272903442,
				-0.40632322430610657,
				0.9133723378181458
			],
			"scale":[
				1,
				1.000000238418579,
				1
			],
			"translation":[
				0.2360151708126068,
				-6.891787052154541e-08,
				-2.9889633879065514e-08
			]
		},
		{
			"children":[
				10
			],
			"name":"LeftElbow_joint",
			"rotation":[
				-7.63844400353264e-06,
				0.00010613569611450657,
				0.07199578732252121,
				0.9974049925804138
			],
			"scale":[
				0.9999999403953552,
				1,
				1
			],
			"translation":[
				0.3840208053588867,
				1.0058283805847168e-07,
				-3.7136487662792206e-08
			]
		},
		{
			"children":[
				11
			],
			"name":"LeftShoulder_joint",
			"rotation":[
				-0.6638957858085632,
				-0.7476458549499512,
				0.011883639730513096,
				0.011263584718108177
			],
			"scale":[
				0.9999998807907104,
				0.9999994039535522,
				1
			],
			"translation":[
				0.06465229392051697,
				0.35751423239707947,
				-0.29999998211860657
			]
		},
		{
			"name":"RightWrist_joint",
			"rotation":[
				0.004541005007922649,
				-0.009716654196381569,
				-0.4065566956996918,
				0.9135625958442688
			],
			"scale":[
				0.9999999403953552,
				1.0000001192092896,
				1.0000001192092896
			],
			"translation":[
				-0.23601549863815308,
				8.335337042808533e-08,
				-1.9586877897381783e-08
			]
		},
		{
			"children":[
				13
			],
			"name":"RightElbow_joint",
			"rotation":[
				6.1407558860082645e-06,
				-8.468652958981693e-05,
				0.07201618701219559,
				0.9974034428596497
			],
			"scale":[
				1,
				1.000000238418579,
				0.9999998807907104
			],
			"translation":[
				-0.38402074575424194,
				-1.6205012798309326e-07,
				4.959292709827423e-08
			]
		},
		{
			"children":[
				14
			],
			"name":"RightShoulder_joint",
			"rotation":[
				-0.7476484179496765,
				0.6638928651809692,
				-0.011315662413835526,
				0.01183477882295847
			],
			"scale":[
				0.9999998807907104,
				0.9999998211860657,
				1
			],
			"translation":[
				0.06465226411819458,
				0.35751423239707947,
				0.29999998211860657
			]
		},
		{
			"children":[
				12,
				15
			],
			"name":"Chest_joint",
			"rotation":[
				-1.1155357887426831e-10,
				1.3052742220409641e-09,
				0.9995603561401367,
				0.029648737981915474
			],
			"scale":[
				1.0000030994415283,
				0.9999998211860657,
				0.9999998807907104
			],
			"translation":[
				0.23124809563159943,
				0.0032365545630455017,
				-8.587654143354939e-09
			]
		},
		{
			"name":"Jaw_joint",
			"rotation":[
				0.7372772693634033,
				0.6755902767181396,
				-7.601874685292387e-09,
				5.100565658722189e-08
			],
			"scale":[
				0.9999998807907104,
				0.9999998211860657,
				0.9999999403953552
			],
			"translation":[
				0.13280576467514038,
				0.4895293712615967,
				8.657230488040568e-09
			]
		},
		{
			"name":"LeftEar_joint",
			"rotation":[
				-0.7893842458724976,
				0.3972603380680084,
				-0.4680345058441162,
				0.0006421652506105602
			],
			"scale":[
				0.9999996423721313,
				0.9999997019767761,
				0.9999996423721313
			],
			"translation":[
				0.2695859372615814,
				0.026245757937431335,
				0.23000000417232513
			]
		},
		{
			"name":"Nose_joint",
			"rotation":[
				-3.4300503907856326e-16,
				5.773160151567288e-15,
				-8.881784197001252e-16,
				1
			],
			"scale":[
				0.9999999403953552,
				1,
				0.9999999403953552
			],
			"translation":[
				0.19661295413970947,
				0.18681906163692474,
				1.2816626870915115e-08
			]
		},
		{
			"name":"RightEar_joint",
			"rotation":[
				-0.364296019077301,
				-0.7562518119812012,
				0.1832103729248047,
				0.5116694569587708
			],
			"scale":[
				1.0000001192092896,
				0.9999998211860657,
				0.9999998211860657
			],
			"translation":[
				0.26958462595939636,
				0.026246950030326843,
				-0.22999995946884155
			]
		},
		{
			"children":[
				17,
				18,
				19,
				20
			],
			"name":"Head_joint",
			"rotation":[
				1.1938064758965083e-08,
				-2.0597480665518475e-10,
				-0.1825486123561859,
				0.9831968545913696
			],
			"scale":[
				1.000000238418579,
				1,
				1
			],
			"translation":[
				0.22000008821487427,
				-0.005366683006286621,
				1.44333576201916e-08
			]
		},
		{
			"children":[
				21
			],
			"name":"NeckB_joint",
			"rotation":[
				3.766499556689951e-09,
				-2.072316362955462e-08,
				-0.04361942037940025,
				0.9990482330322266
			],
			"scale":[
				0.9999998211860657,
				1,
				0.9999999403953552
			],
			"translation":[
				0.3347891569137573,
				-8.940696716308594e-08,
				3.585322261301371e-08
			]
		},
		{
			"children":[
				22
			],
			"name":"NeckA_joint",
			"rotation":[
				-0.9622132182121277,
				-0.27229705452919006,
				-3.039999185716624e-08,
				2.0557942903565163e-08
			],
			"scale":[
				0.9999996423721313,
				0.9999997615814209,
				0.9999998807907104
			],
			"translation":[
				0.22039535641670227,
				0.008057933300733566,
				-9.676313972306616e-09
			]
		},
		{
			"children":[
				16,
				23
			],
			"name":"SpineD_joint",
			"rotation":[
				1.4994943065005373e-09,
				-9.244040255484975e-11,
				0.03422582149505615,
				0.9994141459465027
			],
			"scale":[
				1,
				1.0000001192092896,
				0.9999999403953552
			],
			"translation":[
				0.320444256067276,
				-2.8172507882118225e-08,
				-1.4009619242472127e-08
			]
		},
		{
			"children":[
				24
			],
			"name":"SpineC_joint",
			"rotation":[
				2.1116353110528507e-09,
				2.961519640631849e-10,
				0.04797438532114029,
				0.998848557472229
			],
			"scale":[
				0.9999998807907104,
				0.9999998807907104,
				1
			],
			"translation":[
				0.2901036739349365,
				7.35744833946228e-08,
				-1.28551782552222e-08
			]
		},
		{
			"children":[
				25
			],
			"name":"SpineB_joint",
			"rotation":[
				1.6435467431463735e-09,
				-6.620647363675403e-10,
				0.037653010338544846,
				0.9992908835411072
			],
			"scale":[
				1,
				0.9999998211860657,
				1
			],
			"translation":[
				0.29853391647338867,
				8.940696716308594e-08,
				-1.2833163864911512e-08
			]
		},
		{
			"children":[
				26
			],
			"name":"SpineA_joint",
			"rotation":[
				-3.6056632679581924e-10,
				-3.9062832968284056e-09,
				0.9959316849708557,
				0.09011173993349075
			],
			"scale":[
				0.9999999403953552,
				1.0000001192092896,
				1
			],
			"translation":[
				-0.0018685184186324477,
				0.004737336188554764,
				-8.16754372467976e-11
			]
		},
		{
			"name":"TailD_joint",
			"rotation":[
				-2.9865367956460886e-09,
				-8.894165404171872e-10,
				0.06975654512643814,
				0.9975640177726746
			],
			"scale":[
				0.9999998807907104,
				1.000000238418579,
				1.0000001192092896
			],
			"translation":[
				0.4027984142303467,
				0.02879665419459343,
				1.7604451230113227e-08
			]
		},
		{
			"children":[
				28
			],
			"name":"TailC_joint",
			"rotation":[
				9.638218001484233e-10,
				-1.981742200896086e-11,
				-0.022042766213417053,
				0.9997570514678955
			],
			"scale":[
				0.9999998807907104,
				0.9999998807907104,
				1
			],
			"translation":[
				0.38361385464668274,
				-0.02412610873579979,
				1.6781187994752145e-08
			]
		},
		{
			"children":[
				29
			],
			"name":"TailB_joint",
			"rotation":[
				5.484013954060174e-08,
				-3.40326842263039e-08,
				-0.6271774768829346,
				0.7788764238357544
			],
			"scale":[
				1,
				1,
				0.9999999403953552
			],
			"translation":[
				0.11959598958492279,
				5.960464477539063e-08,
				1.568310636912429e-08
			]
		},
		{
			"children":[
				30
			],
			"name":"TailA_joint",
			"rotation":[
				-0.9966312050819397,
				-0.08201364427804947,
				-8.712827082035801e-08,
				3.5849281321276294e-09
			],
			"scale":[
				0.9999998807907104,
				0.9999999403953552,
				1
			],
			"translation":[
				0.34641456604003906,
				-0.18300814926624298,
				1.5142248344091058e-08
			]
		},
		{
			"children":[
				5,
				9,
				27,
				31
			],
			"name":"CenterHip_joint",
			"rotation":[
				-0.7071067690849304,
				4.329789235263893e-17,
				0.7071067690849304,
				2.5554456740652575e-15
			],
			"translation":[
				-5.292226384940202e-16,
				0.5686621069908142,
				-0.5529627203941345
			]
		},
		{
			"children":[
				32
			],
			"name":"CenterRoot_joint",
			"translation":[
				-4.149081042539843e-17,
				0.6493369936943054,
				0.008821917697787285
			]
		},
		{
			"children":[
				33
			],
			"name":"WorldRoot2_joint",
			"translation":[
				0,
				-1.1920928955078125e-07,
				0
			]
		},
		{
			"children":[
				1,
				34
			],
			"name":"WorldRoot1_joint",
			"scale":[
				1,
				0.9999999403953552,
				1
			]
		},
		{
			"children":[
				35
			],
			"name":"npc_custom_cow_mdl"
		},
		{
			"children":[
				36
			],
			"name":"npc_custom_cow_mdl (merge)",
			"rotation":[
				-0.7071067690849304,
				0,
				0,
				0.7071067690849304
			]
		},
		{
			"mesh":0,
			"name":"cow_geo",
			"skin":0
		},
		{
			"children":[
				38,
				37
			],
			"name":"Armature",
			"rotation":[
				0.7071068286895752,
				0,
				0,
				0.7071068286895752
			],
			"scale":[
				1.19350004196167,
				1.19350004196167,
				1.19350004196167
			]
		}
	],
	"materials":[
		{
			"doubleSided":true,
			"extensions":{
				"KHR_materials_specular":{
					"specularColorFactor":[
						0.4000000059604645,
						0.4000000059604645,
						0.4000000059604645
					]
				}
			},
			"name":"cow_body_FGC_mat",
			"pbrMetallicRoughness":{
				"baseColorTexture":{
					"index":0
				},
				"metallicFactor":0
			}
		},
		{
			"doubleSided":true,
			"extensions":{
				"KHR_materials_specular":{
					"specularColorFactor":[
						0.4000000059604645,
						0.4000000059604645,
						0.4000000059604645
					]
				}
			},
			"name":"cow_rightPupil_FGCE_mat",
			"pbrMetallicRoughness":{
				"baseColorTexture":{
					"index":1
				},
				"metallicFactor":0
			}
		},
		{
			"doubleSided":true,
			"extensions":{
				"KHR_materials_specular":{
					"specularColorFactor":[
						0.4000000059604645,
						0.4000000059604645,
						0.4000000059604645
					]
				}
			},
			"name":"cow_leftPupil_FGCE_mat",
			"pbrMetallicRoughness":{
				"baseColorTexture":{
					"index":2
				},
				"metallicFactor":0
			}
		}
	],
	"meshes":[
		{
			"name":"cow_geo",
			"primitives":[
				{
					"attributes":{
						"POSITION":0,
						"NORMAL":1,
						"TEXCOORD_0":2,
						"JOINTS_0":3,
						"WEIGHTS_0":4
					},
					"indices":5,
					"material":0
				},
				{
					"attributes":{
						"POSITION":6,
						"NORMAL":7,
						"TEXCOORD_0":8,
						"JOINTS_0":9,
						"WEIGHTS_0":10
					},
					"indices":11,
					"material":1
				},
				{
					"attributes":{
						"POSITION":12,
						"NORMAL":13,
						"TEXCOORD_0":14,
						"JOINTS_0":15,
						"WEIGHTS_0":16
					},
					"indices":17,
					"material":2
				}
			]
		}
	],
	"textures":[
		{
			"sampler":0,
			"source":0
		},
		{
			"sampler":0,
			"source":1
		},
		{
			"sampler":0,
			"source":1
		}
	],
	"images":[
		{
			"mimeType":"image/png",
			"name":"npc_custom_cow_col",
			"uri":"npc_custom_cow_col.png"
		},
		{
			"mimeType":"image/png",
			"name":"npc_shared_pupil_col_Edited",
			"uri":"npc_shared_pupil_col_Edited.png"
		}
	],
	"skins":[
		{
			"inverseBindMatrices":18,
			"joints":[
				37,
				36,
				35,
				1,
				0,
				34,
				33,
				32,
				5,
				4,
				3,
				2,
				9,
				8,
				7,
				6,
				27,
				26,
				25,
				24,
				16,
				12,
				11,
				10,
				15,
				14,
				13,
				23,
				22,
				21,
				17,
				18,
				19,
				20,
				31,
				30,
				29,
				28
			],
			"name":"Armature"
		}
	],
	"accessors":[
		{
			"bufferView":0,
			"componentType":5126,
			"count":1660,
			"max":[
				0.5306956768035889,
				2.3618907928466797,
				2.0622196197509766
			],
			"min":[
				-0.5306956768035889,
				-6.746570306859212e-06,
				-1.3225001096725464
			],
			"type":"VEC3"
		},
		{
			"bufferView":1,
			"componentType":5126,
			"count":1660,
			"type":"VEC3"
		},
		{
			"bufferView":2,
			"componentType":5126,
			"count":1660,
			"type":"VEC2"
		},
		{
			"bufferView":3,
			"componentType":5121,
			"count":1660,
			"type":"VEC4"
		},
		{
			"bufferView":4,
			"componentType":5126,
			"count":1660,
			"type":"VEC4"
		},
		{
			"bufferView":5,
			"componentType":5123,
			"count":6936,
			"type":"SCALAR"
		},
		{
			"bufferView":6,
			"componentType":5126,
			"count":24,
			"max":[
				-0.07726234942674637,
				2.0966796875,
				1.6983282566070557
			],
			"min":[
				-0.20911858975887299,
				1.966328501701355,
				1.5997737646102905
			],
			"type":"VEC3"
		},
		{
			"bufferView":7,
			"componentType":5126,
			"count":24,
			"type":"VEC3"
		},
		{
			"bufferView":8,
			"componentType":5126,
			"count":24,
			"type":"VEC2"
		},
		{
			"bufferView":9,
			"componentType":5121,
			"count":24,
			"type":"VEC4"
		},
		{
			"bufferView":10,
			"componentType":5126,
			"count":24,
			"type":"VEC4"
		},
		{
			"bufferView":11,
			"componentType":5123,
			"count":102,
			"type":"SCALAR"
		},
		{
			"bufferView":12,
			"componentType":5126,
			"count":24,
			"max":[
				0.20911858975887299,
				2.0966796875,
				1.6983282566070557
			],
			"min":[
				0.07726234197616577,
				1.966328501701355,
				1.5997737646102905
			],
			"type":"VEC3"
		},
		{
			"bufferView":13,
			"componentType":5126,
			"count":24,
			"type":"VEC3"
		},
		{
			"bufferView":14,
			"componentType":5126,
			"count":24,
			"type":"VEC2"
		},
		{
			"bufferView":15,
			"componentType":5121,
			"count":24,
			"type":"VEC4"
		},
		{
			"bufferView":16,
			"componentType":5126,
			"count":24,
			"type":"VEC4"
		},
		{
			"bufferView":17,
			"componentType":5123,
			"count":102,
			"type":"SCALAR"
		},
		{
			"bufferView":18,
			"componentType":5126,
			"count":38,
			"type":"MAT4"
		}
	],
	"bufferViews":[
		{
			"buffer":0,
			"byteLength":19920,
			"byteOffset":0,
			"target":34962
		},
		{
			"buffer":0,
			"byteLength":19920,
			"byteOffset":19920,
			"target":34962
		},
		{
			"buffer":0,
			"byteLength":13280,
			"byteOffset":39840,
			"target":34962
		},
		{
			"buffer":0,
			"byteLength":6640,
			"byteOffset":53120,
			"target":34962
		},
		{
			"buffer":0,
			"byteLength":26560,
			"byteOffset":59760,
			"target":34962
		},
		{
			"buffer":0,
			"byteLength":13872,
			"byteOffset":86320,
			"target":34963
		},
		{
			"buffer":0,
			"byteLength":288,
			"byteOffset":100192,
			"target":34962
		},
		{
			"buffer":0,
			"byteLength":288,
			"byteOffset":100480,
			"target":34962
		},
		{
			"buffer":0,
			"byteLength":192,
			"byteOffset":100768,
			"target":34962
		},
		{
			"buffer":0,
			"byteLength":96,
			"byteOffset":100960,
			"target":34962
		},
		{
			"buffer":0,
			"byteLength":384,
			"byteOffset":101056,
			"target":34962
		},
		{
			"buffer":0,
			"byteLength":204,
			"byteOffset":101440,
			"target":34963
		},
		{
			"buffer":0,
			"byteLength":288,
			"byteOffset":101644,
			"target":34962
		},
		{
			"buffer":0,
			"byteLength":288,
			"byteOffset":101932,
			"target":34962
		},
		{
			"buffer":0,
			"byteLength":192,
			"byteOffset":102220,
			"target":34962
		},
		{
			"buffer":0,
			"byteLength":96,
			"byteOffset":102412,
			"target":34962
		},
		{
			"buffer":0,
			"byteLength":384,
			"byteOffset":102508,
			"target":34962
		},
		{
			"buffer":0,
			"byteLength":204,
			"byteOffset":102892,
			"target":34963
		},
		{
			"buffer":0,
			"byteLength":2432,
			"byteOffset":103096
		}
	],
	"samplers":[
		{
			"magFilter":9729,
			"minFilter":9987
		}
	],
	"buffers":[
		{
			"byteLength":105528,
			"uri":"Cow.bin"
		}
	]
}
