{
	"asset":{
		"generator":"Khronos glTF Blender I/O v5.0.21",
		"version":"2.0"
	},
	"extensionsUsed":[
		"KHR_materials_specular"
	],
	"scene":0,
	"scenes":[
		{
			"name":"Scene",
			"nodes":[
				41
			]
		}
	],
	"nodes":[
		{
			"name":"porchageese_geo"
		},
		{
			"name":"PupilsAnim_joint",
			"translation":[
				0,
				-8.881784197001252e-16,
				0.10854047536849976
			]
		},
		{
			"children":[
				1
			],
			"name":"FacialAnim_joint"
		},
		{
			"name":"LeftToe_joint",
			"rotation":[
				1.8283966340959523e-08,
				4.761121985552563e-08,
				-0.21953606605529785,
				0.9756044149398804
			],
			"scale":[
				0.9999998807907104,
				0.9999999403953552,
				1
			],
			"translation":[
				0.027471989393234253,
				0.004303450230509043,
				0.0016354602994397283
			]
		},
		{
			"children":[
				3
			],
			"name":"LeftAnkle_joint",
			"rotation":[
				0.01297843735665083,
				0.001981039997190237,
				-0.6152369379997253,
				0.7882329821586609
			],
			"scale":[
				0.9999997615814209,
				1,
				0.9999998211860657
			],
			"translation":[
				0.04999999329447746,
				5.21540641784668e-08,
				-9.313225746154785e-10
			]
		},
		{
			"children":[
				4
			],
			"name":"LeftKnee_joint",
			"rotation":[
				-4.708927463070722e-06,
				8.07776814326644e-05,
				0.061221905052661896,
				0.9981241822242737
			],
			"scale":[
				0.9999995827674866,
				0.9999998211860657,
				0.9999999403953552
			],
			"translation":[
				0.04599994793534279,
				2.8405338525772095e-08,
				-1.7648562788963318e-07
			]
		},
		{
			"children":[
				5
			],
			"name":"LeftHip_joint",
			"rotation":[
				0.9991893172264099,
				0.018889185041189194,
				-0.03182406350970268,
				0.015845762565732002
			],
			"scale":[
				1.000001072883606,
				1,
				1.0000005960464478
			],
			"translation":[
				0.04800001159310341,
				-0.010000019334256649,
				-0.04999999329447746
			]
		},
		{
			"name":"RightToe_joint",
			"rotation":[
				6.973505861651574e-08,
				7.39077554712253e-09,
				-0.21953560411930084,
				0.9756045341491699
			],
			"scale":[
				0.9999999403953552,
				1,
				0.9999999403953552
			],
			"translation":[
				-0.02747180312871933,
				-0.004300855100154877,
				-0.0016355114057660103
			]
		},
		{
			"children":[
				7
			],
			"name":"RightAnkle_joint",
			"rotation":[
				0.012978583574295044,
				0.001980943838134408,
				-0.6152506470680237,
				0.7882222533226013
			],
			"scale":[
				1,
				1.0000001192092896,
				0.9999999403953552
			],
			"translation":[
				-0.05000001937150955,
				2.1653249859809875e-08,
				-4.656612873077393e-10
			]
		},
		{
			"children":[
				8
			],
			"name":"RightKnee_joint",
			"rotation":[
				6.606714305235073e-05,
				-0.0010782791068777442,
				0.06120949611067772,
				0.998124361038208
			],
			"scale":[
				0.9999998807907104,
				0.9999999403953552,
				1.0000001192092896
			],
			"translation":[
				-0.046000003814697266,
				1.7229467630386353e-08,
				8.847564458847046e-09
			]
		},
		{
			"children":[
				9
			],
			"name":"RightHip_joint",
			"rotation":[
				-0.0188935287296772,
				0.9992079138755798,
				0.01587503030896187,
				0.03121844306588173
			],
			"scale":[
				1,
				1.0000003576278687,
				0.9999999403953552
			],
			"translation":[
				0.048000019043684006,
				-0.010000018402934074,
				0.05000000074505806
			]
		},
		{
			"children":[
				6,
				10
			],
			"name":"CenterHip_joint",
			"rotation":[
				0.5000000596046448,
				-0.4999999403953552,
				-0.5000000596046448,
				0.4999999403953552
			],
			"scale":[
				0.9999999403953552,
				0.9999999403953552,
				1
			],
			"translation":[
				-2.67320951175497e-16,
				-9.313225746154785e-10,
				1.6007106751203537e-08
			]
		},
		{
			"name":"Jaw_joint",
			"rotation":[
				-0.26138705015182495,
				-0.657021164894104,
				-0.26138702034950256,
				0.657021164894104
			],
			"scale":[
				0.9999998807907104,
				0.9999997615814209,
				0.9999997615814209
			],
			"translation":[
				0.010995849967002869,
				0.029161598533391953,
				2.0720848648014822e-10
			]
		},
		{
			"name":"Nose_joint",
			"rotation":[
				-0.49545684456825256,
				-0.5045021176338196,
				-0.49545684456825256,
				0.5045022368431091
			],
			"scale":[
				0.9999998211860657,
				0.9999997615814209,
				0.9999996423721313
			],
			"translation":[
				0.0243099182844162,
				0.046659987419843674,
				4.5810050197658825e-10
			]
		},
		{
			"children":[
				12,
				13
			],
			"name":"Head_joint",
			"rotation":[
				8.940497647769163e-11,
				8.959247566053818e-09,
				-0.009045083075761795,
				0.9999591112136841
			],
			"scale":[
				1.0000001192092896,
				1.0000001192092896,
				1.0000001192092896
			],
			"translation":[
				0.20160111784934998,
				0.01350284181535244,
				1.8646174881897792e-10
			]
		},
		{
			"name":"LeftIndexFinger_joint",
			"rotation":[
				0.791817307472229,
				-0.046332262456417084,
				0.0918840542435646,
				0.6020267009735107
			],
			"scale":[
				0.9999998211860657,
				0.9999997019767761,
				0.9999995231628418
			],
			"translation":[
				0.061598438769578934,
				0.03789924457669258,
				0.01909702643752098
			]
		},
		{
			"name":"LeftMidFinger_joint",
			"rotation":[
				0.700732946395874,
				-0.094728022813797,
				0.0420873761177063,
				0.7058531641960144
			],
			"scale":[
				1,
				0.9999995827674866,
				0.9999997019767761
			],
			"translation":[
				0.07175138592720032,
				0.005211696960031986,
				0.013144509866833687
			]
		},
		{
			"name":"LeftPinkyFinger_joint",
			"rotation":[
				0.6654252409934998,
				-0.12967783212661743,
				-0.011714229360222816,
				0.7350209355354309
			],
			"scale":[
				1,
				0.9999997019767761,
				0.9999996423721313
			],
			"translation":[
				0.06406647711992264,
				-0.025915728881955147,
				0.013542559929192066
			]
		},
		{
			"name":"LeftThumb_joint",
			"rotation":[
				-0.9765033721923828,
				-0.02566687762737274,
				-0.19405974447727203,
				0.09012888371944427
			],
			"scale":[
				1.0000004768371582,
				0.9999997019767761,
				1.0000026226043701
			],
			"translation":[
				0.021012689918279648,
				0.029426010325551033,
				0.03609664365649223
			]
		},
		{
			"name":"LeftWeapon_joint",
			"rotation":[
				0.024677591398358345,
				0.7066760063171387,
				0.03700714558362961,
				0.7061377763748169
			],
			"scale":[
				0.9999999403953552,
				1,
				0.9999999403953552
			],
			"translation":[
				0.04200000688433647,
				3.14321368932724e-09,
				0.012000025250017643
			]
		},
		{
			"children":[
				15,
				16,
				17,
				18,
				19
			],
			"name":"LeftHand_joint",
			"rotation":[
				0.08315283060073853,
				0.05036080256104469,
				0.007325253449380398,
				0.9952365756034851
			],
			"scale":[
				0.9999998807907104,
				1,
				1.000000238418579
			],
			"translation":[
				0.16384151577949524,
				-2.0605511963367462e-08,
				1.5133991837501526e-08
			]
		},
		{
			"children":[
				20
			],
			"name":"LeftElbow_joint",
			"rotation":[
				0.6039832830429077,
				-0.36770111322402954,
				0.36770105361938477,
				0.603983461856842
			],
			"scale":[
				1.0000003576278687,
				1,
				0.9999999403953552
			],
			"translation":[
				0.12490411102771759,
				-9.778887033462524e-09,
				4.6566128730773926e-09
			]
		},
		{
			"children":[
				21
			],
			"name":"LeftShoulder_joint",
			"rotation":[
				0.02238539047539234,
				0.8360999822616577,
				0.4875631034374237,
				0.250435471534729
			],
			"scale":[
				0.9999997615814209,
				0.9999997019767761,
				0.9999996423721313
			],
			"translation":[
				-0.033000003546476364,
				-1.3845609103668721e-08,
				-2.33532992943708e-09
			]
		},
		{
			"children":[
				22
			],
			"name":"LeftCollar_joint",
			"rotation":[
				0.006395731586962938,
				0.7070778608322144,
				-0.006395719014108181,
				0.7070778608322144
			],
			"scale":[
				1,
				0.9999998211860657,
				1
			],
			"translation":[
				0.08670312166213989,
				6.492994725704193e-05,
				8.019142988535677e-11
			]
		},
		{
			"name":"RightIndexFinger_joint",
			"rotation":[
				0.7918224334716797,
				-0.04633341357111931,
				0.0918845683336258,
				0.602019727230072
			],
			"scale":[
				0.9999998807907104,
				1,
				0.9999998211860657
			],
			"translation":[
				-0.06159838289022446,
				-0.03789922967553139,
				-0.019097071141004562
			]
		},
		{
			"name":"RightMidFinger_joint",
			"rotation":[
				0.7007388472557068,
				-0.09472949057817459,
				0.04208666458725929,
				0.7058470845222473
			],
			"scale":[
				1.0000001192092896,
				0.9999997615814209,
				0.9999995231628418
			],
			"translation":[
				-0.07175133377313614,
				-0.005211672745645046,
				-0.01314455084502697
			]
		},
		{
			"name":"RightPinkyFinger_joint",
			"rotation":[
				0.665431559085846,
				-0.1296793818473816,
				-0.01171575952321291,
				0.7350149750709534
			],
			"scale":[
				0.9999998807907104,
				0.9999995827674866,
				0.9999997019767761
			],
			"translation":[
				-0.06406644731760025,
				0.02591574378311634,
				-0.013542604632675648
			]
		},
		{
			"name":"RightThumb_joint",
			"rotation":[
				-0.9765023589134216,
				-0.025665007531642914,
				-0.1940612494945526,
				0.09013699740171432
			],
			"scale":[
				1.0000014305114746,
				0.9999998807907104,
				1.0000048875808716
			],
			"translation":[
				-0.02101265825331211,
				-0.029426004737615585,
				-0.03609665855765343
			]
		},
		{
			"name":"RightWeapon_joint",
			"rotation":[
				-0.7061387896537781,
				-0.037007737904787064,
				0.7066749334335327,
				0.02467774599790573
			],
			"scale":[
				1.0000005960464478,
				0.9999999403953552,
				1.000015139579773
			],
			"translation":[
				-0.04199998080730438,
				-0.0003474649856798351,
				-0.012000041082501411
			]
		},
		{
			"children":[
				24,
				25,
				26,
				27,
				28
			],
			"name":"RightHand_joint",
			"rotation":[
				0.07877112179994583,
				0.052574023604393005,
				0.006915504112839699,
				0.9954814314842224
			],
			"scale":[
				0.9999998211860657,
				1.0000001192092896,
				1.0000001192092896
			],
			"translation":[
				-0.1638416051864624,
				-1.394655555486679e-07,
				-4.8871152102947235e-06
			]
		},
		{
			"children":[
				29
			],
			"name":"RightElbow_joint",
			"rotation":[
				-2.3170896383817308e-05,
				2.0346638848423027e-05,
				0.5199835896492004,
				0.8541762232780457
			],
			"scale":[
				0.9999999403953552,
				1.0000001192092896,
				1.0000001192092896
			],
			"translation":[
				-0.12490567564964294,
				-1.434236764907837e-07,
				-4.991888999938965e-06
			]
		},
		{
			"children":[
				30
			],
			"name":"RightShoulder_joint",
			"rotation":[
				0.19430352747440338,
				0.9354351162910461,
				-0.24963048100471497,
				0.1577717512845993
			],
			"scale":[
				0.9999998807907104,
				0.9999998807907104,
				0.9999999403953552
			],
			"translation":[
				0.032999999821186066,
				2.525096931549342e-08,
				4.1380584292483036e-08
			]
		},
		{
			"children":[
				31
			],
			"name":"RightCollar_joint",
			"rotation":[
				-0.7070778012275696,
				0.0063956123776733875,
				0.7070779204368591,
				0.006395634263753891
			],
			"scale":[
				1,
				1.0000001192092896,
				1.0000001192092896
			],
			"translation":[
				0.08670316636562347,
				6.495974957942963e-05,
				8.019007680104551e-11
			]
		},
		{
			"children":[
				14,
				23,
				32
			],
			"name":"SpineB_joint",
			"rotation":[
				-8.403588047656285e-09,
				-1.9818745755628697e-08,
				0.3765358328819275,
				0.9264020919799805
			],
			"scale":[
				0.9999999403953552,
				0.9999999403953552,
				1
			],
			"translation":[
				0.08888456225395203,
				-3.725290298461914e-09,
				3.88526988359672e-09
			]
		},
		{
			"children":[
				33
			],
			"name":"SpineA_joint",
			"rotation":[
				0.5469495058059692,
				0.4481588304042816,
				0.5469494462013245,
				0.44815880060195923
			],
			"scale":[
				0.9999997615814209,
				0.9999997615814209,
				0.9999999403953552
			],
			"translation":[
				4.709540906169842e-17,
				0,
				1.594889909029007e-08
			]
		},
		{
			"children":[
				11,
				34
			],
			"name":"CenterRoot_joint",
			"rotation":[
				-0.6740711331367493,
				0,
				0,
				0.7386664748191833
			],
			"scale":[
				1,
				0.9999998807907104,
				0.9999999403953552
			],
			"translation":[
				0,
				0.1838204562664032,
				-0.009207052178680897
			]
		},
		{
			"children":[
				35
			],
			"name":"WorldRoot2_joint"
		},
		{
			"children":[
				2,
				36
			],
			"name":"WorldRoot1_joint"
		},
		{
			"children":[
				0,
				37
			],
			"name":"npc_custom_porchageese_mdl"
		},
		{
			"children":[
				38
			],
			"name":"npc_custom_porchageese_mdl (merge)",
			"rotation":[
				-0.7071067690849304,
				0,
				0,
				0.7071067690849304
			]
		},
		{
			"mesh":0,
			"name":"WorldRoot2_joint",
			"skin":0
		},
		{
			"children":[
				40,
				39
			],
			"name":"Armature",
			"rotation":[
				0.7071068286895752,
				0,
				0,
				0.7071068286895752
			],
			"scale":[
				5.0786004066467285,
				5.0786004066467285,
				5.0786004066467285
			]
		}
	],
	"materials":[
		{
			"doubleSided":true,
			"extensions":{
				"KHR_materials_specular":{
					"specularColorFactor":[
						0.4000000059604645,
						0.4000000059604645,
						0.4000000059604645
					]
				}
			},
			"name":"porchageese_body_FGC_mat",
			"pbrMetallicRoughness":{
				"baseColorTexture":{
					"index":0
				},
				"metallicFactor":0
			}
		},
		{
			"doubleSided":true,
			"extensions":{
				"KHR_materials_specular":{
					"specularColorFactor":[
						0.4000000059604645,
						0.4000000059604645,
						0.4000000059604645
					]
				}
			},
			"name":"porchageese_leftPupil_FGCE_mat",
			"pbrMetallicRoughness":{
				"baseColorTexture":{
					"index":1
				},
				"metallicFactor":0
			}
		},
		{
			"doubleSided":true,
			"extensions":{
				"KHR_materials_specular":{
					"specularColorFactor":[
						0.4000000059604645,
						0.4000000059604645,
						0.4000000059604645
					]
				}
			},
			"name":"porchageese_rightPupil_FGCE_mat",
			"pbrMetallicRoughness":{
				"baseColorTexture":{
					"index":2
				},
				"metallicFactor":0
			}
		}
	],
	"meshes":[
		{
			"name":"WorldRoot2_joint",
			"primitives":[
				{
					"attributes":{
						"POSITION":0,
						"NORMAL":1,
						"TEXCOORD_0":2,
						"JOINTS_0":3,
						"WEIGHTS_0":4
					},
					"indices":5,
					"material":0
				},
				{
					"attributes":{
						"POSITION":6,
						"NORMAL":7,
						"TEXCOORD_0":8,
						"JOINTS_0":9,
						"WEIGHTS_0":10
					},
					"indices":11,
					"material":1
				},
				{
					"attributes":{
						"POSITION":12,
						"NORMAL":13,
						"TEXCOORD_0":14,
						"JOINTS_0":15,
						"WEIGHTS_0":16
					},
					"indices":17,
					"material":2
				}
			]
		}
	],
	"textures":[
		{
			"sampler":0,
			"source":0
		},
		{
			"sampler":0,
			"source":1
		},
		{
			"sampler":0,
			"source":1
		}
	],
	"images":[
		{
			"mimeType":"image/png",
			"name":"npc_custom_porchageese_col",
			"uri":"npc_custom_porchageese_col.png"
		},
		{
			"mimeType":"image/png",
			"name":"npc_shared_pupil_col_Edited",
			"uri":"npc_shared_pupil_col_Edited.png"
		}
	],
	"skins":[
		{
			"inverseBindMatrices":18,
			"joints":[
				39,
				38,
				0,
				37,
				2,
				1,
				36,
				35,
				11,
				6,
				5,
				4,
				3,
				10,
				9,
				8,
				7,
				34,
				33,
				14,
				12,
				13,
				23,
				22,
				21,
				20,
				15,
				16,
				17,
				18,
				19,
				32,
				31,
				30,
				29,
				24,
				25,
				26,
				27,
				28
			],
			"name":"Armature"
		}
	],
	"accessors":[
		{
			"bufferView":0,
			"componentType":5126,
			"count":2085,
			"max":[
				0.9345588088035583,
				3.263385772705078,
				1.3439406156539917
			],
			"min":[
				-0.9345588088035583,
				-3.9343836755146785e-14,
				-1.6828157901763916
			],
			"type":"VEC3"
		},
		{
			"bufferView":1,
			"componentType":5126,
			"count":2085,
			"type":"VEC3"
		},
		{
			"bufferView":2,
			"componentType":5126,
			"count":2085,
			"type":"VEC2"
		},
		{
			"bufferView":3,
			"componentType":5121,
			"count":2085,
			"type":"VEC4"
		},
		{
			"bufferView":4,
			"componentType":5126,
			"count":2085,
			"type":"VEC4"
		},
		{
			"bufferView":5,
			"componentType":5123,
			"count":6018,
			"type":"SCALAR"
		},
		{
			"bufferView":6,
			"componentType":5126,
			"count":32,
			"max":[
				0.14715440571308136,
				2.3158860206604004,
				-0.7280416488647461
			],
			"min":[
				0.007649787701666355,
				2.1836249828338623,
				-0.7827600836753845
			],
			"type":"VEC3"
		},
		{
			"bufferView":7,
			"componentType":5126,
			"count":32,
			"type":"VEC3"
		},
		{
			"bufferView":8,
			"componentType":5126,
			"count":32,
			"type":"VEC2"
		},
		{
			"bufferView":9,
			"componentType":5121,
			"count":32,
			"type":"VEC4"
		},
		{
			"bufferView":10,
			"componentType":5126,
			"count":32,
			"type":"VEC4"
		},
		{
			"bufferView":11,
			"componentType":5123,
			"count":96,
			"type":"SCALAR"
		},
		{
			"bufferView":12,
			"componentType":5126,
			"count":31,
			"max":[
				-0.007649796083569527,
				2.3158860206604004,
				-0.7280416488647461
			],
			"min":[
				-0.14715440571308136,
				2.1836249828338623,
				-0.7827600836753845
			],
			"type":"VEC3"
		},
		{
			"bufferView":13,
			"componentType":5126,
			"count":31,
			"type":"VEC3"
		},
		{
			"bufferView":14,
			"componentType":5126,
			"count":31,
			"type":"VEC2"
		},
		{
			"bufferView":15,
			"componentType":5121,
			"count":31,
			"type":"VEC4"
		},
		{
			"bufferView":16,
			"componentType":5126,
			"count":31,
			"type":"VEC4"
		},
		{
			"bufferView":17,
			"componentType":5123,
			"count":96,
			"type":"SCALAR"
		},
		{
			"bufferView":18,
			"componentType":5126,
			"count":40,
			"type":"MAT4"
		}
	],
	"bufferViews":[
		{
			"buffer":0,
			"byteLength":25020,
			"byteOffset":0,
			"target":34962
		},
		{
			"buffer":0,
			"byteLength":25020,
			"byteOffset":25020,
			"target":34962
		},
		{
			"buffer":0,
			"byteLength":16680,
			"byteOffset":50040,
			"target":34962
		},
		{
			"buffer":0,
			"byteLength":8340,
			"byteOffset":66720,
			"target":34962
		},
		{
			"buffer":0,
			"byteLength":33360,
			"byteOffset":75060,
			"target":34962
		},
		{
			"buffer":0,
			"byteLength":12036,
			"byteOffset":108420,
			"target":34963
		},
		{
			"buffer":0,
			"byteLength":384,
			"byteOffset":120456,
			"target":34962
		},
		{
			"buffer":0,
			"byteLength":384,
			"byteOffset":120840,
			"target":34962
		},
		{
			"buffer":0,
			"byteLength":256,
			"byteOffset":121224,
			"target":34962
		},
		{
			"buffer":0,
			"byteLength":128,
			"byteOffset":121480,
			"target":34962
		},
		{
			"buffer":0,
			"byteLength":512,
			"byteOffset":121608,
			"target":34962
		},
		{
			"buffer":0,
			"byteLength":192,
			"byteOffset":122120,
			"target":34963
		},
		{
			"buffer":0,
			"byteLength":372,
			"byteOffset":122312,
			"target":34962
		},
		{
			"buffer":0,
			"byteLength":372,
			"byteOffset":122684,
			"target":34962
		},
		{
			"buffer":0,
			"byteLength":248,
			"byteOffset":123056,
			"target":34962
		},
		{
			"buffer":0,
			"byteLength":124,
			"byteOffset":123304,
			"target":34962
		},
		{
			"buffer":0,
			"byteLength":496,
			"byteOffset":123428,
			"target":34962
		},
		{
			"buffer":0,
			"byteLength":192,
			"byteOffset":123924,
			"target":34963
		},
		{
			"buffer":0,
			"byteLength":2560,
			"byteOffset":124116
		}
	],
	"samplers":[
		{
			"magFilter":9729,
			"minFilter":9987
		}
	],
	"buffers":[
		{
			"byteLength":126676,
			"uri":"Porchageese.bin"
		}
	]
}
