{
	"asset":{
		"generator":"Khronos glTF Blender I/O v5.0.21",
		"version":"2.0"
	},
	"extensionsUsed":[
		"KHR_materials_specular"
	],
	"scene":0,
	"scenes":[
		{
			"name":"Scene",
			"nodes":[
				40
			]
		}
	],
	"nodes":[
		{
			"name":"mileyCyrusRobot_geo",
			"rotation":[
				7.105428204633949e-15,
				0,
				0,
				1
			],
			"scale":[
				0.9999999403953552,
				0.9999998807907104,
				0.9999998807907104
			]
		},
		{
			"name":"PupilsAnim_joint",
			"rotation":[
				-0.0039058327674865723,
				0,
				0,
				0.9999847412109375
			],
			"scale":[
				1.0000001044244144e-12,
				1.0000001044244144e-12,
				1.0001220703125
			],
			"translation":[
				0,
				-0.001953125,
				0.10854045301675797
			]
		},
		{
			"children":[
				1
			],
			"name":"FacialAnim_joint",
			"rotation":[
				6.783888568625586e-15,
				0,
				0,
				1
			],
			"scale":[
				9.999999960041972e-13,
				9.999999960041972e-13,
				0.9999999403953552
			]
		},
		{
			"name":"LeftToe_joint",
			"rotation":[
				-4.666572749556508e-06,
				-1.0219741852779407e-05,
				-0.4067365229129791,
				0.9135454893112183
			],
			"scale":[
				1.0000001192092896,
				1.0000001192092896,
				0.9999999403953552
			],
			"translation":[
				0.1323910504579544,
				-1.0652001947164536e-08,
				-8.811070983938407e-09
			]
		},
		{
			"children":[
				3
			],
			"name":"LeftAnkle_joint",
			"rotation":[
				-0.001318764523603022,
				0.0327187217772007,
				-0.3884887993335724,
				0.9208714365959167
			],
			"scale":[
				1.000000238418579,
				0.9999998211860657,
				1.0000001192092896
			],
			"translation":[
				0.18556524813175201,
				2.3981556296348572e-08,
				-1.5945988707244396e-07
			]
		},
		{
			"children":[
				4
			],
			"name":"LeftKnee_joint",
			"rotation":[
				-2.4328176095878007e-06,
				7.679990085307509e-05,
				0.03158276155591011,
				0.9995011687278748
			],
			"scale":[
				0.9999995827674866,
				0.9999998211860657,
				0.9999998211860657
			],
			"translation":[
				0.22022341191768646,
				-7.334165275096893e-09,
				-1.2246891856193542e-07
			]
		},
		{
			"children":[
				5
			],
			"name":"LeftHip_joint",
			"rotation":[
				0.9979561567306519,
				-0.0028906697407364845,
				-0.030359309166669846,
				0.05615612864494324
			],
			"scale":[
				0.9999998807907104,
				0.9999998807907104,
				0.999983012676239
			],
			"translation":[
				0.056000057607889175,
				0.012999974191188812,
				-0.08199997246265411
			]
		},
		{
			"name":"RightToe_joint",
			"rotation":[
				3.6557182170326996e-08,
				2.7553988957151887e-07,
				-0.4067365825176239,
				0.9135454893112183
			],
			"scale":[
				0.9999999403953552,
				1.0000001192092896,
				1
			],
			"translation":[
				-0.13239096105098724,
				3.481545718386769e-08,
				1.0220503554592142e-08
			]
		},
		{
			"children":[
				7
			],
			"name":"RightAnkle_joint",
			"rotation":[
				-0.0016742668813094497,
				0.03254910930991173,
				-0.3885176181793213,
				0.9208647608757019
			],
			"scale":[
				1,
				1.0000001192092896,
				0.9999999403953552
			],
			"translation":[
				-0.18556524813175201,
				1.0477378964424133e-08,
				-9.38598532229662e-09
			]
		},
		{
			"children":[
				8
			],
			"name":"RightKnee_joint",
			"rotation":[
				5.699918759205502e-09,
				3.364625555946077e-08,
				0.03158272057771683,
				0.9995011687278748
			],
			"scale":[
				1.000000238418579,
				0.9999999403953552,
				1
			],
			"translation":[
				-0.22022341191768646,
				-6.763730198144913e-08,
				-5.2386894822120667e-08
			]
		},
		{
			"children":[
				9
			],
			"name":"RightHip_joint",
			"rotation":[
				0.0032676802948117256,
				0.9986235499382019,
				0.04296739026904106,
				0.02990209497511387
			],
			"scale":[
				0.9999997019767761,
				0.9999995827674866,
				0.9999998807907104
			],
			"translation":[
				0.056000106036663055,
				0.012999996542930603,
				0.08199997246265411
			]
		},
		{
			"children":[
				6,
				10
			],
			"name":"CenterHip_joint",
			"rotation":[
				0.5,
				-0.5,
				-0.5,
				0.5000000596046448
			],
			"scale":[
				0.9999999403953552,
				0.9999998211860657,
				0.9999999403953552
			],
			"translation":[
				-4.149043653976156e-17,
				6.48338938091797e-10,
				-1.851816477937973e-10
			]
		},
		{
			"name":"Nose_joint",
			"rotation":[
				-3.8153757930814436e-11,
				1.148211994234094e-11,
				1.564621925354004e-07,
				1
			],
			"scale":[
				1,
				1,
				1.0000001192092896
			],
			"translation":[
				0.20127837359905243,
				0.16252727806568146,
				0.00014931053738109767
			]
		},
		{
			"children":[
				12
			],
			"name":"Head_joint",
			"rotation":[
				3.8561576154449995e-10,
				-1.0781543435811614e-09,
				-0.009044953621923923,
				0.9999591112136841
			],
			"scale":[
				0.9999999403953552,
				0.9999999403953552,
				0.9999999403953552
			],
			"translation":[
				0.22126400470733643,
				0.01930731162428856,
				1.898497892227624e-08
			]
		},
		{
			"name":"LeftIndexFinger_joint",
			"rotation":[
				0.7481712102890015,
				-0.0859634056687355,
				0.10400672256946564,
				0.6496404409408569
			],
			"scale":[
				1,
				1.000000238418579,
				1
			],
			"translation":[
				0.09638066589832306,
				0.0321999192237854,
				0.006728678941726685
			]
		},
		{
			"name":"LeftMidFinger_joint",
			"rotation":[
				0.6306632161140442,
				-0.2854609191417694,
				0.1329030692577362,
				0.7093044519424438
			],
			"scale":[
				0.9999997615814209,
				0.9999996423721313,
				0.9999999403953552
			],
			"translation":[
				0.09747697412967682,
				-0.0008428767323493958,
				0.01012251153588295
			]
		},
		{
			"name":"LeftPinkyFinger_joint",
			"rotation":[
				0.6128048300743103,
				-0.2982066869735718,
				0.1163439080119133,
				0.7225006222724915
			],
			"scale":[
				0.9999999403953552,
				1,
				1.000000238418579
			],
			"translation":[
				0.08543938398361206,
				-0.032029688358306885,
				0.011087844148278236
			]
		},
		{
			"name":"LeftThumb_joint",
			"rotation":[
				-0.985700786113739,
				0.0815211832523346,
				-0.10507252812385559,
				0.1034800261259079
			],
			"scale":[
				0.9999993443489075,
				1,
				0.9999986886978149
			],
			"translation":[
				0.06308893859386444,
				0.05829385668039322,
				0.02567995712161064
			]
		},
		{
			"name":"LeftWeapon_joint",
			"rotation":[
				0.024677883833646774,
				0.7066758871078491,
				0.03700726479291916,
				0.7061378359794617
			],
			"scale":[
				1,
				1,
				0.9999997615814209
			],
			"translation":[
				0.06506972014904022,
				0.0018082112073898315,
				0.02385670505464077
			]
		},
		{
			"children":[
				14,
				15,
				16,
				17,
				18
			],
			"name":"LeftHand_joint",
			"rotation":[
				0.0012864761520177126,
				0.0020543455611914396,
				-0.0659085363149643,
				0.9978227019309998
			],
			"scale":[
				0.9999998807907104,
				1.000000238418579,
				1.000000238418579
			],
			"translation":[
				0.15999993681907654,
				1.9371509552001953e-07,
				7.450580596923828e-09
			]
		},
		{
			"children":[
				19
			],
			"name":"LeftElbow_joint",
			"rotation":[
				0.7008609771728516,
				-0.09377662092447281,
				0.09377655386924744,
				0.7008606791496277
			],
			"translation":[
				0.2000000774860382,
				2.2351741790771484e-07,
				1.862645149230957e-09
			]
		},
		{
			"children":[
				20
			],
			"name":"LeftShoulder_joint",
			"rotation":[
				-0.04407428577542305,
				0.6849661469459534,
				0.6518940925598145,
				0.3223552703857422
			],
			"scale":[
				1,
				0.9999997019767761,
				0.9999999403953552
			],
			"translation":[
				-0.09411901980638504,
				-3.7143923492521935e-08,
				-6.829782961403907e-09
			]
		},
		{
			"children":[
				21
			],
			"name":"LeftCollar_joint",
			"rotation":[
				0.006395922042429447,
				0.7070778012275696,
				-0.006395925302058458,
				0.7070779204368591
			],
			"scale":[
				0.9999998211860657,
				0.999999463558197,
				0.9999997615814209
			],
			"translation":[
				0.1340000033378601,
				0.006000008899718523,
				0.031200002878904343
			]
		},
		{
			"name":"RightIndexFinger_joint",
			"rotation":[
				0.7481444478034973,
				-0.08606138080358505,
				0.10414973646402359,
				0.6496354341506958
			],
			"scale":[
				1,
				1,
				0.9999998807907104
			],
			"translation":[
				-0.09637784212827682,
				-0.032204173505306244,
				-0.006753519177436829
			]
		},
		{
			"name":"RightMidFinger_joint",
			"rotation":[
				0.6306340098381042,
				-0.28557083010673523,
				0.13303011655807495,
				0.7092623710632324
			],
			"scale":[
				1.0000001192092896,
				1.000000238418579,
				1.0000001192092896
			],
			"translation":[
				-0.0974743664264679,
				0.00083894282579422,
				-0.01014859601855278
			]
		},
		{
			"name":"RightPinkyFinger_joint",
			"rotation":[
				0.6127786636352539,
				-0.29831916093826294,
				0.11646807193756104,
				0.7224563956260681
			],
			"scale":[
				1,
				1.0000001192092896,
				1.000000238418579
			],
			"translation":[
				-0.08543766289949417,
				0.03202636539936066,
				-0.01111106388270855
			]
		},
		{
			"name":"RightThumb_joint",
			"rotation":[
				-0.9856856465339661,
				0.08148381114006042,
				-0.10524217784404755,
				0.10348088294267654
			],
			"scale":[
				1.0000008344650269,
				0.9999999403953552,
				1.0000017881393433
			],
			"translation":[
				-0.06307893991470337,
				-0.058297231793403625,
				-0.025692183524370193
			]
		},
		{
			"name":"RightWeapon_joint",
			"rotation":[
				-0.706139862537384,
				-0.037008341401815414,
				0.706673800945282,
				0.024678688496351242
			],
			"scale":[
				1.0000014305114746,
				1.0000003576278687,
				1.000030279159546
			],
			"translation":[
				-0.06491760164499283,
				-0.0023254305124282837,
				-0.023627476766705513
			]
		},
		{
			"children":[
				23,
				24,
				25,
				26,
				27
			],
			"name":"RightHand_joint",
			"rotation":[
				0.0012863307492807508,
				0.002054627286270261,
				-0.06590867787599564,
				0.9978227019309998
			],
			"scale":[
				0.9999998807907104,
				0.9999998807907104,
				1.000000238418579
			],
			"translation":[
				-0.15999990701675415,
				1.862645149230957e-08,
				9.313225746154785e-09
			]
		},
		{
			"children":[
				28
			],
			"name":"RightElbow_joint",
			"rotation":[
				8.080748870042953e-08,
				3.4766014067599826e-08,
				0.13261914253234863,
				0.9911670684814453
			],
			"scale":[
				1.0000001192092896,
				1.0000001192092896,
				1.000000238418579
			],
			"translation":[
				-0.19999992847442627,
				2.514570951461792e-07,
				-1.0896474123001099e-07
			]
		},
		{
			"children":[
				29
			],
			"name":"RightShoulder_joint",
			"rotation":[
				0.19677720963954926,
				0.945300281047821,
				-0.023398280143737793,
				0.259111225605011
			],
			"scale":[
				1.0000001192092896,
				1.0000009536743164,
				1.0000001192092896
			],
			"translation":[
				0.09411902725696564,
				2.5533751113471226e-08,
				7.79681386120501e-09
			]
		},
		{
			"children":[
				30
			],
			"name":"RightCollar_joint",
			"rotation":[
				-0.7070779800415039,
				0.0063958982937037945,
				0.7070777416229248,
				0.0063959332183003426
			],
			"scale":[
				0.9999998211860657,
				1,
				0.9999999403953552
			],
			"translation":[
				0.1340000033378601,
				0.00600000424310565,
				-0.031199978664517403
			]
		},
		{
			"children":[
				13,
				22,
				31
			],
			"name":"SpineB_joint",
			"rotation":[
				-5.089405423575272e-22,
				0,
				-7.1054265105680546e-15,
				1
			],
			"scale":[
				0.9999999403953552,
				1.0000001192092896,
				0.9999999403953552
			],
			"translation":[
				0.18053030967712402,
				-1.4662163039247389e-08,
				1.5782454454438266e-08
			]
		},
		{
			"children":[
				32
			],
			"name":"SpineA_joint",
			"rotation":[
				0.5,
				0.5,
				0.5,
				0.5000000596046448
			],
			"scale":[
				0.9999999403953552,
				0.9999998211860657,
				0.9999999403953552
			],
			"translation":[
				-4.149128688143126e-17,
				6.48338938091797e-10,
				-1.851816477937973e-10
			]
		},
		{
			"children":[
				11,
				33
			],
			"name":"CenterRoot_joint",
			"rotation":[
				-7.105427357601002e-15,
				0,
				0,
				1
			],
			"translation":[
				0,
				0.5593726634979248,
				0.004825354088097811
			]
		},
		{
			"children":[
				34
			],
			"name":"WorldRoot2_joint",
			"rotation":[
				7.105428204633949e-15,
				0,
				0,
				1
			],
			"scale":[
				0.9999999403953552,
				0.9999999403953552,
				0.9999999403953552
			]
		},
		{
			"children":[
				2,
				35
			],
			"name":"WorldRoot1_joint",
			"rotation":[
				7.105428204633949e-15,
				0,
				0,
				1
			],
			"scale":[
				0.9999999403953552,
				0.9999998807907104,
				0.9999998807907104
			]
		},
		{
			"children":[
				0,
				36
			],
			"name":"npc_custom_mileyCyrusRobot_mdl",
			"rotation":[
				-7.105428204633949e-15,
				0,
				0,
				1
			],
			"scale":[
				1,
				0.9999999403953552,
				0.9999999403953552
			]
		},
		{
			"children":[
				37
			],
			"name":"npc_custom_mileyCyrusRobot_mdl (merge)",
			"rotation":[
				-0.7071067690849304,
				0,
				0,
				0.7071067690849304
			],
			"scale":[
				0.9999999403953552,
				0.9999998807907104,
				0.9999998807907104
			]
		},
		{
			"mesh":0,
			"name":"WorldRoot1_joint.001",
			"skin":0
		},
		{
			"children":[
				39,
				38
			],
			"name":"Armature",
			"rotation":[
				0.70710688829422,
				0,
				0,
				0.7071066498756409
			],
			"scale":[
				1.3565999269485474,
				1.356600046157837,
				1.356600046157837
			]
		}
	],
	"materials":[
		{
			"doubleSided":true,
			"extensions":{
				"KHR_materials_specular":{
					"specularColorFactor":[
						0.4000000059604645,
						0.4000000059604645,
						0.4000000059604645
					]
				}
			},
			"name":"mileyCyrusRobot_leftPupil_FGCE_mat",
			"pbrMetallicRoughness":{
				"baseColorTexture":{
					"index":0
				},
				"metallicFactor":0
			}
		},
		{
			"doubleSided":true,
			"extensions":{
				"KHR_materials_specular":{
					"specularColorFactor":[
						2.0,
						2.0,
						2.0
					]
				}
			},
			"name":"mileyCyrusRobot_body_FGC_mat",
			"pbrMetallicRoughness":{
				"baseColorTexture":{
					"index":1
				},
				"metallicFactor":0
			}
		},
		{
			"doubleSided":true,
			"extensions":{
				"KHR_materials_specular":{
					"specularColorFactor":[
						0.4000000059604645,
						0.4000000059604645,
						0.4000000059604645
					]
				}
			},
			"name":"mileyCyrusRobot_rightPupil_FGCE_mat",
			"pbrMetallicRoughness":{
				"baseColorTexture":{
					"index":2
				},
				"metallicFactor":0
			}
		}
	],
	"meshes":[
		{
			"name":"WorldRoot1_joint.002",
			"primitives":[
				{
					"attributes":{
						"POSITION":0,
						"NORMAL":1,
						"TEXCOORD_0":2,
						"JOINTS_0":3,
						"WEIGHTS_0":4
					},
					"indices":5,
					"material":0
				},
				{
					"attributes":{
						"POSITION":6,
						"NORMAL":7,
						"TEXCOORD_0":8,
						"JOINTS_0":9,
						"WEIGHTS_0":10
					},
					"indices":11,
					"material":1
				},
				{
					"attributes":{
						"POSITION":12,
						"NORMAL":13,
						"TEXCOORD_0":14,
						"JOINTS_0":15,
						"WEIGHTS_0":16
					},
					"indices":17,
					"material":2
				}
			]
		}
	],
	"textures":[
		{
			"sampler":0,
			"source":0
		},
		{
			"sampler":0,
			"source":1
		},
		{
			"sampler":0,
			"source":0
		}
	],
	"images":[
		{
			"mimeType":"image/png",
			"name":"npc_shared_pupil_col_Edited",
			"uri":"npc_shared_pupil_col_Edited.png"
		},
		{
			"mimeType":"image/png",
			"name":"npc_custom_mileyCyrusRobot_col",
			"uri":"npc_custom_mileyCyrusRobot_col.png"
		}
	],
	"skins":[
		{
			"inverseBindMatrices":18,
			"joints":[
				38,
				37,
				0,
				36,
				2,
				1,
				35,
				34,
				11,
				6,
				5,
				4,
				3,
				10,
				9,
				8,
				7,
				33,
				32,
				13,
				12,
				22,
				21,
				20,
				19,
				14,
				15,
				16,
				17,
				18,
				31,
				30,
				29,
				28,
				23,
				24,
				25,
				26,
				27
			],
			"name":"Armature"
		}
	],
	"accessors":[
		{
			"bufferView":0,
			"componentType":5126,
			"count":36,
			"max":[
				0.13359175622463226,
				1.6521309614181519,
				0.23305447399616241
			],
			"min":[
				0.031127071008086205,
				1.5789088010787964,
				0.1906333863735199
			],
			"type":"VEC3"
		},
		{
			"bufferView":1,
			"componentType":5126,
			"count":36,
			"type":"VEC3"
		},
		{
			"bufferView":2,
			"componentType":5126,
			"count":36,
			"type":"VEC2"
		},
		{
			"bufferView":3,
			"componentType":5121,
			"count":36,
			"type":"VEC4"
		},
		{
			"bufferView":4,
			"componentType":5126,
			"count":36,
			"type":"VEC4"
		},
		{
			"bufferView":5,
			"componentType":5123,
			"count":150,
			"type":"SCALAR"
		},
		{
			"bufferView":6,
			"componentType":5126,
			"count":2483,
			"max":[
				0.6397191882133484,
				1.9401119947433472,
				0.3782180845737457
			],
			"min":[
				-0.6429967880249023,
				-2.614071377138316e-07,
				-0.32117968797683716
			],
			"type":"VEC3"
		},
		{
			"bufferView":7,
			"componentType":5126,
			"count":2483,
			"type":"VEC3"
		},
		{
			"bufferView":8,
			"componentType":5126,
			"count":2483,
			"type":"VEC2"
		},
		{
			"bufferView":9,
			"componentType":5121,
			"count":2483,
			"type":"VEC4"
		},
		{
			"bufferView":10,
			"componentType":5126,
			"count":2483,
			"type":"VEC4"
		},
		{
			"bufferView":11,
			"componentType":5123,
			"count":8688,
			"type":"SCALAR"
		},
		{
			"bufferView":12,
			"componentType":5126,
			"count":36,
			"max":[
				-0.030086610466241837,
				1.6520901918411255,
				0.23305447399616241
			],
			"min":[
				-0.13255161046981812,
				1.5788687467575073,
				0.1906333863735199
			],
			"type":"VEC3"
		},
		{
			"bufferView":13,
			"componentType":5126,
			"count":36,
			"type":"VEC3"
		},
		{
			"bufferView":14,
			"componentType":5126,
			"count":36,
			"type":"VEC2"
		},
		{
			"bufferView":15,
			"componentType":5121,
			"count":36,
			"type":"VEC4"
		},
		{
			"bufferView":16,
			"componentType":5126,
			"count":36,
			"type":"VEC4"
		},
		{
			"bufferView":17,
			"componentType":5123,
			"count":150,
			"type":"SCALAR"
		},
		{
			"bufferView":18,
			"componentType":5126,
			"count":39,
			"type":"MAT4"
		}
	],
	"bufferViews":[
		{
			"buffer":0,
			"byteLength":432,
			"byteOffset":0,
			"target":34962
		},
		{
			"buffer":0,
			"byteLength":432,
			"byteOffset":432,
			"target":34962
		},
		{
			"buffer":0,
			"byteLength":288,
			"byteOffset":864,
			"target":34962
		},
		{
			"buffer":0,
			"byteLength":144,
			"byteOffset":1152,
			"target":34962
		},
		{
			"buffer":0,
			"byteLength":576,
			"byteOffset":1296,
			"target":34962
		},
		{
			"buffer":0,
			"byteLength":300,
			"byteOffset":1872,
			"target":34963
		},
		{
			"buffer":0,
			"byteLength":29796,
			"byteOffset":2172,
			"target":34962
		},
		{
			"buffer":0,
			"byteLength":29796,
			"byteOffset":31968,
			"target":34962
		},
		{
			"buffer":0,
			"byteLength":19864,
			"byteOffset":61764,
			"target":34962
		},
		{
			"buffer":0,
			"byteLength":9932,
			"byteOffset":81628,
			"target":34962
		},
		{
			"buffer":0,
			"byteLength":39728,
			"byteOffset":91560,
			"target":34962
		},
		{
			"buffer":0,
			"byteLength":17376,
			"byteOffset":131288,
			"target":34963
		},
		{
			"buffer":0,
			"byteLength":432,
			"byteOffset":148664,
			"target":34962
		},
		{
			"buffer":0,
			"byteLength":432,
			"byteOffset":149096,
			"target":34962
		},
		{
			"buffer":0,
			"byteLength":288,
			"byteOffset":149528,
			"target":34962
		},
		{
			"buffer":0,
			"byteLength":144,
			"byteOffset":149816,
			"target":34962
		},
		{
			"buffer":0,
			"byteLength":576,
			"byteOffset":149960,
			"target":34962
		},
		{
			"buffer":0,
			"byteLength":300,
			"byteOffset":150536,
			"target":34963
		},
		{
			"buffer":0,
			"byteLength":2496,
			"byteOffset":150836
		}
	],
	"samplers":[
		{
			"magFilter":9729,
			"minFilter":9987
		}
	],
	"buffers":[
		{
			"byteLength":153332,
			"uri":"Miley%20Cyrus%20Robot.bin"
		}
	]
}
