{
	"asset":{
		"generator":"Khronos glTF Blender I/O v5.0.21",
		"version":"2.0"
	},
	"extensionsUsed":[
		"KHR_materials_specular"
	],
	"scene":0,
	"scenes":[
		{
			"name":"Scene",
			"nodes":[
				30
			]
		}
	],
	"nodes":[
		{
			"name":"PupilsAnim_joint",
			"scale":[
				9.999999960041972e-13,
				9.999999960041972e-13,
				1
			],
			"translation":[
				0,
				0,
				0.10854047536849976
			]
		},
		{
			"children":[
				0
			],
			"name":"FacialAnim_joint",
			"scale":[
				9.999999960041972e-13,
				9.999999960041972e-13,
				1
			]
		},
		{
			"name":"LeftToe_joint",
			"rotation":[
				3.859019125229679e-05,
				1.651396814850159e-05,
				0.05689230561256409,
				0.9983803033828735
			],
			"scale":[
				0.9999997615814209,
				0.9999998211860657,
				0.9999999403953552
			],
			"translation":[
				0.032269012182950974,
				3.2389495530082968e-09,
				-7.335378526818204e-09
			]
		},
		{
			"children":[
				2
			],
			"name":"LeftAnkle_joint",
			"rotation":[
				0.8620314002037048,
				-0.5068455934524536,
				0.002298971638083458,
				0.0020198202691972256
			],
			"scale":[
				1.0000003576278687,
				1.000000238418579,
				0.9999998807907104
			],
			"translation":[
				0.028968777507543564,
				0.010220805183053017,
				-3.435794496908784e-06
			]
		},
		{
			"children":[
				3
			],
			"name":"LeftKnee_joint",
			"rotation":[
				0.0026327192317694426,
				0.001441387110389769,
				0.16842584311962128,
				0.9857097864151001
			],
			"translation":[
				0.02971324697136879,
				0.009931630454957485,
				-1.6122025954246055e-06
			]
		},
		{
			"children":[
				4
			],
			"name":"LeftHip_joint",
			"rotation":[
				-0.40845564007759094,
				0.9127781391143799,
				-6.656999903498217e-05,
				2.489078360667918e-05
			],
			"scale":[
				0.9999999403953552,
				0.9999997615814209,
				1
			],
			"translation":[
				-0.09583141654729843,
				-0.006623590365052223,
				-0.03099999390542507
			]
		},
		{
			"name":"RightToe_joint",
			"rotation":[
				2.475444773608615e-07,
				-2.157431850946523e-07,
				0.05689215660095215,
				0.9983803629875183
			],
			"scale":[
				0.9999999403953552,
				0.9999998807907104,
				1
			],
			"translation":[
				-0.03226901963353157,
				1.672004223962631e-08,
				8.308536081358397e-10
			]
		},
		{
			"children":[
				6
			],
			"name":"RightAnkle_joint",
			"rotation":[
				0.8620374798774719,
				-0.5068435072898865,
				0.0007968673016875982,
				0.0007195044890977442
			],
			"scale":[
				1.0000001192092896,
				1.0000001192092896,
				0.9999999403953552
			],
			"translation":[
				-0.028968753293156624,
				-0.01022070087492466,
				1.6672165656927973e-06
			]
		},
		{
			"children":[
				7
			],
			"name":"RightKnee_joint",
			"rotation":[
				0.0008950840565375984,
				0.0004946321714669466,
				0.16842851042747498,
				0.9857133626937866
			],
			"scale":[
				0.9999999403953552,
				0.9999999403953552,
				1.0000001192092896
			],
			"translation":[
				-0.02971317246556282,
				-0.00993139948695898,
				1.4396284768736223e-06
			]
		},
		{
			"children":[
				8
			],
			"name":"RightHip_joint",
			"rotation":[
				-0.9127773642539978,
				-0.40845754742622375,
				1.91837789316196e-05,
				5.7349832786712795e-05
			],
			"translation":[
				-0.0958317443728447,
				-0.006623575463891029,
				0.03100000135600567
			]
		},
		{
			"name":"TailC_joint",
			"rotation":[
				-8.743096104415517e-15,
				4.371286621562831e-08,
				-0.004512251820415258,
				0.9999898076057434
			],
			"scale":[
				1.0000001192092896,
				1.000000238418579,
				1
			],
			"translation":[
				0.0796697586774826,
				0.00012614578008651733,
				-3.6136131864594745e-09
			]
		},
		{
			"children":[
				10
			],
			"name":"TailB_joint",
			"rotation":[
				-1,
				0,
				4.371138828673793e-08,
				5.573057511624405e-15
			],
			"translation":[
				0.09421064704656601,
				6.752088665962219e-09,
				-4.117815421977866e-09
			]
		},
		{
			"children":[
				11
			],
			"name":"TailA_joint",
			"rotation":[
				4.370868111891468e-08,
				9.950676248965135e-15,
				0.9999696612358093,
				0.007793033961206675
			],
			"scale":[
				0.9999998807907104,
				0.9999999403953552,
				1
			],
			"translation":[
				-0.10292905569076538,
				0.018032550811767578,
				4.499173034133719e-09
			]
		},
		{
			"children":[
				5,
				9,
				12
			],
			"name":"CenterHip_joint",
			"rotation":[
				-0.5,
				-0.5,
				0.5,
				0.5
			],
			"scale":[
				1,
				0.9999999403953552,
				1
			],
			"translation":[
				0,
				-1.6306400674181987e-16,
				0
			]
		},
		{
			"name":"LeftWing_joint",
			"rotation":[
				0.02033849060535431,
				0.6763210892677307,
				-0.7174751162528992,
				0.16554641723632812
			],
			"scale":[
				0.9999998807907104,
				0.9999997615814209,
				1.000000238418579
			],
			"translation":[
				-0.159999817609787,
				-6.146728992462158e-08,
				-4.5768126710754586e-07
			]
		},
		{
			"children":[
				14
			],
			"name":"LeftCollar_joint",
			"rotation":[
				-0.7068720459938049,
				-0.01819118671119213,
				-0.6998714208602905,
				0.10090125352144241
			],
			"scale":[
				1.000001072883606,
				0.9999999403953552,
				1.0000004768371582
			],
			"translation":[
				0.08058397471904755,
				0.01023584883660078,
				-0.026000002399086952
			]
		},
		{
			"name":"Jaw_joint",
			"rotation":[
				-0.9999995827674866,
				0.0009065826889127493,
				3.2648550529756903e-08,
				6.920169298707535e-11
			],
			"scale":[
				0.9999998211860657,
				1.0000001192092896,
				1
			],
			"translation":[
				0.036795131862163544,
				0.027173195034265518,
				1.6074587216863279e-09
			]
		},
		{
			"name":"Nose_joint",
			"rotation":[
				4.33574989875795e-19,
				-1.3552527156068805e-19,
				-1.1641532182693481e-10,
				1
			],
			"translation":[
				0.0795985609292984,
				-0.03156452253460884,
				3.4774016999250534e-09
			]
		},
		{
			"children":[
				16,
				17
			],
			"name":"Head_joint",
			"rotation":[
				2.822641842481488e-10,
				-2.870541671029514e-08,
				-0.003899042494595051,
				0.9999923706054688
			],
			"scale":[
				1,
				0.9999998807907104,
				1
			],
			"translation":[
				0.045860689133405685,
				0.00010658046085154638,
				4.6364254657760284e-09
			]
		},
		{
			"children":[
				18
			],
			"name":"Neck_joint",
			"rotation":[
				0.9999955892562866,
				-0.0029625650495290756,
				2.8692998199630892e-08,
				2.1450338727468932e-10
			],
			"scale":[
				0.9999997615814209,
				1.0000001192092896,
				1
			],
			"translation":[
				0.09145539999008179,
				1.5046680346131325e-08,
				-3.997683073464486e-09
			]
		},
		{
			"name":"RightWing_joint",
			"rotation":[
				0.13143981993198395,
				-0.02910025045275688,
				-0.9855628609657288,
				0.10267726331949234
			],
			"scale":[
				1.0000030994415283,
				1,
				1.0000003576278687
			],
			"translation":[
				0.15999996662139893,
				2.7939677238464355e-08,
				2.14395079467522e-09
			]
		},
		{
			"children":[
				20
			],
			"name":"RightCollar_joint",
			"rotation":[
				0.018191227689385414,
				-0.7068727612495422,
				0.10090122371912003,
				0.6998707056045532
			],
			"scale":[
				1,
				1.0000001192092896,
				1.0000001192092896
			],
			"translation":[
				0.08058785647153854,
				0.010236610658466816,
				0.025999994948506355
			]
		},
		{
			"children":[
				15,
				19,
				21
			],
			"name":"SpineB_joint",
			"rotation":[
				8.101287696238302e-11,
				-2.0475828877482977e-13,
				0.0021325466223061085,
				0.9999977350234985
			],
			"scale":[
				1.0000001192092896,
				1.0000001192092896,
				1
			],
			"translation":[
				0.11189012229442596,
				-1.601074473001063e-08,
				-4.890863714024363e-09
			]
		},
		{
			"children":[
				22
			],
			"name":"SpineA_joint",
			"rotation":[
				-0.49986037611961365,
				-0.500139594078064,
				0.4998604357242584,
				0.5001394748687744
			],
			"scale":[
				0.9999998807907104,
				0.9999997019767761,
				1
			],
			"translation":[
				-5.130477238030317e-17,
				-1.6306400674181987e-16,
				0
			]
		},
		{
			"children":[
				13,
				23
			],
			"name":"CenterRoot_joint",
			"rotation":[
				0.7071067690849304,
				0,
				0,
				0.7071067690849304
			],
			"translation":[
				-3.4575673148683726e-17,
				0,
				-0.028910649940371513
			]
		},
		{
			"children":[
				24
			],
			"name":"WorldRoot2_joint"
		},
		{
			"children":[
				1,
				25
			],
			"name":"WorldRoot1_joint"
		},
		{
			"children":[
				26
			],
			"name":"npc_custom_peterdactylAmber_mdl"
		},
		{
			"children":[
				27
			],
			"name":"npc_custom_peterdactylAmber_mdl (merge)",
			"rotation":[
				-0.7071067690849304,
				0,
				0,
				0.7071067690849304
			]
		},
		{
			"mesh":0,
			"name":"peterdactylAmber_geo",
			"skin":0
		},
		{
			"children":[
				29,
				28
			],
			"name":"Armature",
			"rotation":[
				0.7071068286895752,
				0,
				0,
				0.7071068286895752
			]
		}
	],
	"materials":[
		{
			"doubleSided":true,
			"extensions":{
				"KHR_materials_specular":{
					"specularColorFactor":[
						0.4000000059604645,
						0.4000000059604645,
						0.4000000059604645
					]
				}
			},
			"name":"peterdactylAmber_body_FGC_mat",
			"pbrMetallicRoughness":{
				"baseColorTexture":{
					"index":0
				},
				"metallicFactor":0
			}
		},
		{
			"doubleSided":true,
			"extensions":{
				"KHR_materials_specular":{
					"specularColorFactor":[
						0.4000000059604645,
						0.4000000059604645,
						0.4000000059604645
					]
				}
			},
			"name":"peterdactylAmber_leftPupil_FGCE_mat",
			"pbrMetallicRoughness":{
				"baseColorTexture":{
					"index":1
				},
				"metallicFactor":0
			}
		},
		{
			"doubleSided":true,
			"extensions":{
				"KHR_materials_specular":{
					"specularColorFactor":[
						0.4000000059604645,
						0.4000000059604645,
						0.4000000059604645
					]
				}
			},
			"name":"peterdactylAmber_rightPupil_FGCE_mat",
			"pbrMetallicRoughness":{
				"baseColorTexture":{
					"index":2
				},
				"metallicFactor":0
			}
		}
	],
	"meshes":[
		{
			"name":"peterdactylAmber_geo",
			"primitives":[
				{
					"attributes":{
						"POSITION":0,
						"NORMAL":1,
						"TEXCOORD_0":2,
						"JOINTS_0":3,
						"WEIGHTS_0":4
					},
					"indices":5,
					"material":0
				},
				{
					"attributes":{
						"POSITION":6,
						"NORMAL":7,
						"TEXCOORD_0":8,
						"JOINTS_0":9,
						"WEIGHTS_0":10
					},
					"indices":11,
					"material":1
				},
				{
					"attributes":{
						"POSITION":12,
						"NORMAL":13,
						"TEXCOORD_0":14,
						"JOINTS_0":15,
						"WEIGHTS_0":16
					},
					"indices":17,
					"material":2
				}
			]
		}
	],
	"textures":[
		{
			"sampler":0,
			"source":0
		},
		{
			"sampler":0,
			"source":1
		},
		{
			"sampler":0,
			"source":1
		}
	],
	"images":[
		{
			"mimeType":"image/png",
			"name":"npc_custom_peterdactylGreen_col",
			"uri":"npc_custom_peterdactylGreen_col.png"
		},
		{
			"mimeType":"image/png",
			"name":"npc_shared_pupil_col_Edited",
			"uri":"npc_shared_pupil_col_Edited.png"
		}
	],
	"skins":[
		{
			"inverseBindMatrices":18,
			"joints":[
				28,
				27,
				26,
				1,
				0,
				25,
				24,
				13,
				5,
				4,
				3,
				2,
				9,
				8,
				7,
				6,
				12,
				11,
				10,
				23,
				22,
				15,
				14,
				19,
				18,
				16,
				17,
				21,
				20
			],
			"name":"Armature"
		}
	],
	"accessors":[
		{
			"bufferView":0,
			"componentType":5126,
			"count":845,
			"max":[
				0.33563700318336487,
				0.11723364144563675,
				0.4190513491630554
			],
			"min":[
				-0.33563700318336487,
				-0.09793056547641754,
				-0.3568562865257263
			],
			"type":"VEC3"
		},
		{
			"bufferView":1,
			"componentType":5126,
			"count":845,
			"type":"VEC3"
		},
		{
			"bufferView":2,
			"componentType":5126,
			"count":845,
			"type":"VEC2"
		},
		{
			"bufferView":3,
			"componentType":5121,
			"count":845,
			"type":"VEC4"
		},
		{
			"bufferView":4,
			"componentType":5126,
			"count":845,
			"type":"VEC4"
		},
		{
			"bufferView":5,
			"componentType":5123,
			"count":3402,
			"type":"SCALAR"
		},
		{
			"bufferView":6,
			"componentType":5126,
			"count":31,
			"max":[
				0.058886293321847916,
				0.05441850796341896,
				0.29889562726020813
			],
			"min":[
				0.017543034628033638,
				0.006358359009027481,
				0.2734353244304657
			],
			"type":"VEC3"
		},
		{
			"bufferView":7,
			"componentType":5126,
			"count":31,
			"type":"VEC3"
		},
		{
			"bufferView":8,
			"componentType":5126,
			"count":31,
			"type":"VEC2"
		},
		{
			"bufferView":9,
			"componentType":5121,
			"count":31,
			"type":"VEC4"
		},
		{
			"bufferView":10,
			"componentType":5126,
			"count":31,
			"type":"VEC4"
		},
		{
			"bufferView":11,
			"componentType":5123,
			"count":120,
			"type":"SCALAR"
		},
		{
			"bufferView":12,
			"componentType":5126,
			"count":31,
			"max":[
				-0.017543034628033638,
				0.05441850796341896,
				0.29889562726020813
			],
			"min":[
				-0.058886293321847916,
				0.006358359009027481,
				0.2734353244304657
			],
			"type":"VEC3"
		},
		{
			"bufferView":13,
			"componentType":5126,
			"count":31,
			"type":"VEC3"
		},
		{
			"bufferView":14,
			"componentType":5126,
			"count":31,
			"type":"VEC2"
		},
		{
			"bufferView":15,
			"componentType":5121,
			"count":31,
			"type":"VEC4"
		},
		{
			"bufferView":16,
			"componentType":5126,
			"count":31,
			"type":"VEC4"
		},
		{
			"bufferView":17,
			"componentType":5123,
			"count":120,
			"type":"SCALAR"
		},
		{
			"bufferView":18,
			"componentType":5126,
			"count":29,
			"type":"MAT4"
		}
	],
	"bufferViews":[
		{
			"buffer":0,
			"byteLength":10140,
			"byteOffset":0,
			"target":34962
		},
		{
			"buffer":0,
			"byteLength":10140,
			"byteOffset":10140,
			"target":34962
		},
		{
			"buffer":0,
			"byteLength":6760,
			"byteOffset":20280,
			"target":34962
		},
		{
			"buffer":0,
			"byteLength":3380,
			"byteOffset":27040,
			"target":34962
		},
		{
			"buffer":0,
			"byteLength":13520,
			"byteOffset":30420,
			"target":34962
		},
		{
			"buffer":0,
			"byteLength":6804,
			"byteOffset":43940,
			"target":34963
		},
		{
			"buffer":0,
			"byteLength":372,
			"byteOffset":50744,
			"target":34962
		},
		{
			"buffer":0,
			"byteLength":372,
			"byteOffset":51116,
			"target":34962
		},
		{
			"buffer":0,
			"byteLength":248,
			"byteOffset":51488,
			"target":34962
		},
		{
			"buffer":0,
			"byteLength":124,
			"byteOffset":51736,
			"target":34962
		},
		{
			"buffer":0,
			"byteLength":496,
			"byteOffset":51860,
			"target":34962
		},
		{
			"buffer":0,
			"byteLength":240,
			"byteOffset":52356,
			"target":34963
		},
		{
			"buffer":0,
			"byteLength":372,
			"byteOffset":52596,
			"target":34962
		},
		{
			"buffer":0,
			"byteLength":372,
			"byteOffset":52968,
			"target":34962
		},
		{
			"buffer":0,
			"byteLength":248,
			"byteOffset":53340,
			"target":34962
		},
		{
			"buffer":0,
			"byteLength":124,
			"byteOffset":53588,
			"target":34962
		},
		{
			"buffer":0,
			"byteLength":496,
			"byteOffset":53712,
			"target":34962
		},
		{
			"buffer":0,
			"byteLength":240,
			"byteOffset":54208,
			"target":34963
		},
		{
			"buffer":0,
			"byteLength":1856,
			"byteOffset":54448
		}
	],
	"samplers":[
		{
			"magFilter":9729,
			"minFilter":9987
		}
	],
	"buffers":[
		{
			"byteLength":56304,
			"uri":"Peterdactyl.bin"
		}
	]
}
