{
	"asset":{
		"generator":"Khronos glTF Blender I/O v5.0.21",
		"version":"2.0"
	},
	"extensionsUsed":[
		"KHR_materials_specular"
	],
	"scene":0,
	"scenes":[
		{
			"name":"Scene",
			"nodes":[
				40
			]
		}
	],
	"nodes":[
		{
			"name":"PupilsAnim_joint",
			"rotation":[
				-3.552713678800501e-15,
				0,
				0,
				1
			],
			"translation":[
				0,
				8.881784197001252e-16,
				0.10854047536849976
			]
		},
		{
			"children":[
				0
			],
			"name":"FacialAnim_joint",
			"rotation":[
				-3.552713678800501e-15,
				0,
				0,
				1
			]
		},
		{
			"name":"LeftToe_joint",
			"rotation":[
				-0.01487624179571867,
				-0.005960723850876093,
				-0.3719147741794586,
				0.9281285405158997
			],
			"scale":[
				0.9999999403953552,
				0.9999999403953552,
				0.9999998211860657
			],
			"translation":[
				0.1981159895658493,
				-1.949956640601158e-08,
				1.578428054926917e-08
			]
		},
		{
			"children":[
				2
			],
			"name":"LeftAnkle_joint",
			"rotation":[
				0.024982918053865433,
				0.01133920717984438,
				-0.44087496399879456,
				0.8971491456031799
			],
			"scale":[
				1.0000001192092896,
				1,
				1.000000238418579
			],
			"translation":[
				0.22199992835521698,
				2.6833731681108475e-08,
				2.0649167709052563e-08
			]
		},
		{
			"children":[
				3
			],
			"name":"LeftKnee_joint",
			"rotation":[
				3.4358880185436647e-09,
				2.738573812166578e-07,
				0.03085426054894924,
				0.9995238780975342
			],
			"scale":[
				0.9999999403953552,
				1,
				1
			],
			"translation":[
				0.30749985575675964,
				-8.601637091487646e-08,
				-5.4420524975284934e-08
			]
		},
		{
			"children":[
				4
			],
			"name":"LeftHip_joint",
			"rotation":[
				-0.9994825720787048,
				0.01905192621052265,
				0.02591448463499546,
				0.00018383702263236046
			],
			"scale":[
				1.000000238418579,
				0.9999998211860657,
				1
			],
			"translation":[
				0.1050000712275505,
				-0.006999987177550793,
				-0.10600000619888306
			]
		},
		{
			"name":"RightToe_joint",
			"rotation":[
				0.00033624202478677034,
				0.00013473676517605782,
				-0.37195923924446106,
				0.9282490015029907
			],
			"scale":[
				0.9999999403953552,
				0.9999999403953552,
				0.9999998807907104
			],
			"translation":[
				-0.1980000138282776,
				6.097252480685711e-09,
				4.05534592573531e-08
			]
		},
		{
			"children":[
				6
			],
			"name":"RightAnkle_joint",
			"rotation":[
				0.01027704868465662,
				0.018566392362117767,
				-0.440643310546875,
				0.8974314332008362
			],
			"scale":[
				0.9999998211860657,
				0.9999997615814209,
				0.9999997019767761
			],
			"translation":[
				-0.22199997305870056,
				2.0547304302453995e-08,
				-1.231819624081254e-08
			]
		},
		{
			"children":[
				7
			],
			"name":"RightKnee_joint",
			"rotation":[
				2.599365643618512e-06,
				-8.41772198327817e-05,
				0.03086373768746853,
				0.9995236396789551
			],
			"scale":[
				1,
				1,
				1.000000238418579
			],
			"translation":[
				-0.30750009417533875,
				-9.74978320300579e-10,
				-3.9937731344252825e-08
			]
		},
		{
			"children":[
				8
			],
			"name":"RightHip_joint",
			"rotation":[
				0.019050976261496544,
				0.9994834661483765,
				-0.0001785231870599091,
				0.025881165638566017
			],
			"scale":[
				0.9999998807907104,
				0.9999997615814209,
				1
			],
			"translation":[
				0.1050000861287117,
				-0.0069999839179217815,
				0.10599999129772186
			]
		},
		{
			"children":[
				5,
				9
			],
			"name":"CenterHip_joint",
			"rotation":[
				0.5,
				-0.5,
				-0.5,
				0.5
			],
			"scale":[
				1,
				0.9999999403953552,
				1
			],
			"translation":[
				-2.2646464703512947e-09,
				-6.660318963014333e-10,
				2.7679192271534703e-10
			]
		},
		{
			"name":"Nose_joint",
			"rotation":[
				-0.49545711278915405,
				-0.50450199842453,
				-0.49545714259147644,
				0.50450199842453
			],
			"scale":[
				1,
				0.9999999403953552,
				0.9999999403953552
			],
			"translation":[
				0.1966131627559662,
				0.1868189424276352,
				0.0007627806626260281
			]
		},
		{
			"children":[
				11
			],
			"name":"Head_joint",
			"rotation":[
				3.951121652079337e-10,
				-1.4518622415415905e-10,
				-0.00904490053653717,
				0.9999591112136841
			],
			"scale":[
				0.9999999403953552,
				0.9999997615814209,
				1
			],
			"translation":[
				0.29561087489128113,
				-0.005366529803723097,
				1.3271606036369121e-08
			]
		},
		{
			"name":"LeftIndexFinger_joint",
			"rotation":[
				9.055604976992981e-08,
				-0.8433279991149902,
				-1.1043422176726381e-07,
				0.5373992323875427
			],
			"scale":[
				1,
				0.9999999403953552,
				0.9999999403953552
			],
			"translation":[
				0.13572248816490173,
				0.04991668462753296,
				0.0008655153214931488
			]
		},
		{
			"name":"LeftMidFinger_joint",
			"rotation":[
				0.029785029590129852,
				-0.8514532446861267,
				-0.041733331978321075,
				0.5219181776046753
			],
			"scale":[
				1.0000001192092896,
				1.0000003576278687,
				1.0000003576278687
			],
			"translation":[
				0.13719475269317627,
				0.003396764397621155,
				-0.00146576389670372
			]
		},
		{
			"name":"LeftPinkyFinger_joint",
			"rotation":[
				0.029785092920064926,
				-0.8514531254768372,
				-0.04173329845070839,
				0.5219183564186096
			],
			"scale":[
				1,
				1.000000238418579,
				1.000000238418579
			],
			"translation":[
				0.1369810700416565,
				-0.04501822590827942,
				-0.003562226891517639
			]
		},
		{
			"name":"LeftThumb_joint",
			"rotation":[
				0.08875526487827301,
				-0.14572013914585114,
				0.03007540851831436,
				0.9848774671554565
			],
			"scale":[
				0.9999999403953552,
				1.0000001192092896,
				1
			],
			"translation":[
				0.05937362462282181,
				0.10219229757785797,
				0.015469390898942947
			]
		},
		{
			"name":"LeftWeapon_joint",
			"rotation":[
				0.05149533972144127,
				0.708388090133667,
				0.010654934681952,
				0.7038615345954895
			],
			"scale":[
				1.0000001192092896,
				1.0000001192092896,
				1.0000001192092896
			],
			"translation":[
				0.11218828707933426,
				-0.00032867491245269775,
				0.027975358068943024
			]
		},
		{
			"children":[
				13,
				14,
				15,
				16,
				17
			],
			"name":"LeftHand_joint",
			"rotation":[
				-0.1292550414800644,
				0.00623958557844162,
				-0.009432240389287472,
				0.9915469288825989
			],
			"scale":[
				0.9999998211860657,
				0.9999999403953552,
				1
			],
			"translation":[
				0.22649993002414703,
				1.0803341865539551e-07,
				3.725290298461914e-08
			]
		},
		{
			"children":[
				18
			],
			"name":"LeftElbow_joint",
			"rotation":[
				0.706186056137085,
				-0.036073826253414154,
				0.036073699593544006,
				0.706186056137085
			],
			"scale":[
				1.000000238418579,
				0.9999998211860657,
				1
			],
			"translation":[
				0.29550009965896606,
				0,
				4.0978193283081055e-08
			]
		},
		{
			"children":[
				19
			],
			"name":"LeftShoulder_joint",
			"rotation":[
				0.04229370504617691,
				0.7311215400695801,
				0.5655214190483093,
				0.37928617000579834
			],
			"scale":[
				1,
				1,
				1.0000001192092896
			],
			"translation":[
				-0.17400000989437103,
				-4.361299943411723e-08,
				-8.162169251590967e-08
			]
		},
		{
			"children":[
				20
			],
			"name":"LeftCollar_joint",
			"rotation":[
				0.006395683623850346,
				0.7070778012275696,
				-0.006395685952156782,
				0.7070779204368591
			],
			"scale":[
				0.9999998211860657,
				0.9999996423721313,
				0.9999998807907104
			],
			"translation":[
				0.15900009870529175,
				-0.033000003546476364,
				0.054999999701976776
			]
		},
		{
			"name":"RightIndexFinger_joint",
			"rotation":[
				-1.6763806343078613e-08,
				5.774200317887335e-08,
				-7.264316792543468e-08,
				1
			],
			"scale":[
				0.9999999403953552,
				0.9999999403953552,
				1
			],
			"translation":[
				-0.13572239875793457,
				-0.04991665482521057,
				-0.0008653402328491211
			]
		},
		{
			"name":"RightMidFinger_joint",
			"rotation":[
				6.51925802230835e-08,
				-1.1175870895385742e-07,
				5.960464477539063e-08,
				1
			],
			"scale":[
				1,
				0.9999998807907104,
				1
			],
			"translation":[
				-0.13719472289085388,
				-0.0033967941999435425,
				0.0014659613370895386
			]
		},
		{
			"name":"RightPinkyFinger_joint",
			"rotation":[
				6.146728992462158e-08,
				-1.1175870895385742e-07,
				6.146728992462158e-08,
				1
			],
			"scale":[
				1,
				0.9999998807907104,
				1
			],
			"translation":[
				-0.1369810700416565,
				0.045018285512924194,
				0.003562565892934799
			]
		},
		{
			"name":"RightThumb_joint",
			"rotation":[
				0.08875520527362823,
				-0.14572016894817352,
				0.03007550910115242,
				0.9848774671554565
			],
			"scale":[
				1,
				0.9999998807907104,
				1
			],
			"translation":[
				-0.05937356501817703,
				-0.10219226777553558,
				-0.015469104051589966
			]
		},
		{
			"name":"RightWeapon_joint",
			"rotation":[
				-0.7038680911064148,
				-0.010575738735496998,
				0.7083884477615356,
				0.05141633376479149
			],
			"scale":[
				1.0000211000442505,
				0.9999999403953552,
				1.000009298324585
			],
			"translation":[
				-0.11218763142824173,
				0.0002643167972564697,
				-0.02797861024737358
			]
		},
		{
			"children":[
				22,
				23,
				24,
				25,
				26
			],
			"name":"RightHand_joint",
			"rotation":[
				1.978517275347258e-06,
				2.705091901589185e-06,
				0.019804811105132103,
				0.999803900718689
			],
			"scale":[
				0.9999997615814209,
				1,
				0.9999998211860657
			],
			"translation":[
				-0.22650009393692017,
				4.470348358154297e-08,
				-1.4901161193847656e-08
			]
		},
		{
			"children":[
				27
			],
			"name":"RightElbow_joint",
			"rotation":[
				1.0281801223754883e-06,
				-5.651265382766724e-06,
				7.92182981967926e-06,
				1
			],
			"scale":[
				1,
				0.9999999403953552,
				1
			],
			"translation":[
				-0.2954999804496765,
				-3.129243850708008e-07,
				-5.031004548072815e-06
			]
		},
		{
			"children":[
				28
			],
			"name":"RightShoulder_joint",
			"rotation":[
				0.2840891182422638,
				0.9167082905769348,
				0.006972300820052624,
				0.2808747887611389
			],
			"scale":[
				1.0000001192092896,
				1.0000001192092896,
				0.9999999403953552
			],
			"translation":[
				0.1740000694990158,
				-4.033336153952405e-08,
				-8.285860531032085e-08
			]
		},
		{
			"children":[
				29
			],
			"name":"RightCollar_joint",
			"rotation":[
				-0.7070778012275696,
				0.006395681761205196,
				0.7070779204368591,
				0.006395682692527771
			],
			"scale":[
				0.9999997615814209,
				0.9999996423721313,
				0.9999998807907104
			],
			"translation":[
				0.15900011360645294,
				-0.032999999821186066,
				-0.054999981075525284
			]
		},
		{
			"children":[
				12,
				21,
				30
			],
			"name":"SpineB_joint",
			"rotation":[
				-1.8839005363670703e-18,
				0,
				-1.7763552512134744e-15,
				1
			],
			"scale":[
				1,
				0.9999999403953552,
				1
			],
			"translation":[
				0.20610764622688293,
				1.490615630928005e-08,
				9.037400161560072e-09
			]
		},
		{
			"children":[
				31
			],
			"name":"SpineA_joint",
			"rotation":[
				0.5002480745315552,
				0.4997518062591553,
				0.49975183606147766,
				0.5002480745315552
			],
			"scale":[
				1,
				0.9999999403953552,
				1.0000001192092896
			],
			"translation":[
				2.2646464703512947e-09,
				-6.660318963014333e-10,
				2.7679192271534703e-10
			]
		},
		{
			"children":[
				10,
				32
			],
			"name":"CenterRoot_joint",
			"rotation":[
				-1.7763568394002505e-15,
				0,
				0,
				1
			],
			"scale":[
				1,
				0.9999999403953552,
				1
			],
			"translation":[
				-4.149081042539843e-17,
				0.7684822082519531,
				0.00882191676646471
			]
		},
		{
			"children":[
				33
			],
			"name":"WorldRoot2_joint",
			"rotation":[
				-3.552713678800501e-15,
				0,
				0,
				1
			]
		},
		{
			"children":[
				1,
				34
			],
			"name":"WorldRoot1_joint",
			"rotation":[
				-3.552713678800501e-15,
				0,
				0,
				1
			]
		},
		{
			"children":[
				35
			],
			"name":"npc_iconic_death_mdl",
			"rotation":[
				-3.552713678800501e-15,
				0,
				0,
				1
			]
		},
		{
			"children":[
				36
			],
			"name":"npc_iconic_death_mdl (merge)",
			"rotation":[
				-0.7071067690849304,
				0,
				0,
				0.7071067690849304
			]
		},
		{
			"mesh":0,
			"name":"death_geo",
			"skin":0
		},
		{
			"mesh":1,
			"name":"death_geo1",
			"skin":0
		},
		{
			"children":[
				38,
				39,
				37
			],
			"name":"Armature",
			"rotation":[
				0.7071068286895752,
				0,
				0,
				0.7071068286895752
			],
			"scale":[
				1.7666001319885254,
				1.7666001319885254,
				1.7666001319885254
			]
		}
	],
	"materials":[
		{
			"doubleSided":true,
			"extensions":{
				"KHR_materials_specular":{
					"specularColorFactor":[
						0.4000000059604645,
						0.4000000059604645,
						0.4000000059604645
					]
				}
			},
			"name":"death_body_FGC_mat",
			"pbrMetallicRoughness":{
				"baseColorTexture":{
					"index":0
				},
				"metallicFactor":0
			}
		}
	],
	"meshes":[
		{
			"name":"death_geo",
			"primitives":[
				{
					"attributes":{
						"POSITION":0,
						"NORMAL":1,
						"TEXCOORD_0":2,
						"JOINTS_0":3,
						"WEIGHTS_0":4
					},
					"indices":5,
					"material":0
				}
			]
		},
		{
			"name":"death_geo1",
			"primitives":[
				{
					"attributes":{
						"POSITION":7,
						"NORMAL":8,
						"TEXCOORD_0":9,
						"JOINTS_0":10,
						"WEIGHTS_0":11
					},
					"indices":12,
					"material":0
				}
			]
		}
	],
	"textures":[
		{
			"sampler":0,
			"source":0
		}
	],
	"images":[
		{
			"mimeType":"image/png",
			"name":"npc_iconic_death_col",
			"uri":"npc_iconic_death_col.png"
		}
	],
	"skins":[
		{
			"inverseBindMatrices":6,
			"joints":[
				37,
				36,
				35,
				1,
				0,
				34,
				33,
				10,
				5,
				4,
				3,
				2,
				9,
				8,
				7,
				6,
				32,
				31,
				12,
				11,
				21,
				20,
				19,
				18,
				13,
				14,
				15,
				16,
				17,
				30,
				29,
				28,
				27,
				22,
				23,
				24,
				25,
				26
			],
			"name":"Armature"
		}
	],
	"accessors":[
		{
			"bufferView":0,
			"componentType":5126,
			"count":1947,
			"max":[
				1.2975738048553467,
				3.0828983783721924,
				0.7414559721946716
			],
			"min":[
				-1.2975738048553467,
				-0.0012841899879276752,
				-0.572115421295166
			],
			"type":"VEC3"
		},
		{
			"bufferView":1,
			"componentType":5126,
			"count":1947,
			"type":"VEC3"
		},
		{
			"bufferView":2,
			"componentType":5126,
			"count":1947,
			"type":"VEC2"
		},
		{
			"bufferView":3,
			"componentType":5121,
			"count":1947,
			"type":"VEC4"
		},
		{
			"bufferView":4,
			"componentType":5126,
			"count":1947,
			"type":"VEC4"
		},
		{
			"bufferView":5,
			"componentType":5123,
			"count":7884,
			"type":"SCALAR"
		},
		{
			"bufferView":6,
			"componentType":5126,
			"count":38,
			"type":"MAT4"
		},
		{
			"bufferView":7,
			"componentType":5126,
			"count":70,
			"max":[
				-0.17191773653030396,
				1.6106125116348267,
				2.1857433319091797
			],
			"min":[
				-2.11381196975708,
				1.170583963394165,
				-0.8911160826683044
			],
			"type":"VEC3"
		},
		{
			"bufferView":8,
			"componentType":5126,
			"count":70,
			"type":"VEC3"
		},
		{
			"bufferView":9,
			"componentType":5126,
			"count":70,
			"type":"VEC2"
		},
		{
			"bufferView":10,
			"componentType":5121,
			"count":70,
			"type":"VEC4"
		},
		{
			"bufferView":11,
			"componentType":5126,
			"count":70,
			"type":"VEC4"
		},
		{
			"bufferView":12,
			"componentType":5123,
			"count":204,
			"type":"SCALAR"
		}
	],
	"bufferViews":[
		{
			"buffer":0,
			"byteLength":23364,
			"byteOffset":0,
			"target":34962
		},
		{
			"buffer":0,
			"byteLength":23364,
			"byteOffset":23364,
			"target":34962
		},
		{
			"buffer":0,
			"byteLength":15576,
			"byteOffset":46728,
			"target":34962
		},
		{
			"buffer":0,
			"byteLength":7788,
			"byteOffset":62304,
			"target":34962
		},
		{
			"buffer":0,
			"byteLength":31152,
			"byteOffset":70092,
			"target":34962
		},
		{
			"buffer":0,
			"byteLength":15768,
			"byteOffset":101244,
			"target":34963
		},
		{
			"buffer":0,
			"byteLength":2432,
			"byteOffset":117012
		},
		{
			"buffer":0,
			"byteLength":840,
			"byteOffset":119444,
			"target":34962
		},
		{
			"buffer":0,
			"byteLength":840,
			"byteOffset":120284,
			"target":34962
		},
		{
			"buffer":0,
			"byteLength":560,
			"byteOffset":121124,
			"target":34962
		},
		{
			"buffer":0,
			"byteLength":280,
			"byteOffset":121684,
			"target":34962
		},
		{
			"buffer":0,
			"byteLength":1120,
			"byteOffset":121964,
			"target":34962
		},
		{
			"buffer":0,
			"byteLength":408,
			"byteOffset":123084,
			"target":34963
		}
	],
	"samplers":[
		{
			"magFilter":9729,
			"minFilter":9987
		}
	],
	"buffers":[
		{
			"byteLength":123492,
			"uri":"Death.bin"
		}
	]
}
