{
	"asset":{
		"generator":"Khronos glTF Blender I/O v5.0.21",
		"version":"2.0"
	},
	"extensionsUsed":[
		"KHR_materials_specular"
	],
	"scene":0,
	"scenes":[
		{
			"name":"Scene",
			"nodes":[
				54
			]
		}
	],
	"nodes":[
		{
			"name":"iraqLobster_geo2"
		},
		{
			"name":"PupilsAnim_joint",
			"rotation":[
				1.7763568394002505e-15,
				0,
				0,
				1
			],
			"scale":[
				0.8268964886665344,
				0.997100293636322,
				1
			],
			"translation":[
				0,
				-5.944190561990581e-08,
				0.10854046791791916
			]
		},
		{
			"children":[
				1
			],
			"name":"FacialAnim_joint",
			"rotation":[
				-1.781685947187901e-15,
				0,
				0,
				1
			],
			"scale":[
				0.8267879486083984,
				0.9970089197158813,
				1
			],
			"translation":[
				0,
				0.008973360061645508,
				-5.551115123125783e-17
			]
		},
		{
			"name":"LeftAnkle_joint",
			"rotation":[
				0.025722188875079155,
				0.15188774466514587,
				-0.9091601371765137,
				0.38690611720085144
			],
			"scale":[
				1.0000001192092896,
				1,
				0.9999999403953552
			],
			"translation":[
				0.16653870046138763,
				4.889443516731262e-08,
				3.166496753692627e-08
			]
		},
		{
			"children":[
				3
			],
			"name":"LeftKnee_joint",
			"rotation":[
				1.1357438012282728e-07,
				1.4755025290469348e-07,
				0.8446113467216492,
				0.535379946231842
			],
			"scale":[
				1,
				0.9999998807907104,
				1.0000001192092896
			],
			"translation":[
				0.18495674431324005,
				2.3283064365386963e-10,
				-5.960464477539063e-08
			]
		},
		{
			"children":[
				4
			],
			"name":"LeftHip_joint",
			"rotation":[
				0.641657829284668,
				0.5040885210037231,
				-0.45150214433670044,
				0.3609928488731384
			],
			"scale":[
				1.0000001192092896,
				0.9999999403953552,
				0.9999998807907104
			],
			"translation":[
				-0.0008399274083785713,
				0.043902114033699036,
				-0.09200000017881393
			]
		},
		{
			"name":"RightAnkle_joint",
			"rotation":[
				0.025405289605259895,
				0.1520354449748993,
				-0.9050750732421875,
				0.39633187651634216
			],
			"scale":[
				0.9999996423721313,
				0.9999998211860657,
				0.9999996423721313
			],
			"translation":[
				-0.1673009991645813,
				5.122274160385132e-09,
				8.149072527885437e-09
			]
		},
		{
			"children":[
				6
			],
			"name":"RightKnee_joint",
			"rotation":[
				4.969073330585161e-08,
				5.522487356302008e-08,
				0.8434070348739624,
				0.5372751951217651
			],
			"scale":[
				1,
				0.9999998807907104,
				1.0000001192092896
			],
			"translation":[
				-0.18315327167510986,
				-7.275957614183426e-09,
				7.450580596923828e-09
			]
		},
		{
			"children":[
				7
			],
			"name":"RightHip_joint",
			"rotation":[
				-0.5066224932670593,
				0.6396353244781494,
				0.35918280482292175,
				0.45297691226005554
			],
			"scale":[
				0.9999999403953552,
				1,
				0.9999998807907104
			],
			"translation":[
				-0.0009306384599767625,
				0.04401887580752373,
				0.09200000017881393
			]
		},
		{
			"name":"TailC_joint",
			"rotation":[
				-2.6608876879663512e-08,
				-3.775008750039888e-09,
				0.1602257639169693,
				0.9870803952217102
			],
			"scale":[
				1,
				1,
				1.0000001192092896
			],
			"translation":[
				0.14856114983558655,
				-4.0978193283081055e-08,
				2.52398955069566e-08
			]
		},
		{
			"children":[
				9
			],
			"name":"TailB_joint",
			"rotation":[
				-2.211258909312619e-08,
				3.090462641353042e-08,
				0.15955398976802826,
				0.9871891736984253
			],
			"scale":[
				1.0000001192092896,
				1,
				1
			],
			"translation":[
				0.1519860178232193,
				4.0978193283081055e-08,
				1.6305719441334077e-08
			]
		},
		{
			"children":[
				10
			],
			"name":"TailA_joint",
			"rotation":[
				0.876743495464325,
				-0.4809582233428955,
				-7.66474030911013e-08,
				9.364601538663919e-08
			],
			"scale":[
				1.0000001192092896,
				0.9999999403953552,
				1
			],
			"translation":[
				0.014475999400019646,
				-0.018997741863131523,
				-4.084110383217876e-09
			]
		},
		{
			"children":[
				5,
				8,
				11
			],
			"name":"CenterHip_joint",
			"rotation":[
				0.4999999403953552,
				-0.5000000596046448,
				-0.5000000596046448,
				0.4999999403953552
			],
			"scale":[
				0.9999999403953552,
				0.9999997615814209,
				0.9999999403953552
			],
			"translation":[
				-4.149081042539843e-17,
				-1.4098129774708923e-08,
				4.454872026826706e-10
			]
		},
		{
			"name":"LeftBottomLegB_joint",
			"rotation":[
				-2.0993744520581004e-09,
				-0.0609179362654686,
				-6.403092811524402e-08,
				0.9981427788734436
			],
			"scale":[
				0.9999999403953552,
				1,
				1.000000238418579
			],
			"translation":[
				0.18722322583198547,
				-2.0489096641540527e-08,
				1.862645149230957e-08
			]
		},
		{
			"children":[
				13
			],
			"name":"LeftBottomLegA_joint",
			"rotation":[
				0.4210492968559265,
				0.531063437461853,
				-0.4143471121788025,
				0.6074583530426025
			],
			"scale":[
				0.9999999403953552,
				0.9999998211860657,
				1
			],
			"translation":[
				0.07910322397947311,
				-0.028138689696788788,
				-0.085395947098732
			]
		},
		{
			"name":"Nose_joint",
			"rotation":[
				3.2335787693293927e-15,
				-3.6146965420869037e-09,
				2.872702499734066e-15,
				1
			],
			"scale":[
				0.9999999403953552,
				0.9999997615814209,
				0.9999999403953552
			],
			"translation":[
				0.22447475790977478,
				0.0027478262782096863,
				-6.333105062594768e-08
			]
		},
		{
			"name":"RightBottomLegB_joint",
			"rotation":[
				-5.7616162507656554e-08,
				-0.060917582362890244,
				-1.1511569653066545e-07,
				0.9981428384780884
			],
			"scale":[
				1.0000001192092896,
				1.0000001192092896,
				1.000000238418579
			],
			"translation":[
				-0.1872231513261795,
				-9.313225746154785e-09,
				4.842877388000488e-08
			]
		},
		{
			"children":[
				16
			],
			"name":"RightBottomLegA_joint",
			"rotation":[
				-0.5310631990432739,
				0.42104947566986084,
				0.6074585914611816,
				0.4143470227718353
			],
			"scale":[
				0.9999999403953552,
				1.0000001192092896,
				0.9999999403953552
			],
			"translation":[
				0.07910341769456863,
				-0.02813860774040222,
				0.08539587259292603
			]
		},
		{
			"name":"BeardB_joint",
			"rotation":[
				-1.1092170737470042e-08,
				-2.2879481775817112e-07,
				-0.23734883964061737,
				0.9714244604110718
			],
			"scale":[
				1.0000001192092896,
				1,
				1
			],
			"translation":[
				0.0881018340587616,
				7.450580596923828e-09,
				1.663287108044642e-08
			]
		},
		{
			"children":[
				18
			],
			"name":"BeardA_joint",
			"rotation":[
				3.489920175070438e-08,
				3.830881722954871e-10,
				0.9999985694885254,
				0.0017126899911090732
			],
			"scale":[
				0.9999998807907104,
				0.9999998807907104,
				1
			],
			"translation":[
				-0.005966510623693466,
				-0.06411192566156387,
				1.5428739397194136e-09
			]
		},
		{
			"name":"FlapE_joint",
			"rotation":[
				-0.0003363348951097578,
				0.008279141038656235,
				-0.004927373491227627,
				0.9999535083770752
			],
			"scale":[
				0.9999998807907104,
				0.9999998211860657,
				0.9999998807907104
			],
			"translation":[
				0.023796599358320236,
				3.725290298461914e-09,
				-4.6566128730773926e-09
			]
		},
		{
			"children":[
				20
			],
			"name":"FlapD_joint",
			"rotation":[
				-0.0008480878896079957,
				-0.08403734117746353,
				-0.010054139420390129,
				0.9964115023612976
			],
			"translation":[
				0.030562924221158028,
				3.4458935260772705e-08,
				-1.6763806343078613e-08
			]
		},
		{
			"children":[
				21
			],
			"name":"FlapC_joint",
			"rotation":[
				0.011108209379017353,
				-0.04478337615728378,
				-0.03001263737678528,
				0.9984840154647827
			],
			"scale":[
				1.000000238418579,
				1.000000238418579,
				1.0000001192092896
			],
			"translation":[
				0.050203531980514526,
				3.329478204250336e-08,
				-5.029141902923584e-08
			]
		},
		{
			"children":[
				22
			],
			"name":"FlapB_joint",
			"rotation":[
				-0.019393902271986008,
				-0.1401415914297104,
				-0.036573268473148346,
				0.9892656803131104
			],
			"scale":[
				0.9999998807907104,
				0.9999998807907104,
				0.9999998211860657
			],
			"translation":[
				0.05299708992242813,
				2.60770320892334e-08,
				-8.009374141693115e-08
			]
		},
		{
			"children":[
				23
			],
			"name":"FlapA_joint",
			"rotation":[
				-0.24529144167900085,
				0.17183303833007812,
				0.9501348733901978,
				0.08688675612211227
			],
			"scale":[
				0.9999993443489075,
				0.9999995827674866,
				0.9999991059303284
			],
			"translation":[
				0.043829914182424545,
				-0.029993148520588875,
				-0.03610147908329964
			]
		},
		{
			"name":"LeftAntennaB_joint",
			"rotation":[
				-0.00768760172650218,
				-0.04921421781182289,
				-0.15414507687091827,
				0.9867919087409973
			],
			"scale":[
				0.9999999403953552,
				0.9999998211860657,
				0.9999999403953552
			],
			"translation":[
				0.1548362523317337,
				6.047978118317587e-09,
				6.635673344135284e-08
			]
		},
		{
			"children":[
				25
			],
			"name":"LeftAntennaA_joint",
			"rotation":[
				-0.9983416795730591,
				0.0005446477443911135,
				0.057563964277505875,
				3.140812259516679e-05
			],
			"scale":[
				0.9999999403953552,
				0.9999998807907104,
				1
			],
			"translation":[
				0.08192475885152817,
				-0.0829797238111496,
				-0.03190559148788452
			]
		},
		{
			"name":"LeftMidLegB_joint",
			"rotation":[
				-3.5035163659102864e-10,
				-0.07941603660583496,
				-1.284626183206683e-08,
				0.996841549873352
			],
			"scale":[
				0.9999999403953552,
				0.9999998807907104,
				0.9999997615814209
			],
			"translation":[
				0.182466059923172,
				-1.210719347000122e-08,
				2.7939677238464355e-08
			]
		},
		{
			"children":[
				27
			],
			"name":"LeftMidLegA_joint",
			"rotation":[
				0.6025903224945068,
				0.32396185398101807,
				-0.5991824865341187,
				0.41582930088043213
			],
			"scale":[
				1,
				1.0000001192092896,
				0.9999997019767761
			],
			"translation":[
				-0.05407434701919556,
				0.018804188817739487,
				-0.08299732208251953
			]
		},
		{
			"name":"LeftBottomClaw_joint",
			"rotation":[
				1.0155967089531259e-07,
				6.972393151727374e-08,
				-0.27401745319366455,
				0.9617247581481934
			],
			"scale":[
				0.9999999403953552,
				1,
				1
			],
			"translation":[
				0.036014437675476074,
				-0.028875423595309258,
				-1.7695128917694092e-08
			]
		},
		{
			"name":"LeftTopClaw_joint",
			"rotation":[
				-0.0861385241150856,
				-2.5181092766501934e-08,
				-1.3344227056677482e-07,
				0.9962831735610962
			],
			"scale":[
				1.0000001192092896,
				1,
				1.0000001192092896
			],
			"translation":[
				0.04284251853823662,
				-5.448237061500549e-08,
				-6.51925802230835e-09
			]
		},
		{
			"children":[
				29,
				30
			],
			"name":"LeftHand_joint",
			"rotation":[
				-9.054945593334196e-08,
				-1.970506247062076e-08,
				0.12203799188137054,
				0.9925253987312317
			],
			"scale":[
				1.0000001192092896,
				1,
				1
			],
			"translation":[
				0.057921286672353745,
				-1.0244548320770264e-08,
				-1.1175870895385742e-08
			]
		},
		{
			"children":[
				31
			],
			"name":"LeftWrist_joint",
			"rotation":[
				-2.3352347833238696e-10,
				-1.5412579656981507e-08,
				0.07699771970510483,
				0.9970312714576721
			],
			"scale":[
				1.0000001192092896,
				1.000000238418579,
				0.9999999403953552
			],
			"translation":[
				0.07639580965042114,
				4.936009645462036e-08,
				9.313225746154785e-09
			]
		},
		{
			"children":[
				32
			],
			"name":"LeftForearm_joint",
			"rotation":[
				-7.855263106648636e-08,
				4.661877994749375e-09,
				0.0475073978304863,
				0.998870849609375
			],
			"scale":[
				0.9999997615814209,
				0.9999998807907104,
				0.9999999403953552
			],
			"translation":[
				0.08268633484840393,
				4.7497451305389404e-08,
				1.30385160446167e-08
			]
		},
		{
			"children":[
				33
			],
			"name":"LeftShoulder_joint",
			"rotation":[
				0.6044755578041077,
				0.32043027877807617,
				-0.5967391729354858,
				0.4193282723426819
			],
			"scale":[
				1.0000001192092896,
				1,
				0.9999998211860657
			],
			"translation":[
				-0.010964591056108475,
				0.0026014642789959908,
				-0.0735304057598114
			]
		},
		{
			"name":"RightAntennaB_joint",
			"rotation":[
				-0.0076876250095665455,
				-0.049214139580726624,
				-0.15414497256278992,
				0.9867919087409973
			],
			"scale":[
				0.9999998807907104,
				0.9999998807907104,
				1.000000238418579
			],
			"translation":[
				-0.1548362374305725,
				3.4455166542102234e-07,
				1.6298145055770874e-08
			]
		},
		{
			"children":[
				35
			],
			"name":"RightAntennaA_joint",
			"rotation":[
				0.0005445858114399016,
				0.9983416795730591,
				-3.140219268971123e-05,
				0.05756383761763573
			],
			"scale":[
				0.9999999403953552,
				0.9999998807907104,
				0.9999999403953552
			],
			"translation":[
				0.08192512392997742,
				-0.0829802006483078,
				0.03190557658672333
			]
		},
		{
			"name":"RightMidLegB_joint",
			"rotation":[
				2.3356836464927255e-08,
				-0.07941466569900513,
				6.353058523700383e-08,
				0.9968416690826416
			],
			"scale":[
				1.0000001192092896,
				0.9999999403953552,
				0.9999999403953552
			],
			"translation":[
				-0.18246570229530334,
				1.862645149230957e-08,
				2.980232238769531e-07
			]
		},
		{
			"children":[
				37
			],
			"name":"RightMidLegA_joint",
			"rotation":[
				-0.32396137714385986,
				0.6025899648666382,
				0.4158296287059784,
				0.5991828441619873
			],
			"scale":[
				1.0000001192092896,
				1.000000238418579,
				0.9999997019767761
			],
			"translation":[
				-0.054074421525001526,
				0.018804233521223068,
				0.08299731463193893
			]
		},
		{
			"name":"RightBottomClaw_joint",
			"rotation":[
				6.928816560503037e-07,
				2.271959374411381e-06,
				-0.27401816844940186,
				0.961724579334259
			],
			"scale":[
				0.9999999403953552,
				0.9999998211860657,
				1
			],
			"translation":[
				-0.036014508455991745,
				0.028874779120087624,
				5.8673322200775146e-08
			]
		},
		{
			"name":"RightTopClaw_joint",
			"rotation":[
				-0.08613850921392441,
				1.6475797792736557e-07,
				-1.5143714904297667e-07,
				0.9962831735610962
			],
			"scale":[
				1,
				0.9999997019767761,
				1.0000001192092896
			],
			"translation":[
				-0.042842037975788116,
				-3.4598633646965027e-07,
				1.5832483768463135e-08
			]
		},
		{
			"children":[
				39,
				40
			],
			"name":"RightHand_joint",
			"rotation":[
				-3.284176841589215e-08,
				-3.387393974207953e-07,
				0.12203865498304367,
				0.9925253391265869
			],
			"scale":[
				1,
				1.0000001192092896,
				1
			],
			"translation":[
				-0.05792124569416046,
				2.1886080503463745e-07,
				-7.35744833946228e-08
			]
		},
		{
			"children":[
				41
			],
			"name":"RightWrist_joint",
			"rotation":[
				-8.406852991527103e-09,
				1.176493356069841e-06,
				0.07699717581272125,
				0.9970313310623169
			],
			"scale":[
				1,
				0.9999999403953552,
				1
			],
			"translation":[
				-0.07639597356319427,
				5.764886736869812e-07,
				5.960464477539063e-08
			]
		},
		{
			"children":[
				42
			],
			"name":"RightForearm_joint",
			"rotation":[
				1.1071958283537242e-07,
				5.608237643173197e-07,
				0.047507669776678085,
				0.9988709092140198
			],
			"scale":[
				0.9999999403953552,
				0.9999999403953552,
				0.9999999403953552
			],
			"translation":[
				-0.08268633484840393,
				-4.637986421585083e-07,
				3.073364496231079e-07
			]
		},
		{
			"children":[
				43
			],
			"name":"RightShoulder_joint",
			"rotation":[
				-0.3204295337200165,
				0.6044749021530151,
				0.4193287789821625,
				0.5967397689819336
			],
			"scale":[
				1,
				1.0000001192092896,
				0.9999999403953552
			],
			"translation":[
				-0.010964574292302132,
				0.0026015033945441246,
				0.0735304057598114
			]
		},
		{
			"children":[
				19,
				24,
				26,
				28,
				34,
				36,
				38,
				44
			],
			"name":"Head_joint",
			"rotation":[
				8.181349642200075e-08,
				1.3110788010806118e-08,
				0.30041438341140747,
				0.9538087844848633
			],
			"scale":[
				0.9999999403953552,
				1.0000001192092896,
				1
			],
			"translation":[
				0.09211669117212296,
				1.6763806343078613e-08,
				-2.635286655561231e-08
			]
		},
		{
			"children":[
				45
			],
			"name":"SpineB_joint",
			"rotation":[
				4.6376221973787324e-08,
				-1.949160166603292e-09,
				0.16323578357696533,
				0.9865871071815491
			],
			"scale":[
				1.0000001192092896,
				0.9999999403953552,
				0.9999999403953552
			],
			"translation":[
				0.08022706210613251,
				-3.5390257835388184e-08,
				-2.2634454310832552e-08
			]
		},
		{
			"children":[
				14,
				15,
				17,
				46
			],
			"name":"SpineA_joint",
			"rotation":[
				-0.32583045959472656,
				-0.627562403678894,
				0.3258305490016937,
				0.6275622844696045
			],
			"scale":[
				0.9999998807907104,
				0.9999997019767761,
				0.9999999403953552
			],
			"translation":[
				3.8209012505601575e-15,
				-1.4098129774708923e-08,
				4.454872026826706e-10
			]
		},
		{
			"children":[
				12,
				47
			],
			"name":"CenterRoot_joint",
			"translation":[
				0,
				0.16626529395580292,
				-0.010636461898684502
			]
		},
		{
			"children":[
				48
			],
			"name":"WorldRoot2_joint",
			"translation":[
				0,
				-3.76158192263132e-37,
				5.293955920339377e-23
			]
		},
		{
			"children":[
				2,
				49
			],
			"name":"WorldRoot1_joint",
			"rotation":[
				3.552713678800501e-15,
				0,
				0,
				1
			]
		},
		{
			"children":[
				0,
				50
			],
			"name":"npc_iconic_iraqLobster_mdl"
		},
		{
			"children":[
				51
			],
			"name":"npc_iconic_iraqLobster_mdl (merge)",
			"rotation":[
				-0.7071067690849304,
				0,
				0,
				0.7071067690849304
			]
		},
		{
			"mesh":0,
			"name":"WorldRoot1_joint",
			"skin":0
		},
		{
			"children":[
				53,
				52
			],
			"name":"Armature",
			"rotation":[
				0.7071068286895752,
				0,
				0,
				0.7071068286895752
			],
			"scale":[
				1.4940000772476196,
				1.4940000772476196,
				1.4940000772476196
			]
		}
	],
	"materials":[
		{
			"doubleSided":true,
			"extensions":{
				"KHR_materials_specular":{
					"specularColorFactor":[
						0.4000000059604645,
						0.4000000059604645,
						0.4000000059604645
					]
				}
			},
			"name":"iraqLobster_body_FGC_mat",
			"pbrMetallicRoughness":{
				"baseColorTexture":{
					"index":0
				},
				"metallicFactor":0
			}
		}
	],
	"meshes":[
		{
			"name":"WorldRoot1_joint",
			"primitives":[
				{
					"attributes":{
						"POSITION":0,
						"NORMAL":1,
						"TEXCOORD_0":2,
						"JOINTS_0":3,
						"WEIGHTS_0":4
					},
					"indices":5,
					"material":0
				}
			]
		}
	],
	"textures":[
		{
			"sampler":0,
			"source":0
		}
	],
	"images":[
		{
			"mimeType":"image/png",
			"name":"npc_iconic_iraqLobster_col",
			"uri":"npc_iconic_iraqLobster_col.png"
		}
	],
	"skins":[
		{
			"inverseBindMatrices":6,
			"joints":[
				52,
				51,
				0,
				50,
				2,
				1,
				49,
				48,
				12,
				5,
				4,
				3,
				8,
				7,
				6,
				11,
				10,
				9,
				47,
				14,
				13,
				15,
				17,
				16,
				46,
				45,
				19,
				18,
				24,
				23,
				22,
				21,
				20,
				26,
				25,
				28,
				27,
				34,
				33,
				32,
				31,
				29,
				30,
				36,
				35,
				38,
				37,
				44,
				43,
				42,
				41,
				39,
				40
			],
			"name":"Armature"
		}
	],
	"accessors":[
		{
			"bufferView":0,
			"componentType":5126,
			"count":1397,
			"max":[
				0.7968648076057434,
				1.0032215118408203,
				0.24796873331069946
			],
			"min":[
				-0.7968647480010986,
				-0.0022667974699288607,
				-0.7489551901817322
			],
			"type":"VEC3"
		},
		{
			"bufferView":1,
			"componentType":5126,
			"count":1397,
			"type":"VEC3"
		},
		{
			"bufferView":2,
			"componentType":5126,
			"count":1397,
			"type":"VEC2"
		},
		{
			"bufferView":3,
			"componentType":5121,
			"count":1397,
			"type":"VEC4"
		},
		{
			"bufferView":4,
			"componentType":5126,
			"count":1397,
			"type":"VEC4"
		},
		{
			"bufferView":5,
			"componentType":5123,
			"count":4482,
			"type":"SCALAR"
		},
		{
			"bufferView":6,
			"componentType":5126,
			"count":53,
			"type":"MAT4"
		}
	],
	"bufferViews":[
		{
			"buffer":0,
			"byteLength":16764,
			"byteOffset":0,
			"target":34962
		},
		{
			"buffer":0,
			"byteLength":16764,
			"byteOffset":16764,
			"target":34962
		},
		{
			"buffer":0,
			"byteLength":11176,
			"byteOffset":33528,
			"target":34962
		},
		{
			"buffer":0,
			"byteLength":5588,
			"byteOffset":44704,
			"target":34962
		},
		{
			"buffer":0,
			"byteLength":22352,
			"byteOffset":50292,
			"target":34962
		},
		{
			"buffer":0,
			"byteLength":8964,
			"byteOffset":72644,
			"target":34963
		},
		{
			"buffer":0,
			"byteLength":3392,
			"byteOffset":81608
		}
	],
	"samplers":[
		{
			"magFilter":9729,
			"minFilter":9987
		}
	],
	"buffers":[
		{
			"byteLength":85000,
			"uri":"Iconic%20Iraq%20Lobster.bin"
		}
	]
}
