{
	"asset":{
		"generator":"Khronos glTF Blender I/O v5.0.21",
		"version":"2.0"
	},
	"extensionsUsed":[
		"KHR_materials_specular"
	],
	"scene":0,
	"scenes":[
		{
			"name":"Scene",
			"nodes":[
				42
			]
		}
	],
	"nodes":[
		{
			"name":"PupilsAnim_joint",
			"rotation":[
				3.5527141023169746e-15,
				0,
				0,
				1
			],
			"scale":[
				0.9999999403953552,
				0.9999999403953552,
				0.9999999403953552
			],
			"translation":[
				0,
				0,
				0.10854046791791916
			]
		},
		{
			"children":[
				0
			],
			"name":"FacialAnim_joint",
			"rotation":[
				3.5527141023169746e-15,
				0,
				0,
				1
			],
			"scale":[
				0.9999999403953552,
				0.9999999403953552,
				0.9999999403953552
			]
		},
		{
			"name":"ButtFlapB_joint",
			"rotation":[
				-1.5340484438297608e-08,
				-3.144633353713289e-08,
				0.20409917831420898,
				0.9789502024650574
			],
			"scale":[
				0.9999998807907104,
				0.9999998807907104,
				0.9999999403953552
			],
			"translation":[
				0.08427298069000244,
				-4.470348358154297e-08,
				9.041180248914316e-09
			]
		},
		{
			"children":[
				2
			],
			"name":"ButtFlapA_joint",
			"rotation":[
				0.2435217648744583,
				-0.9698954820632935,
				7.74071384768149e-09,
				7.322506689888542e-08
			],
			"scale":[
				1.0000001192092896,
				1.0000001192092896,
				0.9999999403953552
			],
			"translation":[
				0.18853621184825897,
				-0.1425563544034958,
				-8.241173965473081e-09
			]
		},
		{
			"name":"LeftToe_joint",
			"rotation":[
				-0.014876597560942173,
				-0.005961540620774031,
				-0.3719147741794586,
				0.9281285405158997
			],
			"scale":[
				0.9999997615814209,
				0.9999997019767761,
				0.9999997019767761
			],
			"translation":[
				0.1981160193681717,
				-5.813490133732557e-08,
				-1.2838427210226655e-08
			]
		},
		{
			"children":[
				4
			],
			"name":"LeftAnkle_joint",
			"rotation":[
				0.018875902518630028,
				-0.01621870882809162,
				-0.45544594526290894,
				0.8899155259132385
			],
			"scale":[
				1.0000001192092896,
				1.000000238418579,
				1.000000238418579
			],
			"translation":[
				0.22199994325637817,
				1.6298145055770874e-08,
				-8.440110832452774e-09
			]
		},
		{
			"children":[
				5
			],
			"name":"LeftKnee_joint",
			"rotation":[
				1.632072432755649e-08,
				1.3547875710173685e-07,
				0.06045561283826828,
				0.9981709122657776
			],
			"scale":[
				1.0000001192092896,
				0.9999998807907104,
				1
			],
			"translation":[
				0.30750012397766113,
				-4.7730281949043274e-08,
				-5.7058059610426426e-08
			]
		},
		{
			"children":[
				6
			],
			"name":"LeftHip_joint",
			"rotation":[
				-0.9998520612716675,
				0.006717567332088947,
				0.002513317624107003,
				0.0156361386179924
			],
			"scale":[
				0.9999999403953552,
				0.9999998211860657,
				0.9999998211860657
			],
			"translation":[
				0.10499995201826096,
				-0.007000013720244169,
				-0.10599999874830246
			]
		},
		{
			"name":"RightToe_joint",
			"rotation":[
				0.00033624900970607996,
				0.00013472231512423605,
				-0.3719591796398163,
				0.9282490015029907
			],
			"scale":[
				0.9999998807907104,
				0.9999998807907104,
				0.9999998807907104
			],
			"translation":[
				-0.19800005853176117,
				-7.319613359868526e-08,
				7.605649443576112e-09
			]
		},
		{
			"children":[
				8
			],
			"name":"RightAnkle_joint",
			"rotation":[
				0.005195204168558121,
				-0.004843364004045725,
				-0.45519885420799255,
				0.890361487865448
			],
			"scale":[
				0.9999998211860657,
				1,
				0.9999999403953552
			],
			"translation":[
				-0.22199997305870056,
				4.889443516731262e-08,
				1.8742866814136505e-08
			]
		},
		{
			"children":[
				9
			],
			"name":"RightKnee_joint",
			"rotation":[
				4.610833457263652e-06,
				-7.739238208159804e-05,
				0.05934866890311241,
				0.9982373118400574
			],
			"scale":[
				1,
				1.0000001192092896,
				0.9999999403953552
			],
			"translation":[
				-0.3075001537799835,
				5.587935447692871e-08,
				7.023481884971261e-08
			]
		},
		{
			"children":[
				10
			],
			"name":"RightHip_joint",
			"rotation":[
				0.007220215164124966,
				0.999866247177124,
				-0.01345403678715229,
				0.00586076220497489
			],
			"scale":[
				0.9999998807907104,
				1,
				1
			],
			"translation":[
				0.10499996691942215,
				-0.007000013254582882,
				0.10599998384714127
			]
		},
		{
			"children":[
				3,
				7,
				11
			],
			"name":"CenterHip_joint",
			"rotation":[
				0.5,
				-0.5,
				-0.5,
				0.5
			],
			"scale":[
				0.9999999403953552,
				0.9999998807907104,
				0.9999999403953552
			],
			"translation":[
				-3.308722450212111e-24,
				-6.027067911418271e-08,
				2.7679547542902583e-10
			]
		},
		{
			"name":"Jaw_joint",
			"rotation":[
				-1.2007778771305766e-08,
				-2.5127770975075236e-09,
				0.29228541254997253,
				0.9563311338424683
			],
			"scale":[
				1,
				1.0000001192092896,
				1
			],
			"translation":[
				0.28461936116218567,
				0.08114951103925705,
				1.2440674268532348e-08
			]
		},
		{
			"name":"Nose_joint",
			"rotation":[
				-0.49545714259147644,
				-0.5045019388198853,
				-0.49545717239379883,
				0.50450199842453
			],
			"scale":[
				1,
				1,
				1.0000001192092896
			],
			"translation":[
				0.1966131627559662,
				0.18681903183460236,
				8.593933564782219e-09
			]
		},
		{
			"children":[
				13,
				14
			],
			"name":"Head_joint",
			"rotation":[
				3.9535544282820467e-10,
				-7.478776712505075e-13,
				-0.009044832549989223,
				0.9999591112136841
			],
			"scale":[
				0.9999998211860657,
				0.9999998807907104,
				0.9999999403953552
			],
			"translation":[
				0.29561078548431396,
				-0.005366532132029533,
				1.2921572256630043e-08
			]
		},
		{
			"name":"LeftIndexFinger_joint",
			"rotation":[
				5.587935447692871e-09,
				1.862645149230957e-08,
				-1.0617077350616455e-07,
				1
			],
			"translation":[
				0.13572227954864502,
				0.049916692078113556,
				0.0008652135729789734
			]
		},
		{
			"name":"LeftMidFinger_joint",
			"rotation":[
				2.0489094865183688e-08,
				2.4214383387288763e-08,
				-1.0989606380462646e-07,
				1
			],
			"scale":[
				1,
				1,
				1.0000001192092896
			],
			"translation":[
				0.1376887857913971,
				0.0033163651823997498,
				-0.0010890215635299683
			]
		},
		{
			"name":"LeftPinkyFinger_joint",
			"rotation":[
				4.440892098500626e-16,
				1.6763804566721774e-08,
				-4.470348358154297e-08,
				1
			],
			"scale":[
				1,
				1,
				1.0000001192092896
			],
			"translation":[
				0.1369810253381729,
				-0.0450182780623436,
				-0.003562565892934799
			]
		},
		{
			"name":"LeftThumb_joint",
			"rotation":[
				0.08875502645969391,
				-0.14572015404701233,
				0.030075371265411377,
				0.9848775267601013
			],
			"scale":[
				1.0000001192092896,
				1,
				1
			],
			"translation":[
				0.05937354266643524,
				0.10219229012727737,
				0.015469029545783997
			]
		},
		{
			"name":"LeftWeapon_joint",
			"rotation":[
				0.05149519443511963,
				0.7083881497383118,
				0.010654831305146217,
				0.7038614749908447
			],
			"translation":[
				0.11218814551830292,
				-0.0003287121653556824,
				0.02797500044107437
			]
		},
		{
			"children":[
				16,
				17,
				18,
				19,
				20
			],
			"name":"LeftHand_joint",
			"rotation":[
				2.0116566190608864e-07,
				-1.0319054126739502e-06,
				1.314468499913346e-05,
				1
			],
			"scale":[
				1.0000001192092896,
				1.0000001192092896,
				1
			],
			"translation":[
				0.22650012373924255,
				4.470348358154297e-08,
				1.4901161193847656e-08
			]
		},
		{
			"children":[
				21
			],
			"name":"LeftElbow_joint",
			"rotation":[
				0.7066834568977356,
				-0.02446342445909977,
				0.024463536217808723,
				0.7066835165023804
			],
			"scale":[
				0.9999999403953552,
				0.9999997615814209,
				1
			],
			"translation":[
				0.2954999804496765,
				9.499490261077881e-08,
				5.587935447692871e-08
			]
		},
		{
			"children":[
				22
			],
			"name":"LeftShoulder_joint",
			"rotation":[
				-0.007104638032615185,
				0.6492392420768738,
				0.6531726121902466,
				0.38961976766586304
			],
			"scale":[
				1,
				0.9999999403953552,
				1
			],
			"translation":[
				-0.17400000989437103,
				-4.417337606810179e-08,
				8.199074841286347e-08
			]
		},
		{
			"children":[
				23
			],
			"name":"LeftCollar_joint",
			"rotation":[
				0.006395682226866484,
				0.7070778608322144,
				-0.006395679898560047,
				0.7070778608322144
			],
			"scale":[
				0.9999998807907104,
				0.9999995827674866,
				0.9999997615814209
			],
			"translation":[
				0.15899980068206787,
				-0.033000003546476364,
				0.055000003427267075
			]
		},
		{
			"name":"RightIndexFinger_joint",
			"rotation":[
				0,
				-1.862645149230957e-09,
				-1.043081283569336e-07,
				1
			],
			"translation":[
				-0.13572248816490173,
				-0.04991675913333893,
				-0.0008654072880744934
			]
		},
		{
			"name":"RightMidFinger_joint",
			"rotation":[
				-2.0489094865183688e-08,
				-5.587934559514451e-09,
				2.0489096641540527e-08,
				1
			],
			"scale":[
				1,
				1,
				1.0000001192092896
			],
			"translation":[
				-0.1371949017047882,
				-0.0033967196941375732,
				0.0014658458530902863
			]
		},
		{
			"name":"RightPinkyFinger_joint",
			"rotation":[
				7.82310962677002e-08,
				-1.0617076640073719e-07,
				3.725291186640334e-09,
				1
			],
			"scale":[
				1.0000001192092896,
				1,
				1
			],
			"translation":[
				-0.13698118925094604,
				0.04501830041408539,
				0.0035623908042907715
			]
		},
		{
			"name":"RightThumb_joint",
			"rotation":[
				0.08875500410795212,
				-0.14572010934352875,
				0.030075421556830406,
				0.9848775267601013
			],
			"scale":[
				0.9999998211860657,
				1,
				0.9999999403953552
			],
			"translation":[
				-0.05937359482049942,
				-0.10219235718250275,
				-0.015469271689653397
			]
		},
		{
			"name":"RightWeapon_joint",
			"rotation":[
				-0.7038680911064148,
				-0.0105751259252429,
				0.70838862657547,
				0.05141526833176613
			],
			"scale":[
				1.0000091791152954,
				1,
				1.0000208616256714
			],
			"translation":[
				-0.1121877059340477,
				0.0002643167972564697,
				-0.02797873318195343
			]
		},
		{
			"children":[
				25,
				26,
				27,
				28,
				29
			],
			"name":"RightHand_joint",
			"rotation":[
				-8.488073945045471e-06,
				-1.3094395399093628e-06,
				1.385807991027832e-05,
				1
			],
			"scale":[
				0.9999999403953552,
				1.0000001192092896,
				1
			],
			"translation":[
				-0.22649997472763062,
				-7.450580596923828e-09,
				-1.1548399925231934e-07
			]
		},
		{
			"children":[
				30
			],
			"name":"RightElbow_joint",
			"rotation":[
				2.3297010898204462e-07,
				-1.1629867913143244e-06,
				0.03459557145833969,
				0.9994013905525208
			],
			"scale":[
				0.9999999403953552,
				0.9999998211860657,
				1.0000001192092896
			],
			"translation":[
				-0.2955000400543213,
				-2.3469328880310059e-07,
				-5.185604095458984e-06
			]
		},
		{
			"children":[
				31
			],
			"name":"RightShoulder_joint",
			"rotation":[
				0.27051350474357605,
				0.9209470152854919,
				0.0026713404804468155,
				0.28048521280288696
			],
			"scale":[
				1,
				0.9999999403953552,
				0.9999998807907104
			],
			"translation":[
				0.17400005459785461,
				-1.689034867524697e-08,
				-7.360581832926982e-08
			]
		},
		{
			"children":[
				32
			],
			"name":"RightCollar_joint",
			"rotation":[
				-0.7070779204368591,
				0.006395682226866484,
				0.7070778012275696,
				0.006395680829882622
			],
			"scale":[
				0.9999998211860657,
				0.9999995827674866,
				0.9999997615814209
			],
			"translation":[
				0.15899980068206787,
				-0.033000003546476364,
				-0.05499998852610588
			]
		},
		{
			"children":[
				15,
				24,
				33
			],
			"name":"SpineB_joint",
			"rotation":[
				-3.970467571343257e-23,
				-1.7763570511584873e-15,
				3.5527141023169746e-15,
				1
			],
			"scale":[
				0.9999999403953552,
				0.9999999403953552,
				0.9999999403953552
			],
			"translation":[
				0.20610755681991577,
				-2.9797313061408204e-08,
				9.009252011082935e-09
			]
		},
		{
			"children":[
				34
			],
			"name":"SpineA_joint",
			"rotation":[
				0.5,
				0.5,
				0.5,
				0.5
			],
			"scale":[
				0.9999999403953552,
				0.9999998807907104,
				0.9999999403953552
			],
			"translation":[
				3.308722450212111e-24,
				-6.027067911418271e-08,
				2.7679547542902583e-10
			]
		},
		{
			"children":[
				12,
				35
			],
			"name":"CenterRoot_joint",
			"rotation":[
				3.5527141023169746e-15,
				0,
				0,
				1
			],
			"scale":[
				0.9999999403953552,
				0.9999999403953552,
				0.9999999403953552
			],
			"translation":[
				-4.149080711667598e-17,
				0.7684821486473083,
				0.008821915835142136
			]
		},
		{
			"children":[
				36
			],
			"name":"WorldRoot2_joint",
			"rotation":[
				3.5527141023169746e-15,
				0,
				0,
				1
			],
			"scale":[
				0.9999999403953552,
				0.9999999403953552,
				0.9999999403953552
			]
		},
		{
			"children":[
				1,
				37
			],
			"name":"WorldRoot1_joint",
			"rotation":[
				3.5527141023169746e-15,
				0,
				0,
				1
			],
			"scale":[
				0.9999999403953552,
				0.9999999403953552,
				0.9999999403953552
			]
		},
		{
			"children":[
				38
			],
			"name":"npc_iconic_britishGuy_mdl",
			"rotation":[
				3.5527141023169746e-15,
				0,
				0,
				1
			],
			"scale":[
				0.9999999403953552,
				0.9999999403953552,
				0.9999999403953552
			]
		},
		{
			"children":[
				39
			],
			"name":"npc_iconic_britishGuy_mdl (merge)",
			"rotation":[
				-0.7071067690849304,
				0,
				0,
				0.7071067690849304
			],
			"scale":[
				0.9999999403953552,
				0.9999999403953552,
				0.9999999403953552
			]
		},
		{
			"mesh":0,
			"name":"britishGuy_geo",
			"skin":0
		},
		{
			"children":[
				41,
				40
			],
			"name":"Armature",
			"rotation":[
				0.7071068286895752,
				0,
				0,
				0.7071068286895752
			],
			"scale":[
				1.7097300291061401,
				1.7097300291061401,
				1.7097300291061401
			]
		}
	],
	"materials":[
		{
			"alphaMode":"BLEND",
			"doubleSided":true,
			"extensions":{
				"KHR_materials_specular":{
					"specularColorFactor":[
						0.4000000059604645,
						0.4000000059604645,
						0.4000000059604645
					]
				}
			},
			"name":"britishGuy_brows_FGFG_mat",
			"pbrMetallicRoughness":{
				"baseColorTexture":{
					"index":0
				},
				"metallicFactor":0
			}
		},
		{
			"doubleSided":true,
			"extensions":{
				"KHR_materials_specular":{
					"specularColorFactor":[
						0.4000000059604645,
						0.4000000059604645,
						0.4000000059604645
					]
				}
			},
			"name":"britishGuy_body_FGC_mat",
			"pbrMetallicRoughness":{
				"baseColorTexture":{
					"index":1
				},
				"metallicFactor":0
			}
		},
		{
			"doubleSided":true,
			"extensions":{
				"KHR_materials_specular":{
					"specularColorFactor":[
						0.4000000059604645,
						0.4000000059604645,
						0.4000000059604645
					]
				}
			},
			"name":"britishGuy_rightPupil_FGCE_mat",
			"pbrMetallicRoughness":{
				"baseColorTexture":{
					"index":2
				},
				"metallicFactor":0
			}
		},
		{
			"doubleSided":true,
			"extensions":{
				"KHR_materials_specular":{
					"specularColorFactor":[
						0.4000000059604645,
						0.4000000059604645,
						0.4000000059604645
					]
				}
			},
			"name":"britishGuy_leftPupil_FGCE_mat",
			"pbrMetallicRoughness":{
				"baseColorTexture":{
					"index":3
				},
				"metallicFactor":0
			}
		}
	],
	"meshes":[
		{
			"name":"britishGuy_geo",
			"primitives":[
				{
					"attributes":{
						"POSITION":0,
						"NORMAL":1,
						"TEXCOORD_0":2,
						"JOINTS_0":3,
						"WEIGHTS_0":4
					},
					"indices":5,
					"material":0
				},
				{
					"attributes":{
						"POSITION":6,
						"NORMAL":7,
						"TEXCOORD_0":8,
						"JOINTS_0":9,
						"WEIGHTS_0":10
					},
					"indices":11,
					"material":1
				},
				{
					"attributes":{
						"POSITION":12,
						"NORMAL":13,
						"TEXCOORD_0":14,
						"JOINTS_0":15,
						"WEIGHTS_0":16
					},
					"indices":17,
					"material":2
				},
				{
					"attributes":{
						"POSITION":18,
						"NORMAL":19,
						"TEXCOORD_0":20,
						"JOINTS_0":21,
						"WEIGHTS_0":22
					},
					"indices":23,
					"material":3
				}
			]
		}
	],
	"textures":[
		{
			"sampler":0,
			"source":0
		},
		{
			"sampler":0,
			"source":1
		},
		{
			"sampler":0,
			"source":2
		},
		{
			"sampler":0,
			"source":2
		}
	],
	"images":[
		{
			"mimeType":"image/png",
			"name":"npc_shared_browsBritishGuy_col",
			"uri":"npc_shared_browsBritishGuy_col.png"
		},
		{
			"mimeType":"image/png",
			"name":"npc_iconic_britishGuy_col",
			"uri":"npc_iconic_britishGuy_col.png"
		},
		{
			"mimeType":"image/png",
			"name":"npc_shared_pupil_col_Edited",
			"uri":"npc_shared_pupil_col_Edited.png"
		}
	],
	"skins":[
		{
			"inverseBindMatrices":24,
			"joints":[
				40,
				39,
				38,
				1,
				0,
				37,
				36,
				12,
				3,
				2,
				7,
				6,
				5,
				4,
				11,
				10,
				9,
				8,
				35,
				34,
				15,
				13,
				14,
				24,
				23,
				22,
				21,
				16,
				17,
				18,
				19,
				20,
				33,
				32,
				31,
				30,
				25,
				26,
				27,
				28,
				29
			],
			"name":"Armature"
		}
	],
	"accessors":[
		{
			"bufferView":0,
			"componentType":5126,
			"count":12,
			"max":[
				0.2441127598285675,
				2.966932535171509,
				0.40680357813835144
			],
			"min":[
				-0.2441127598285675,
				2.8540611267089844,
				0.283184289932251
			],
			"type":"VEC3"
		},
		{
			"bufferView":1,
			"componentType":5126,
			"count":12,
			"type":"VEC3"
		},
		{
			"bufferView":2,
			"componentType":5126,
			"count":12,
			"type":"VEC2"
		},
		{
			"bufferView":3,
			"componentType":5121,
			"count":12,
			"type":"VEC4"
		},
		{
			"bufferView":4,
			"componentType":5126,
			"count":12,
			"type":"VEC4"
		},
		{
			"bufferView":5,
			"componentType":5123,
			"count":24,
			"type":"SCALAR"
		},
		{
			"bufferView":6,
			"componentType":5126,
			"count":2460,
			"max":[
				1.2172516584396362,
				3.2623343467712402,
				0.7255979180335999
			],
			"min":[
				-1.2172514200210571,
				-9.058399363937042e-09,
				-0.3239459991455078
			],
			"type":"VEC3"
		},
		{
			"bufferView":7,
			"componentType":5126,
			"count":2460,
			"type":"VEC3"
		},
		{
			"bufferView":8,
			"componentType":5126,
			"count":2460,
			"type":"VEC2"
		},
		{
			"bufferView":9,
			"componentType":5121,
			"count":2460,
			"type":"VEC4"
		},
		{
			"bufferView":10,
			"componentType":5126,
			"count":2460,
			"type":"VEC4"
		},
		{
			"bufferView":11,
			"componentType":5123,
			"count":9492,
			"type":"SCALAR"
		},
		{
			"bufferView":12,
			"componentType":5126,
			"count":31,
			"max":[
				-0.04935481771826744,
				2.8888890743255615,
				0.3804836571216583
			],
			"min":[
				-0.19082096219062805,
				2.732174873352051,
				0.31776878237724304
			],
			"type":"VEC3"
		},
		{
			"bufferView":13,
			"componentType":5126,
			"count":31,
			"type":"VEC3"
		},
		{
			"bufferView":14,
			"componentType":5126,
			"count":31,
			"type":"VEC2"
		},
		{
			"bufferView":15,
			"componentType":5121,
			"count":31,
			"type":"VEC4"
		},
		{
			"bufferView":16,
			"componentType":5126,
			"count":31,
			"type":"VEC4"
		},
		{
			"bufferView":17,
			"componentType":5123,
			"count":120,
			"type":"SCALAR"
		},
		{
			"bufferView":18,
			"componentType":5126,
			"count":31,
			"max":[
				0.19082096219062805,
				2.8888890743255615,
				0.3804836571216583
			],
			"min":[
				0.04935481771826744,
				2.732174873352051,
				0.31776878237724304
			],
			"type":"VEC3"
		},
		{
			"bufferView":19,
			"componentType":5126,
			"count":31,
			"type":"VEC3"
		},
		{
			"bufferView":20,
			"componentType":5126,
			"count":31,
			"type":"VEC2"
		},
		{
			"bufferView":21,
			"componentType":5121,
			"count":31,
			"type":"VEC4"
		},
		{
			"bufferView":22,
			"componentType":5126,
			"count":31,
			"type":"VEC4"
		},
		{
			"bufferView":23,
			"componentType":5123,
			"count":120,
			"type":"SCALAR"
		},
		{
			"bufferView":24,
			"componentType":5126,
			"count":41,
			"type":"MAT4"
		}
	],
	"bufferViews":[
		{
			"buffer":0,
			"byteLength":144,
			"byteOffset":0,
			"target":34962
		},
		{
			"buffer":0,
			"byteLength":144,
			"byteOffset":144,
			"target":34962
		},
		{
			"buffer":0,
			"byteLength":96,
			"byteOffset":288,
			"target":34962
		},
		{
			"buffer":0,
			"byteLength":48,
			"byteOffset":384,
			"target":34962
		},
		{
			"buffer":0,
			"byteLength":192,
			"byteOffset":432,
			"target":34962
		},
		{
			"buffer":0,
			"byteLength":48,
			"byteOffset":624,
			"target":34963
		},
		{
			"buffer":0,
			"byteLength":29520,
			"byteOffset":672,
			"target":34962
		},
		{
			"buffer":0,
			"byteLength":29520,
			"byteOffset":30192,
			"target":34962
		},
		{
			"buffer":0,
			"byteLength":19680,
			"byteOffset":59712,
			"target":34962
		},
		{
			"buffer":0,
			"byteLength":9840,
			"byteOffset":79392,
			"target":34962
		},
		{
			"buffer":0,
			"byteLength":39360,
			"byteOffset":89232,
			"target":34962
		},
		{
			"buffer":0,
			"byteLength":18984,
			"byteOffset":128592,
			"target":34963
		},
		{
			"buffer":0,
			"byteLength":372,
			"byteOffset":147576,
			"target":34962
		},
		{
			"buffer":0,
			"byteLength":372,
			"byteOffset":147948,
			"target":34962
		},
		{
			"buffer":0,
			"byteLength":248,
			"byteOffset":148320,
			"target":34962
		},
		{
			"buffer":0,
			"byteLength":124,
			"byteOffset":148568,
			"target":34962
		},
		{
			"buffer":0,
			"byteLength":496,
			"byteOffset":148692,
			"target":34962
		},
		{
			"buffer":0,
			"byteLength":240,
			"byteOffset":149188,
			"target":34963
		},
		{
			"buffer":0,
			"byteLength":372,
			"byteOffset":149428,
			"target":34962
		},
		{
			"buffer":0,
			"byteLength":372,
			"byteOffset":149800,
			"target":34962
		},
		{
			"buffer":0,
			"byteLength":248,
			"byteOffset":150172,
			"target":34962
		},
		{
			"buffer":0,
			"byteLength":124,
			"byteOffset":150420,
			"target":34962
		},
		{
			"buffer":0,
			"byteLength":496,
			"byteOffset":150544,
			"target":34962
		},
		{
			"buffer":0,
			"byteLength":240,
			"byteOffset":151040,
			"target":34963
		},
		{
			"buffer":0,
			"byteLength":2624,
			"byteOffset":151280
		}
	],
	"samplers":[
		{
			"magFilter":9729,
			"minFilter":9987
		}
	],
	"buffers":[
		{
			"byteLength":153904,
			"uri":"British%20Guy.bin"
		}
	]
}
