{
	"asset":{
		"generator":"Khronos glTF Blender I/O v5.0.21",
		"version":"2.0"
	},
	"extensionsUsed":[
		"KHR_materials_specular"
	],
	"scene":0,
	"scenes":[
		{
			"name":"Scene",
			"nodes":[
				41
			]
		}
	],
	"nodes":[
		{
			"name":"PupilsAnim_joint",
			"translation":[
				0,
				0,
				0.10854047536849976
			]
		},
		{
			"children":[
				0
			],
			"name":"FacialAnim_joint"
		},
		{
			"name":"LeftToe_joint",
			"rotation":[
				-0.014875887893140316,
				-0.005962572526186705,
				-0.3719158172607422,
				0.9281281232833862
			],
			"scale":[
				1.0000001192092896,
				1,
				0.9999997019767761
			],
			"translation":[
				0.19811508059501648,
				-1.3240351108834147e-06,
				6.463014869950712e-07
			]
		},
		{
			"children":[
				2
			],
			"name":"LeftAnkle_joint",
			"rotation":[
				0.015475697815418243,
				-0.028668377548456192,
				-0.4731602370738983,
				0.8803737759590149
			],
			"scale":[
				0.9999998807907104,
				0.9999998211860657,
				1
			],
			"translation":[
				0.2219984233379364,
				1.0463409125804901e-06,
				7.629860192537308e-07
			]
		},
		{
			"children":[
				3
			],
			"name":"LeftKnee_joint",
			"rotation":[
				-4.061372749220027e-07,
				-1.439510981526837e-07,
				0.117259182035923,
				0.9931013584136963
			],
			"scale":[
				1,
				0.9999998807907104,
				0.9999999403953552
			],
			"translation":[
				0.30749770998954773,
				5.844049155712128e-07,
				1.0535004548728466e-06
			]
		},
		{
			"children":[
				4
			],
			"name":"LeftHip_joint",
			"rotation":[
				-0.995417594909668,
				-0.09262340515851974,
				-0.007354391738772392,
				0.022596128284931183
			],
			"scale":[
				1.0000073909759521,
				1.0000005960464478,
				1.0000003576278687
			],
			"translation":[
				0.10499995946884155,
				-0.007000035606324673,
				-0.10599999874830246
			]
		},
		{
			"name":"RightToe_joint",
			"rotation":[
				0.00033622182672843337,
				0.00013473699800670147,
				-0.3719593584537506,
				0.928248941898346
			],
			"scale":[
				0.9999997615814209,
				0.9999998807907104,
				1
			],
			"translation":[
				-0.1980000138282776,
				-1.0550138540565968e-08,
				4.477533366298303e-08
			]
		},
		{
			"children":[
				6
			],
			"name":"RightAnkle_joint",
			"rotation":[
				0.0010387126822024584,
				-0.020921995863318443,
				-0.4735777676105499,
				0.8805028796195984
			],
			"scale":[
				1,
				0.9999999403953552,
				1
			],
			"translation":[
				-0.22200007736682892,
				1.1175870895385742e-08,
				4.516914486885071e-08
			]
		},
		{
			"children":[
				7
			],
			"name":"RightKnee_joint",
			"rotation":[
				7.519061000493821e-06,
				-6.362619751598686e-05,
				0.11726512759923935,
				0.9931007027626038
			],
			"scale":[
				0.9999998211860657,
				0.9999998807907104,
				1
			],
			"translation":[
				-0.30750009417533875,
				-3.4458935260772705e-08,
				3.821332938969135e-08
			]
		},
		{
			"children":[
				8
			],
			"name":"RightHip_joint",
			"rotation":[
				0.09262141585350037,
				-0.995417594909668,
				0.022598763927817345,
				0.007378559093922377
			],
			"scale":[
				1,
				1,
				0.9999999403953552
			],
			"translation":[
				0.10499990731477737,
				-0.007000044919550419,
				0.10599999874830246
			]
		},
		{
			"children":[
				5,
				9
			],
			"name":"CenterHip_joint",
			"rotation":[
				0.5,
				-0.5,
				-0.5,
				0.5000000596046448
			],
			"scale":[
				0.9999999403953552,
				0.9999998807907104,
				1
			],
			"translation":[
				-1.3574655891815824e-15,
				7.683411240577698e-09,
				-3.725290298461914e-09
			]
		},
		{
			"name":"Jaw_joint",
			"rotation":[
				2.9194271888854928e-08,
				-5.126300806068684e-08,
				-0.2871919572353363,
				0.9578730463981628
			],
			"scale":[
				0.9999998211860657,
				0.9999998807907104,
				1
			],
			"translation":[
				0.17739015817642212,
				0.08647012710571289,
				2.7525940637929125e-08
			]
		},
		{
			"name":"Nose_joint",
			"rotation":[
				2.3509980515644922e-14,
				9.458176464249846e-10,
				-2.1606683731079102e-07,
				1
			],
			"translation":[
				0.19661295413970947,
				0.18681883811950684,
				3.050875463372904e-08
			]
		},
		{
			"children":[
				11,
				12
			],
			"name":"Head_joint",
			"rotation":[
				1.5417198628853157e-09,
				-1.5282420662288132e-08,
				-0.00904471892863512,
				0.9999591112136841
			],
			"scale":[
				1.0000001192092896,
				0.9999999403953552,
				1
			],
			"translation":[
				0.3639717102050781,
				-0.006603434681892395,
				6.76033380386798e-08
			]
		},
		{
			"name":"LeftIndexFinger_joint",
			"rotation":[
				-0.032093942165374756,
				-0.5664995312690735,
				-0.2681101858615875,
				0.7785661220550537
			],
			"scale":[
				1,
				0.9999999403953552,
				0.9999998807907104
			],
			"translation":[
				0.13599999248981476,
				0.04999997094273567,
				0.0010001733899116516
			]
		},
		{
			"name":"LeftMidFinger_joint",
			"rotation":[
				-0.11664579063653946,
				-0.5548680424690247,
				-0.23275253176689148,
				0.7901528477668762
			],
			"scale":[
				0.9999998807907104,
				0.9999995827674866,
				1
			],
			"translation":[
				0.1369999498128891,
				0.0030000386759638786,
				0.0010001957416534424
			]
		},
		{
			"name":"LeftPinkyFinger_joint",
			"rotation":[
				-0.23582513630390167,
				-0.4777944087982178,
				-0.1501096934080124,
				0.8328061699867249
			],
			"scale":[
				0.9999999403953552,
				0.9999999403953552,
				1
			],
			"translation":[
				0.13699990510940552,
				-0.04499993845820427,
				-0.003999859094619751
			]
		},
		{
			"name":"LeftThumb_joint",
			"rotation":[
				0.2788085341453552,
				-0.1835508793592453,
				-0.2367561012506485,
				0.9124261140823364
			],
			"scale":[
				0.9999998807907104,
				0.9999998211860657,
				0.9999998807907104
			],
			"translation":[
				0.058884914964437485,
				0.10199997574090958,
				0.015000216662883759
			]
		},
		{
			"name":"LeftWeapon_joint",
			"rotation":[
				0.05149531736969948,
				0.7083881497383118,
				0.010654927231371403,
				0.7038614749908447
			],
			"scale":[
				0.9999998807907104,
				1,
				0.9999999403953552
			],
			"translation":[
				0.11218826472759247,
				-0.00032875407487154007,
				0.02797529846429825
			]
		},
		{
			"children":[
				14,
				15,
				16,
				17,
				18
			],
			"name":"LeftHand_joint",
			"rotation":[
				-0.07488519698381424,
				0.06742894649505615,
				0.10487835854291916,
				0.9893664717674255
			],
			"scale":[
				0.9999999403953552,
				1.000000238418579,
				0.9999999403953552
			],
			"translation":[
				0.23999997973442078,
				-6.705522537231445e-08,
				-1.4901161193847656e-08
			]
		},
		{
			"children":[
				19
			],
			"name":"LeftElbow_joint",
			"rotation":[
				0.6946547031402588,
				-0.13211648166179657,
				0.1321166455745697,
				0.6946548223495483
			],
			"scale":[
				1.0000001192092896,
				0.9999998807907104,
				0.9999998807907104
			],
			"translation":[
				0.2500000298023224,
				-8.195638656616211e-08,
				1.043081283569336e-07
			]
		},
		{
			"children":[
				20
			],
			"name":"LeftShoulder_joint",
			"rotation":[
				-0.07436791807413101,
				0.5359956622123718,
				0.7904896140098572,
				0.28688719868659973
			],
			"scale":[
				0.9999999403953552,
				1.000000238418579,
				1
			],
			"translation":[
				-0.15999996662139893,
				7.836364801505624e-08,
				-9.904759679102426e-08
			]
		},
		{
			"children":[
				21
			],
			"name":"LeftCollar_joint",
			"rotation":[
				0.006395761854946613,
				0.7070778608322144,
				-0.006395760923624039,
				0.7070778608322144
			],
			"scale":[
				1,
				0.9999998807907104,
				1
			],
			"translation":[
				0.23324881494045258,
				-0.022082887589931488,
				0.05093628168106079
			]
		},
		{
			"name":"RightIndexFinger_joint",
			"rotation":[
				-0.03209114819765091,
				-0.5664977431297302,
				-0.26811063289642334,
				0.778567373752594
			],
			"scale":[
				1,
				1.0000001192092896,
				1.0000001192092896
			],
			"translation":[
				-0.1359998732805252,
				-0.05000000447034836,
				-0.0009999796748161316
			]
		},
		{
			"name":"RightMidFinger_joint",
			"rotation":[
				-0.11664522439241409,
				-0.5548651814460754,
				-0.23275373876094818,
				0.7901545763015747
			],
			"scale":[
				1.0000003576278687,
				1,
				0.9999998807907104
			],
			"translation":[
				-0.13699989020824432,
				-0.0029999446123838425,
				-0.000999942421913147
			]
		},
		{
			"name":"RightPnkyFinger_joint",
			"rotation":[
				-0.23582519590854645,
				-0.47779467701911926,
				-0.1501094102859497,
				0.8328060507774353
			],
			"scale":[
				1,
				0.9999998211860657,
				0.9999998211860657
			],
			"translation":[
				-0.13699986040592194,
				0.04500001668930054,
				0.00400003045797348
			]
		},
		{
			"name":"RightThumb_joint",
			"rotation":[
				0.278809517621994,
				-0.18355445563793182,
				-0.23675419390201569,
				0.9124255776405334
			],
			"translation":[
				-0.0589999258518219,
				-0.10200005024671555,
				-0.01500004529953003
			]
		},
		{
			"name":"RightWeapon_joint",
			"rotation":[
				-0.7038681507110596,
				-0.01057504117488861,
				0.7083885669708252,
				0.05141540989279747
			],
			"scale":[
				1.000009298324585,
				1,
				1.0000208616256714
			],
			"translation":[
				-0.11218748986721039,
				0.0002643633633852005,
				-0.027978606522083282
			]
		},
		{
			"children":[
				23,
				24,
				25,
				26,
				27
			],
			"name":"RightHand_joint",
			"rotation":[
				-0.07308678328990936,
				0.06675559282302856,
				0.10418136417865753,
				0.9896202683448792
			],
			"scale":[
				0.9999998807907104,
				1,
				0.9999998211860657
			],
			"translation":[
				-0.24000006914138794,
				8.940696716308594e-08,
				-1.6391277313232422e-07
			]
		},
		{
			"children":[
				28
			],
			"name":"RightElbow_joint",
			"rotation":[
				-4.930994990104409e-08,
				-2.7499782007112117e-08,
				0.18820475041866302,
				0.9821298122406006
			],
			"scale":[
				1,
				1.0000001192092896,
				1
			],
			"translation":[
				-0.25,
				8.195638656616211e-08,
				-5.21540641784668e-08
			]
		},
		{
			"children":[
				29
			],
			"name":"RightShoulder_joint",
			"rotation":[
				0.149251788854599,
				0.9377080202102661,
				0.18146930634975433,
				0.2559228837490082
			],
			"scale":[
				0.9999998211860657,
				0.9999997615814209,
				0.9999999403953552
			],
			"translation":[
				0.15999998152256012,
				3.8979692362772767e-08,
				6.840200228452886e-08
			]
		},
		{
			"children":[
				30
			],
			"name":"RightCollar_joint",
			"rotation":[
				-0.7070779204368591,
				0.006395721808075905,
				0.7070778012275696,
				0.006395736709237099
			],
			"scale":[
				0.9999998807907104,
				0.9999999403953552,
				1
			],
			"translation":[
				0.2330000102519989,
				-0.021999962627887726,
				-0.05093619227409363
			]
		},
		{
			"children":[
				13,
				22,
				31
			],
			"name":"SpineB_joint",
			"rotation":[
				-3.524327141235517e-08,
				6.757944248647618e-08,
				0.3071988821029663,
				0.9516453146934509
			],
			"translation":[
				0.206107497215271,
				5.960464477539063e-08,
				9.009244905655578e-09
			]
		},
		{
			"children":[
				32
			],
			"name":"SpineA_joint",
			"rotation":[
				0.5238404273986816,
				0.4749644994735718,
				0.5238403677940369,
				0.4749644100666046
			],
			"scale":[
				0.9999999403953552,
				1.0000001192092896,
				1.000000238418579
			],
			"translation":[
				-1.014929806355798e-15,
				7.683411240577698e-09,
				-3.725290298461914e-09
			]
		},
		{
			"children":[
				10,
				33
			],
			"name":"CenterRoot_joint",
			"rotation":[
				0.063008151948452,
				0,
				0,
				0.9980130195617676
			],
			"translation":[
				-4.149081042539843e-17,
				0.7647886276245117,
				0.00882191676646471
			]
		},
		{
			"name":"Walker_joint",
			"translation":[
				-0.5144850611686707,
				1.1221054307952727e-08,
				0.2736479640007019
			]
		},
		{
			"children":[
				34,
				35
			],
			"name":"WorldRoot2_joint"
		},
		{
			"children":[
				1,
				36
			],
			"name":"WorldRoot1_joint"
		},
		{
			"children":[
				37
			],
			"name":"npc_custom_franzGutentag_mdl"
		},
		{
			"children":[
				38
			],
			"name":"npc_custom_franzGutentag_mdl (merge)",
			"rotation":[
				-0.7071067690849304,
				0,
				0,
				0.7071067690849304
			]
		},
		{
			"mesh":0,
			"name":"franzGutentag_geoShape1",
			"skin":0
		},
		{
			"children":[
				40,
				39
			],
			"name":"Armature",
			"rotation":[
				0.7071068286895752,
				0,
				0,
				0.7071068286895752
			]
		}
	],
	"materials":[
		{
			"doubleSided":true,
			"extensions":{
				"KHR_materials_specular":{
					"specularColorFactor":[
						0.4000000059604645,
						0.4000000059604645,
						0.4000000059604645
					]
				}
			},
			"name":"franzGutentag_body_FGFG_mat",
			"pbrMetallicRoughness":{
				"baseColorTexture":{
					"index":0
				},
				"metallicFactor":0
			}
		},
		{
			"doubleSided":true,
			"extensions":{
				"KHR_materials_specular":{
					"specularColorFactor":[
						0.4000000059604645,
						0.4000000059604645,
						0.4000000059604645
					]
				}
			},
			"name":"franzGutentag_leftPupil_FGCE_mat",
			"pbrMetallicRoughness":{
				"baseColorTexture":{
					"index":1
				},
				"metallicFactor":0
			}
		},
		{
			"doubleSided":true,
			"extensions":{
				"KHR_materials_specular":{
					"specularColorFactor":[
						0.4000000059604645,
						0.4000000059604645,
						0.4000000059604645
					]
				}
			},
			"name":"franzGutentag_body_FGC_mat",
			"pbrMetallicRoughness":{
				"baseColorTexture":{
					"index":2
				},
				"metallicFactor":0
			}
		},
		{
			"doubleSided":true,
			"extensions":{
				"KHR_materials_specular":{
					"specularColorFactor":[
						0.4000000059604645,
						0.4000000059604645,
						0.4000000059604645
					]
				}
			},
			"name":"franzGutentag_rightPupil_FGCE_mat",
			"pbrMetallicRoughness":{
				"baseColorTexture":{
					"index":3
				},
				"metallicFactor":0
			}
		},
		{
			"doubleSided":true,
			"extensions":{
				"KHR_materials_specular":{
					"specularColorFactor":[
						0.4000000059604645,
						0.4000000059604645,
						0.4000000059604645
					]
				}
			},
			"name":"franzGutentag_body_FGF_mat",
			"pbrMetallicRoughness":{
				"baseColorTexture":{
					"index":4
				},
				"metallicFactor":0,
				"roughnessFactor":0.5527864098548889
			}
		},
		{
			"alphaMode":"BLEND",
			"doubleSided":true,
			"extensions":{
				"KHR_materials_specular":{
					"specularColorFactor":[
						0.4000000059604645,
						0.4000000059604645,
						0.4000000059604645
					]
				}
			},
			"name":"franzGutentag_brows_FGFG_mat",
			"pbrMetallicRoughness":{
				"baseColorTexture":{
					"index":5
				},
				"metallicFactor":0,
				"roughnessFactor":0.5527864098548889
			}
		}
	],
	"meshes":[
		{
			"name":"franzGutentag_geoShape1",
			"primitives":[
				{
					"attributes":{
						"POSITION":0,
						"NORMAL":1,
						"TEXCOORD_0":2,
						"JOINTS_0":3,
						"WEIGHTS_0":4
					},
					"indices":5,
					"material":0
				},
				{
					"attributes":{
						"POSITION":6,
						"NORMAL":7,
						"TEXCOORD_0":8,
						"JOINTS_0":9,
						"WEIGHTS_0":10
					},
					"indices":11,
					"material":1
				},
				{
					"attributes":{
						"POSITION":12,
						"NORMAL":13,
						"TEXCOORD_0":14,
						"JOINTS_0":15,
						"WEIGHTS_0":16
					},
					"indices":17,
					"material":2
				},
				{
					"attributes":{
						"POSITION":18,
						"NORMAL":19,
						"TEXCOORD_0":20,
						"JOINTS_0":21,
						"WEIGHTS_0":22
					},
					"indices":23,
					"material":3
				},
				{
					"attributes":{
						"POSITION":24,
						"NORMAL":25,
						"TEXCOORD_0":26,
						"JOINTS_0":27,
						"WEIGHTS_0":28
					},
					"indices":29,
					"material":4
				},
				{
					"attributes":{
						"POSITION":30,
						"NORMAL":31,
						"TEXCOORD_0":32,
						"JOINTS_0":33,
						"WEIGHTS_0":34
					},
					"indices":35,
					"material":5
				}
			]
		}
	],
	"textures":[
		{
			"sampler":0,
			"source":0
		},
		{
			"sampler":0,
			"source":1
		},
		{
			"sampler":0,
			"source":0
		},
		{
			"sampler":0,
			"source":1
		},
		{
			"sampler":0,
			"source":0
		},
		{
			"sampler":0,
			"source":2
		}
	],
	"images":[
		{
			"mimeType":"image/png",
			"name":"npc_custom_franzGutentag_col",
			"uri":"npc_custom_franzGutentag_col.png"
		},
		{
			"mimeType":"image/png",
			"name":"npc_shared_pupil_col_Edited",
			"uri":"npc_shared_pupil_col_Edited.png"
		},
		{
			"mimeType":"image/png",
			"name":"npc_shared_browsCarterPewterschmidt_col",
			"uri":"npc_shared_browsCarterPewterschmidt_col.png"
		}
	],
	"skins":[
		{
			"inverseBindMatrices":36,
			"joints":[
				39,
				38,
				37,
				1,
				0,
				36,
				34,
				10,
				5,
				4,
				3,
				2,
				9,
				8,
				7,
				6,
				33,
				32,
				13,
				11,
				12,
				22,
				21,
				20,
				19,
				14,
				15,
				16,
				17,
				18,
				31,
				30,
				29,
				28,
				23,
				24,
				25,
				26,
				27,
				35
			],
			"name":"Armature"
		}
	],
	"accessors":[
		{
			"bufferView":0,
			"componentType":5126,
			"count":48,
			"max":[
				0.15972089767456055,
				0.11449086666107178,
				0.0307871475815773
			],
			"min":[
				-0.16070733964443207,
				0.052461523562669754,
				-0.1065482571721077
			],
			"type":"VEC3"
		},
		{
			"bufferView":1,
			"componentType":5126,
			"count":48,
			"type":"VEC3"
		},
		{
			"bufferView":2,
			"componentType":5126,
			"count":48,
			"type":"VEC2"
		},
		{
			"bufferView":3,
			"componentType":5121,
			"count":48,
			"type":"VEC4"
		},
		{
			"bufferView":4,
			"componentType":5126,
			"count":48,
			"type":"VEC4"
		},
		{
			"bufferView":5,
			"componentType":5123,
			"count":120,
			"type":"SCALAR"
		},
		{
			"bufferView":6,
			"componentType":5126,
			"count":28,
			"max":[
				0.13311153650283813,
				1.4266809225082397,
				0.6501004695892334
			],
			"min":[
				0.048802342265844345,
				1.3322150707244873,
				0.6194884777069092
			],
			"type":"VEC3"
		},
		{
			"bufferView":7,
			"componentType":5126,
			"count":28,
			"type":"VEC3"
		},
		{
			"bufferView":8,
			"componentType":5126,
			"count":28,
			"type":"VEC2"
		},
		{
			"bufferView":9,
			"componentType":5121,
			"count":28,
			"type":"VEC4"
		},
		{
			"bufferView":10,
			"componentType":5126,
			"count":28,
			"type":"VEC4"
		},
		{
			"bufferView":11,
			"componentType":5123,
			"count":102,
			"type":"SCALAR"
		},
		{
			"bufferView":12,
			"componentType":5126,
			"count":2036,
			"max":[
				0.7287601828575134,
				1.6188678741455078,
				0.7662824392318726
			],
			"min":[
				-0.7287601828575134,
				-4.9554670113138855e-05,
				-0.17044515907764435
			],
			"type":"VEC3"
		},
		{
			"bufferView":13,
			"componentType":5126,
			"count":2036,
			"type":"VEC3"
		},
		{
			"bufferView":14,
			"componentType":5126,
			"count":2036,
			"type":"VEC2"
		},
		{
			"bufferView":15,
			"componentType":5121,
			"count":2036,
			"type":"VEC4"
		},
		{
			"bufferView":16,
			"componentType":5126,
			"count":2036,
			"type":"VEC4"
		},
		{
			"bufferView":17,
			"componentType":5123,
			"count":7329,
			"type":"SCALAR"
		},
		{
			"bufferView":18,
			"componentType":5126,
			"count":28,
			"max":[
				-0.048802342265844345,
				1.4266809225082397,
				0.6501004695892334
			],
			"min":[
				-0.13311153650283813,
				1.3322150707244873,
				0.6194884777069092
			],
			"type":"VEC3"
		},
		{
			"bufferView":19,
			"componentType":5126,
			"count":28,
			"type":"VEC3"
		},
		{
			"bufferView":20,
			"componentType":5126,
			"count":28,
			"type":"VEC2"
		},
		{
			"bufferView":21,
			"componentType":5121,
			"count":28,
			"type":"VEC4"
		},
		{
			"bufferView":22,
			"componentType":5126,
			"count":28,
			"type":"VEC4"
		},
		{
			"bufferView":23,
			"componentType":5123,
			"count":102,
			"type":"SCALAR"
		},
		{
			"bufferView":24,
			"componentType":5126,
			"count":24,
			"max":[
				0.05503235384821892,
				1.6351760625839233,
				0.5833918452262878
			],
			"min":[
				-0.1028774082660675,
				1.5521252155303955,
				0.48381179571151733
			],
			"type":"VEC3"
		},
		{
			"bufferView":25,
			"componentType":5126,
			"count":24,
			"type":"VEC3"
		},
		{
			"bufferView":26,
			"componentType":5126,
			"count":24,
			"type":"VEC2"
		},
		{
			"bufferView":27,
			"componentType":5121,
			"count":24,
			"type":"VEC4"
		},
		{
			"bufferView":28,
			"componentType":5126,
			"count":24,
			"type":"VEC4"
		},
		{
			"bufferView":29,
			"componentType":5123,
			"count":96,
			"type":"SCALAR"
		},
		{
			"bufferView":30,
			"componentType":5126,
			"count":12,
			"max":[
				0.1668667495250702,
				1.4991220235824585,
				0.6595779061317444
			],
			"min":[
				-0.16681724786758423,
				1.4217225313186646,
				0.5903581976890564
			],
			"type":"VEC3"
		},
		{
			"bufferView":31,
			"componentType":5126,
			"count":12,
			"type":"VEC3"
		},
		{
			"bufferView":32,
			"componentType":5126,
			"count":12,
			"type":"VEC2"
		},
		{
			"bufferView":33,
			"componentType":5121,
			"count":12,
			"type":"VEC4"
		},
		{
			"bufferView":34,
			"componentType":5126,
			"count":12,
			"type":"VEC4"
		},
		{
			"bufferView":35,
			"componentType":5123,
			"count":24,
			"type":"SCALAR"
		},
		{
			"bufferView":36,
			"componentType":5126,
			"count":40,
			"type":"MAT4"
		}
	],
	"bufferViews":[
		{
			"buffer":0,
			"byteLength":576,
			"byteOffset":0,
			"target":34962
		},
		{
			"buffer":0,
			"byteLength":576,
			"byteOffset":576,
			"target":34962
		},
		{
			"buffer":0,
			"byteLength":384,
			"byteOffset":1152,
			"target":34962
		},
		{
			"buffer":0,
			"byteLength":192,
			"byteOffset":1536,
			"target":34962
		},
		{
			"buffer":0,
			"byteLength":768,
			"byteOffset":1728,
			"target":34962
		},
		{
			"buffer":0,
			"byteLength":240,
			"byteOffset":2496,
			"target":34963
		},
		{
			"buffer":0,
			"byteLength":336,
			"byteOffset":2736,
			"target":34962
		},
		{
			"buffer":0,
			"byteLength":336,
			"byteOffset":3072,
			"target":34962
		},
		{
			"buffer":0,
			"byteLength":224,
			"byteOffset":3408,
			"target":34962
		},
		{
			"buffer":0,
			"byteLength":112,
			"byteOffset":3632,
			"target":34962
		},
		{
			"buffer":0,
			"byteLength":448,
			"byteOffset":3744,
			"target":34962
		},
		{
			"buffer":0,
			"byteLength":204,
			"byteOffset":4192,
			"target":34963
		},
		{
			"buffer":0,
			"byteLength":24432,
			"byteOffset":4396,
			"target":34962
		},
		{
			"buffer":0,
			"byteLength":24432,
			"byteOffset":28828,
			"target":34962
		},
		{
			"buffer":0,
			"byteLength":16288,
			"byteOffset":53260,
			"target":34962
		},
		{
			"buffer":0,
			"byteLength":8144,
			"byteOffset":69548,
			"target":34962
		},
		{
			"buffer":0,
			"byteLength":32576,
			"byteOffset":77692,
			"target":34962
		},
		{
			"buffer":0,
			"byteLength":14658,
			"byteOffset":110268,
			"target":34963
		},
		{
			"buffer":0,
			"byteLength":336,
			"byteOffset":124928,
			"target":34962
		},
		{
			"buffer":0,
			"byteLength":336,
			"byteOffset":125264,
			"target":34962
		},
		{
			"buffer":0,
			"byteLength":224,
			"byteOffset":125600,
			"target":34962
		},
		{
			"buffer":0,
			"byteLength":112,
			"byteOffset":125824,
			"target":34962
		},
		{
			"buffer":0,
			"byteLength":448,
			"byteOffset":125936,
			"target":34962
		},
		{
			"buffer":0,
			"byteLength":204,
			"byteOffset":126384,
			"target":34963
		},
		{
			"buffer":0,
			"byteLength":288,
			"byteOffset":126588,
			"target":34962
		},
		{
			"buffer":0,
			"byteLength":288,
			"byteOffset":126876,
			"target":34962
		},
		{
			"buffer":0,
			"byteLength":192,
			"byteOffset":127164,
			"target":34962
		},
		{
			"buffer":0,
			"byteLength":96,
			"byteOffset":127356,
			"target":34962
		},
		{
			"buffer":0,
			"byteLength":384,
			"byteOffset":127452,
			"target":34962
		},
		{
			"buffer":0,
			"byteLength":192,
			"byteOffset":127836,
			"target":34963
		},
		{
			"buffer":0,
			"byteLength":144,
			"byteOffset":128028,
			"target":34962
		},
		{
			"buffer":0,
			"byteLength":144,
			"byteOffset":128172,
			"target":34962
		},
		{
			"buffer":0,
			"byteLength":96,
			"byteOffset":128316,
			"target":34962
		},
		{
			"buffer":0,
			"byteLength":48,
			"byteOffset":128412,
			"target":34962
		},
		{
			"buffer":0,
			"byteLength":192,
			"byteOffset":128460,
			"target":34962
		},
		{
			"buffer":0,
			"byteLength":48,
			"byteOffset":128652,
			"target":34963
		},
		{
			"buffer":0,
			"byteLength":2560,
			"byteOffset":128700
		}
	],
	"samplers":[
		{
			"magFilter":9729,
			"minFilter":9987
		}
	],
	"buffers":[
		{
			"byteLength":131260,
			"uri":"Franz%20Gutentag.bin"
		}
	]
}
