{
	"asset":{
		"generator":"Khronos glTF Blender I/O v5.0.21",
		"version":"2.0"
	},
	"extensionsUsed":[
		"KHR_materials_specular"
	],
	"scene":0,
	"scenes":[
		{
			"name":"Scene",
			"nodes":[
				47
			]
		}
	],
	"nodes":[
		{
			"name":"tanHorse_geo",
			"scale":[
				0.9999999403953552,
				0.9999999403953552,
				0.9999999403953552
			]
		},
		{
			"name":"PupilsAnim_joint",
			"rotation":[
				0.7071067690849304,
				-4.595616959997609e-17,
				-0.7071067690849304,
				2.4734876131218787e-16
			],
			"scale":[
				-1.5999999936067155e-11,
				-1.1337255786947331e-11,
				-1
			],
			"translation":[
				32,
				0.9140625,
				-0.8914594054222107
			]
		},
		{
			"children":[
				1
			],
			"name":"FacialAnim_joint",
			"scale":[
				4.999999980020986e-13,
				1.0000001044244144e-12,
				0.9999999403953552
			],
			"translation":[
				0.00022451351105701178,
				-1.1920930376163597e-07,
				0
			]
		},
		{
			"name":"LeftAnkle_joint",
			"rotation":[
				0.056166306138038635,
				-0.03487534821033478,
				0.31045418977737427,
				0.9482864737510681
			],
			"scale":[
				1,
				1,
				0.9999999403953552
			],
			"translation":[
				0.4488733410835266,
				4.284083843231201e-08,
				-4.016328603029251e-08
			]
		},
		{
			"children":[
				3
			],
			"name":"LeftKnee_joint",
			"rotation":[
				7.62168929213658e-06,
				-2.9038372304057702e-05,
				0.25294753909111023,
				0.9674800038337708
			],
			"scale":[
				0.9999999403953552,
				1.0000001192092896,
				1.000000238418579
			],
			"translation":[
				0.4649842381477356,
				-2.4959444999694824e-07,
				-6.007030606269836e-08
			]
		},
		{
			"children":[
				4
			],
			"name":"LeftThigh_joint",
			"rotation":[
				0.10422445833683014,
				-0.05474388599395752,
				-0.2035617083311081,
				0.971958339214325
			],
			"scale":[
				1,
				0.9999997615814209,
				1
			],
			"translation":[
				0.24774181842803955,
				-7.450580596923828e-09,
				0
			]
		},
		{
			"children":[
				5
			],
			"name":"LeftHip_joint",
			"rotation":[
				-0.15596136450767517,
				-0.04304508492350578,
				0.7127125263214111,
				0.6825423240661621
			],
			"scale":[
				1.0000001192092896,
				1.000000238418579,
				0.9999998807907104
			],
			"translation":[
				0.10318556427955627,
				0.11792535334825516,
				-0.22000004351139069
			]
		},
		{
			"name":"RightAnkle_joint",
			"rotation":[
				0.019052287563681602,
				0.02862166054546833,
				-0.9493319392204285,
				0.31238874793052673
			],
			"scale":[
				1,
				1,
				1.0000003576278687
			],
			"translation":[
				-0.44886714220046997,
				-4.0978193283081055e-08,
				2.3283064365386963e-10
			]
		},
		{
			"children":[
				7
			],
			"name":"RightKnee_joint",
			"rotation":[
				9.951221727533266e-06,
				-2.8883701816084795e-05,
				0.25280290842056274,
				0.9675177931785583
			],
			"scale":[
				1.000000238418579,
				1,
				0.9999998807907104
			],
			"translation":[
				-0.46498775482177734,
				-8.66129994392395e-08,
				-5.634501576423645e-08
			]
		},
		{
			"children":[
				8
			],
			"name":"RightThigh_joint",
			"rotation":[
				0.10423700511455536,
				-0.054709918797016144,
				-0.20343910157680511,
				0.9719845652580261
			],
			"scale":[
				0.9999997615814209,
				1.0000001192092896,
				1
			],
			"translation":[
				-0.24772006273269653,
				-3.725290298461914e-09,
				-4.470348358154297e-08
			]
		},
		{
			"children":[
				9
			],
			"name":"RightHip_joint",
			"rotation":[
				-0.03193005174398422,
				0.14172618091106415,
				-0.6840257048606873,
				0.7148447632789612
			],
			"scale":[
				1.0000001192092896,
				1.0000001192092896,
				1
			],
			"translation":[
				0.1031854897737503,
				0.1179252341389656,
				0.22000004351139069
			]
		},
		{
			"name":"LeftWrist_joint",
			"rotation":[
				0.01636408641934395,
				-0.02818429097533226,
				-0.4462403655052185,
				0.894319474697113
			],
			"scale":[
				1,
				1,
				1.000000238418579
			],
			"translation":[
				0.3404676616191864,
				-2.1280720829963684e-07,
				2.0721927285194397e-08
			]
		},
		{
			"children":[
				11
			],
			"name":"LeftElbow_joint",
			"rotation":[
				-7.597258445457555e-06,
				6.723036494804546e-05,
				0.11215223371982574,
				0.993691086769104
			],
			"scale":[
				0.9999997019767761,
				1,
				1.000000238418579
			],
			"translation":[
				0.42412689328193665,
				4.926696419715881e-07,
				4.936009645462036e-08
			]
		},
		{
			"children":[
				12
			],
			"name":"LeftShoulder_joint",
			"rotation":[
				-0.6670300960540771,
				-0.7446529865264893,
				0.008901447057723999,
				0.021991876885294914
			],
			"scale":[
				1,
				0.9999996423721313,
				1
			],
			"translation":[
				-0.026553655043244362,
				0.334232896566391,
				-0.18000002205371857
			]
		},
		{
			"name":"RightWrist_joint",
			"rotation":[
				0.0016702049179002643,
				-0.020828401669859886,
				-0.44665196537971497,
				0.8944637775421143
			],
			"scale":[
				0.9999999403953552,
				0.9999998807907104,
				0.9999996423721313
			],
			"translation":[
				-0.34046778082847595,
				3.664754331111908e-07,
				2.514570951461792e-08
			]
		},
		{
			"children":[
				14
			],
			"name":"RightElbow_joint",
			"rotation":[
				1.195576351165073e-05,
				-0.00010573197505436838,
				0.11216031014919281,
				0.9936901330947876
			],
			"scale":[
				0.9999997615814209,
				1,
				1.0000003576278687
			],
			"translation":[
				-0.4241267144680023,
				-4.591420292854309e-07,
				-1.210719347000122e-08
			]
		},
		{
			"children":[
				15
			],
			"name":"RightShoulder_joint",
			"rotation":[
				-0.744652271270752,
				0.6670297980308533,
				-0.022045878693461418,
				0.008846943266689777
			],
			"scale":[
				1.0000001192092896,
				1.0000003576278687,
				0.9999999403953552
			],
			"translation":[
				-0.026553671807050705,
				0.334232896566391,
				0.18000002205371857
			]
		},
		{
			"children":[
				13,
				16
			],
			"name":"Chest_joint",
			"rotation":[
				-3.1545779877184543e-10,
				9.69869073941254e-10,
				0.9997550845146179,
				0.022130798548460007
			],
			"scale":[
				1.0000009536743164,
				0.9999998807907104,
				1.0000001192092896
			],
			"translation":[
				0.29601266980171204,
				0.004992198199033737,
				-1.1310518743812281e-08
			]
		},
		{
			"name":"LeftRein_joint",
			"rotation":[
				0.43244469165802,
				-0.5594565868377686,
				0.43244469165802,
				0.5594564080238342
			],
			"scale":[
				0.9999999403953552,
				0.9999998211860657,
				1
			],
			"translation":[
				0.015387089923024178,
				0.556458592414856,
				0.2572530210018158
			]
		},
		{
			"name":"Jaw_joint",
			"rotation":[
				0.8116451501846313,
				0.5841508507728577,
				-4.06070022052063e-08,
				4.410217258055127e-08
			],
			"scale":[
				0.9999997615814209,
				0.9999998211860657,
				0.9999999403953552
			],
			"translation":[
				0.3603595495223999,
				0.5444174408912659,
				9.17741171946318e-09
			]
		},
		{
			"name":"LeftEar_joint",
			"rotation":[
				0.9666364789009094,
				-0.23837757110595703,
				0.09102793782949448,
				0.02244795858860016
			],
			"scale":[
				1.0000004768371582,
				1,
				1
			],
			"translation":[
				0.3090857267379761,
				-0.05461066961288452,
				0.09754637628793716
			]
		},
		{
			"name":"Nose_joint",
			"rotation":[
				-2.557759979835393e-15,
				2.2322090842408215e-08,
				-8.881784197001252e-16,
				1
			],
			"scale":[
				1.0000001192092896,
				1,
				0.9999999403953552
			],
			"translation":[
				0.19661307334899902,
				0.1868181824684143,
				5.007215975183499e-09
			]
		},
		{
			"name":"RightEar_joint",
			"rotation":[
				-0.23837746679782867,
				-0.9666365385055542,
				-0.022447962313890457,
				0.09102794528007507
			],
			"translation":[
				0.30908429622650146,
				-0.05460935831069946,
				-0.09754639863967896
			]
		},
		{
			"name":"TetherE_joint",
			"rotation":[
				4.005843493359862e-06,
				-8.615591650595888e-05,
				0.0465591661632061,
				0.9989155530929565
			],
			"scale":[
				1.0000001192092896,
				0.9999998807907104,
				1.000000238418579
			],
			"translation":[
				0.35085055232048035,
				2.9802322387695312e-08,
				-7.450580596923828e-09
			]
		},
		{
			"children":[
				23
			],
			"name":"TetherD_joint",
			"rotation":[
				2.1182226191740483e-05,
				-0.00017419157666154206,
				0.07747676968574524,
				0.996994137763977
			],
			"scale":[
				0.9999998807907104,
				1,
				0.9999999403953552
			],
			"translation":[
				0.31191325187683105,
				1.448206603527069e-07,
				-4.284083843231201e-08
			]
		},
		{
			"children":[
				24
			],
			"name":"TetherC_joint",
			"rotation":[
				0.00014072090561967343,
				-0.00021161034237593412,
				0.4406701326370239,
				0.8976690769195557
			],
			"scale":[
				0.9999999403953552,
				1,
				1
			],
			"translation":[
				0.32147911190986633,
				-1.1203810572624207e-06,
				-9.499490261077881e-08
			]
		},
		{
			"children":[
				25
			],
			"name":"TetherB_joint",
			"rotation":[
				0.25423866510391235,
				-0.0813385471701622,
				0.15789920091629028,
				0.9506916403770447
			],
			"scale":[
				0.9999997615814209,
				0.9999996423721313,
				1.0000001192092896
			],
			"translation":[
				0.34572750329971313,
				-4.3213367462158203e-07,
				-2.738088369369507e-07
			]
		},
		{
			"children":[
				26
			],
			"name":"TetherA_joint",
			"rotation":[
				0.4062522351741791,
				0.8714150786399841,
				0.2589717209339142,
				0.09235044568777084
			],
			"scale":[
				1.0000001192092896,
				1.0000001192092896,
				1
			],
			"translation":[
				0.32142937183380127,
				0.5853220820426941,
				0.121865414083004
			]
		},
		{
			"children":[
				19,
				20,
				21,
				22,
				27
			],
			"name":"Head_joint",
			"rotation":[
				-8.943885632106685e-09,
				-1.0293317309617578e-08,
				0.24780713021755219,
				0.9688094258308411
			],
			"scale":[
				0.9999999403953552,
				1,
				0.9999999403953552
			],
			"translation":[
				0.29561078548431396,
				-0.005366683006286621,
				1.3810008248071881e-08
			]
		},
		{
			"children":[
				28
			],
			"name":"NeckB_joint",
			"rotation":[
				-9.621836883017335e-15,
				-3.0390982175276804e-08,
				3.725290653733282e-08,
				1
			],
			"scale":[
				0.9999999403953552,
				0.9999999403953552,
				0.9999999403953552
			],
			"translation":[
				0.4262816309928894,
				-2.5331974029541016e-07,
				4.5824780414704946e-08
			]
		},
		{
			"name":"RightRein_joint",
			"rotation":[
				-0.5594564080238342,
				-0.43244469165802,
				-0.5594565868377686,
				0.43244460225105286
			],
			"scale":[
				0.9999999403953552,
				0.9999998807907104,
				1
			],
			"translation":[
				0.015390394255518913,
				0.5564554929733276,
				-0.257253497838974
			]
		},
		{
			"children":[
				18,
				29,
				30
			],
			"name":"NeckA_joint",
			"rotation":[
				-0.8045322895050049,
				-0.5939089059829712,
				-2.574574509139893e-08,
				4.4838877499842056e-08
			],
			"scale":[
				0.9999999403953552,
				1.000000238418579,
				1.0000001192092896
			],
			"translation":[
				0.28508859872817993,
				0.009650126099586487,
				-1.2400523274891384e-08
			]
		},
		{
			"children":[
				17,
				31
			],
			"name":"SpineD_joint",
			"rotation":[
				1.977877861492061e-09,
				3.162524964128721e-10,
				0.04514295607805252,
				0.9989805221557617
			],
			"scale":[
				1.000000238418579,
				1,
				0.9999999403953552
			],
			"translation":[
				0.320443332195282,
				1.5832483768463135e-08,
				-1.4141222415275934e-08
			]
		},
		{
			"children":[
				32
			],
			"name":"SpineC_joint",
			"rotation":[
				2.4621715777328745e-09,
				-1.8428673032033771e-09,
				0.058229196816682816,
				0.998303234577179
			],
			"scale":[
				0.9999998807907104,
				1,
				0.9999999403953552
			],
			"translation":[
				0.2901028096675873,
				-2.9942020773887634e-07,
				-1.1731229321298997e-08
			]
		},
		{
			"children":[
				33
			],
			"name":"SpineB_joint",
			"rotation":[
				1.7242675065531898e-09,
				1.464663723638182e-09,
				0.04114791750907898,
				0.9991530776023865
			],
			"scale":[
				1,
				1,
				1.0000001192092896
			],
			"translation":[
				0.2985331118106842,
				-2.384185791015625e-07,
				-1.2947380945149689e-08
			]
		},
		{
			"children":[
				34
			],
			"name":"SpineA_joint",
			"rotation":[
				-1.6953811965425558e-10,
				-5.318127715980836e-09,
				0.9925127029418945,
				0.12214167416095734
			],
			"scale":[
				1.0000027418136597,
				1,
				1
			],
			"translation":[
				-0.0018685904797166586,
				0.004737451206892729,
				-8.167832382666163e-11
			]
		},
		{
			"name":"TailD_joint",
			"rotation":[
				-8.558493469479345e-09,
				-1.188289822096067e-08,
				0.27291247248649597,
				0.9620388746261597
			],
			"scale":[
				0.9999998807907104,
				1.0000001192092896,
				1
			],
			"translation":[
				0.3339698612689972,
				2.1620653569698334e-06,
				1.4598373176966106e-08
			]
		},
		{
			"children":[
				36
			],
			"name":"TailC_joint",
			"rotation":[
				9.638930764666043e-10,
				-1.686042278015165e-11,
				-0.022042613476514816,
				0.9997570514678955
			],
			"scale":[
				1,
				0.9999999403953552,
				0.9999998807907104
			],
			"translation":[
				0.2952216863632202,
				2.201646566390991e-06,
				1.2914571634325966e-08
			]
		},
		{
			"children":[
				37
			],
			"name":"TailB_joint",
			"rotation":[
				1.1014496606454038e-11,
				3.4058494691180385e-08,
				-0.6271792650222778,
				0.7788749933242798
			],
			"scale":[
				1.0000001192092896,
				1.0000001192092896,
				1.0000001192092896
			],
			"translation":[
				0.24583478271961212,
				-5.066394805908203e-07,
				-1.0745490719443751e-08
			]
		},
		{
			"children":[
				38
			],
			"name":"TailA_joint",
			"rotation":[
				0.9966312646865845,
				0.0820130780339241,
				4.0047429754981254e-14,
				3.5849700985579602e-09
			],
			"scale":[
				0.9999874830245972,
				0.9999995827674866,
				1
			],
			"translation":[
				0.4089179039001465,
				-0.13038428127765656,
				1.7874373980930613e-08
			]
		},
		{
			"children":[
				6,
				10,
				35,
				39
			],
			"name":"CenterHip_joint",
			"rotation":[
				0.7071067690849304,
				-2.4688509547686087e-15,
				-0.7071067690849304,
				2.555446097581731e-15
			],
			"scale":[
				0.9999998211860657,
				0.9999997615814209,
				0.9999998211860657
			],
			"translation":[
				-5.292221620379874e-16,
				0.6146371364593506,
				-0.6112068295478821
			]
		},
		{
			"children":[
				40
			],
			"name":"CenterRoot_joint",
			"rotation":[
				-1.7763570511584873e-15,
				0,
				0,
				1
			],
			"scale":[
				0.9999999403953552,
				0.9999999403953552,
				0.9999999403953552
			],
			"translation":[
				-4.149081042539843e-17,
				0.7684822082519531,
				0.008821915835142136
			]
		},
		{
			"children":[
				41
			],
			"name":"WorldRoot2_joint",
			"rotation":[
				-1.7763570511584873e-15,
				0,
				0,
				1
			],
			"scale":[
				0.9999999403953552,
				0.9999999403953552,
				0.9999999403953552
			],
			"translation":[
				0,
				-1.1920928244535389e-07,
				8.470329472543003e-22
			]
		},
		{
			"children":[
				2,
				42
			],
			"name":"WorldRoot1_joint",
			"rotation":[
				-1.776357262916724e-15,
				0,
				0,
				1
			],
			"scale":[
				0.9999999403953552,
				0.9999998211860657,
				0.9999999403953552
			]
		},
		{
			"children":[
				0,
				43
			],
			"name":"npc_custom_tanHorse_mdl",
			"scale":[
				0.9999999403953552,
				0.9999999403953552,
				0.9999999403953552
			]
		},
		{
			"children":[
				44
			],
			"name":"npc_custom_tanHorse_mdl (merge)",
			"rotation":[
				-0.7071067690849304,
				0,
				0,
				0.7071067690849304
			],
			"scale":[
				0.9999999403953552,
				0.9999999403953552,
				0.9999999403953552
			]
		},
		{
			"mesh":0,
			"name":"WorldRoot1_joint.002",
			"skin":0
		},
		{
			"children":[
				46,
				45
			],
			"name":"Armature",
			"rotation":[
				0.7071068286895752,
				0,
				0,
				0.7071068286895752
			],
			"scale":[
				1.0115000009536743,
				1.0115000009536743,
				1.0115000009536743
			]
		}
	],
	"materials":[
		{
			"doubleSided":true,
			"extensions":{
				"KHR_materials_specular":{
					"specularColorFactor":[
						0.4000000059604645,
						0.4000000059604645,
						0.4000000059604645
					]
				}
			},
			"name":"tanHorse_body_FGC_mat",
			"pbrMetallicRoughness":{
				"baseColorTexture":{
					"index":0
				},
				"metallicFactor":0
			}
		},
		{
			"doubleSided":true,
			"extensions":{
				"KHR_materials_specular":{
					"specularColorFactor":[
						0.4000000059604645,
						0.4000000059604645,
						0.4000000059604645
					]
				}
			},
			"name":"tanHorse_leftPupil_FGCE_mat",
			"pbrMetallicRoughness":{
				"baseColorTexture":{
					"index":1
				},
				"metallicFactor":0
			}
		},
		{
			"doubleSided":true,
			"extensions":{
				"KHR_materials_specular":{
					"specularColorFactor":[
						0.4000000059604645,
						0.4000000059604645,
						0.4000000059604645
					]
				}
			},
			"name":"tanHorse_rightPupil_FGCE_mat",
			"pbrMetallicRoughness":{
				"baseColorTexture":{
					"index":2
				},
				"metallicFactor":0
			}
		}
	],
	"meshes":[
		{
			"name":"WorldRoot1_joint.003",
			"primitives":[
				{
					"attributes":{
						"POSITION":0,
						"NORMAL":1,
						"TEXCOORD_0":2,
						"JOINTS_0":3,
						"WEIGHTS_0":4
					},
					"indices":5,
					"material":0
				},
				{
					"attributes":{
						"POSITION":6,
						"NORMAL":7,
						"TEXCOORD_0":8,
						"JOINTS_0":9,
						"WEIGHTS_0":10
					},
					"indices":11,
					"material":1
				},
				{
					"attributes":{
						"POSITION":12,
						"NORMAL":13,
						"TEXCOORD_0":14,
						"JOINTS_0":15,
						"WEIGHTS_0":16
					},
					"indices":17,
					"material":2
				}
			]
		}
	],
	"textures":[
		{
			"sampler":0,
			"source":0
		},
		{
			"sampler":0,
			"source":1
		},
		{
			"sampler":0,
			"source":1
		}
	],
	"images":[
		{
			"mimeType":"image/png",
			"name":"npc_custom_tanHorse_col",
			"uri":"npc_custom_tanHorse_col.png"
		},
		{
			"mimeType":"image/png",
			"name":"npc_shared_pupil_col_Edited",
			"uri":"npc_shared_pupil_col_Edited.png"
		}
	],
	"skins":[
		{
			"inverseBindMatrices":18,
			"joints":[
				45,
				44,
				0,
				43,
				2,
				1,
				42,
				41,
				40,
				6,
				5,
				4,
				3,
				10,
				9,
				8,
				7,
				35,
				34,
				33,
				32,
				17,
				13,
				12,
				11,
				16,
				15,
				14,
				31,
				18,
				29,
				28,
				19,
				20,
				21,
				22,
				27,
				26,
				25,
				24,
				23,
				30,
				39,
				38,
				37,
				36
			],
			"name":"Armature"
		}
	],
	"accessors":[
		{
			"bufferView":0,
			"componentType":5126,
			"count":1958,
			"max":[
				0.3896234333515167,
				2.4569902420043945,
				2.6015641689300537
			],
			"min":[
				-0.39630770683288574,
				-0.0002472861669957638,
				-1.612490177154541
			],
			"type":"VEC3"
		},
		{
			"bufferView":1,
			"componentType":5126,
			"count":1958,
			"type":"VEC3"
		},
		{
			"bufferView":2,
			"componentType":5126,
			"count":1958,
			"type":"VEC2"
		},
		{
			"bufferView":3,
			"componentType":5121,
			"count":1958,
			"type":"VEC4"
		},
		{
			"bufferView":4,
			"componentType":5126,
			"count":1958,
			"type":"VEC4"
		},
		{
			"bufferView":5,
			"componentType":5123,
			"count":9096,
			"type":"SCALAR"
		},
		{
			"bufferView":6,
			"componentType":5126,
			"count":24,
			"max":[
				0.11951000243425369,
				2.154515266418457,
				1.244984745979309
			],
			"min":[
				0.026126466691493988,
				2.0722880363464355,
				1.189428448677063
			],
			"type":"VEC3"
		},
		{
			"bufferView":7,
			"componentType":5126,
			"count":24,
			"type":"VEC3"
		},
		{
			"bufferView":8,
			"componentType":5126,
			"count":24,
			"type":"VEC2"
		},
		{
			"bufferView":9,
			"componentType":5121,
			"count":24,
			"type":"VEC4"
		},
		{
			"bufferView":10,
			"componentType":5126,
			"count":24,
			"type":"VEC4"
		},
		{
			"bufferView":11,
			"componentType":5123,
			"count":102,
			"type":"SCALAR"
		},
		{
			"bufferView":12,
			"componentType":5126,
			"count":24,
			"max":[
				-0.02612639218568802,
				2.154515266418457,
				1.244984745979309
			],
			"min":[
				-0.11950996518135071,
				2.0722882747650146,
				1.189428448677063
			],
			"type":"VEC3"
		},
		{
			"bufferView":13,
			"componentType":5126,
			"count":24,
			"type":"VEC3"
		},
		{
			"bufferView":14,
			"componentType":5126,
			"count":24,
			"type":"VEC2"
		},
		{
			"bufferView":15,
			"componentType":5121,
			"count":24,
			"type":"VEC4"
		},
		{
			"bufferView":16,
			"componentType":5126,
			"count":24,
			"type":"VEC4"
		},
		{
			"bufferView":17,
			"componentType":5123,
			"count":102,
			"type":"SCALAR"
		},
		{
			"bufferView":18,
			"componentType":5126,
			"count":46,
			"type":"MAT4"
		}
	],
	"bufferViews":[
		{
			"buffer":0,
			"byteLength":23496,
			"byteOffset":0,
			"target":34962
		},
		{
			"buffer":0,
			"byteLength":23496,
			"byteOffset":23496,
			"target":34962
		},
		{
			"buffer":0,
			"byteLength":15664,
			"byteOffset":46992,
			"target":34962
		},
		{
			"buffer":0,
			"byteLength":7832,
			"byteOffset":62656,
			"target":34962
		},
		{
			"buffer":0,
			"byteLength":31328,
			"byteOffset":70488,
			"target":34962
		},
		{
			"buffer":0,
			"byteLength":18192,
			"byteOffset":101816,
			"target":34963
		},
		{
			"buffer":0,
			"byteLength":288,
			"byteOffset":120008,
			"target":34962
		},
		{
			"buffer":0,
			"byteLength":288,
			"byteOffset":120296,
			"target":34962
		},
		{
			"buffer":0,
			"byteLength":192,
			"byteOffset":120584,
			"target":34962
		},
		{
			"buffer":0,
			"byteLength":96,
			"byteOffset":120776,
			"target":34962
		},
		{
			"buffer":0,
			"byteLength":384,
			"byteOffset":120872,
			"target":34962
		},
		{
			"buffer":0,
			"byteLength":204,
			"byteOffset":121256,
			"target":34963
		},
		{
			"buffer":0,
			"byteLength":288,
			"byteOffset":121460,
			"target":34962
		},
		{
			"buffer":0,
			"byteLength":288,
			"byteOffset":121748,
			"target":34962
		},
		{
			"buffer":0,
			"byteLength":192,
			"byteOffset":122036,
			"target":34962
		},
		{
			"buffer":0,
			"byteLength":96,
			"byteOffset":122228,
			"target":34962
		},
		{
			"buffer":0,
			"byteLength":384,
			"byteOffset":122324,
			"target":34962
		},
		{
			"buffer":0,
			"byteLength":204,
			"byteOffset":122708,
			"target":34963
		},
		{
			"buffer":0,
			"byteLength":2944,
			"byteOffset":122912
		}
	],
	"samplers":[
		{
			"magFilter":9729,
			"minFilter":9987
		}
	],
	"buffers":[
		{
			"byteLength":125856,
			"uri":"Tan%20Horse.bin"
		}
	]
}
