{
	"asset":{
		"generator":"Khronos glTF Blender I/O v5.0.21",
		"version":"2.0"
	},
	"extensionsUsed":[
		"KHR_materials_specular"
	],
	"scene":0,
	"scenes":[
		{
			"name":"Scene",
			"nodes":[
				33
			]
		}
	],
	"nodes":[
		{
			"name":"racistSunflower_geo"
		},
		{
			"name":"PupilsAnim_joint",
			"scale":[
				9.999999960041972e-13,
				9.999999960041972e-13,
				1
			],
			"translation":[
				0,
				0,
				0.10854047536849976
			]
		},
		{
			"children":[
				1
			],
			"name":"FacialAnim_joint",
			"scale":[
				9.999999960041972e-13,
				9.999999960041972e-13,
				1
			]
		},
		{
			"name":"LeftWeapon_joint",
			"translation":[
				0,
				0,
				0.29999998211860657
			]
		},
		{
			"name":"RightWeapon_joint",
			"translation":[
				0,
				0,
				0.29999998211860657
			]
		},
		{
			"name":"LeftBotLeafC_joint",
			"rotation":[
				-0.07200763374567032,
				-0.09742104262113571,
				-0.3354594111442566,
				0.9342328906059265
			],
			"scale":[
				0.9999998807907104,
				0.9999999403953552,
				1
			],
			"translation":[
				0.1799999624490738,
				-1.6298145055770874e-08,
				0
			]
		},
		{
			"children":[
				5
			],
			"name":"LeftBotLeafB_joint",
			"rotation":[
				0.16026197373867035,
				-0.17878355085849762,
				-0.22265003621578217,
				0.944870114326477
			],
			"scale":[
				1.0000001192092896,
				1,
				1
			],
			"translation":[
				0.09000001102685928,
				5.113652434829419e-08,
				9.313225746154785e-10
			]
		},
		{
			"children":[
				6
			],
			"name":"LeftBotLeafA_joint",
			"rotation":[
				0.04537368193268776,
				0.06469005346298218,
				-0.572436511516571,
				0.8161329030990601
			],
			"scale":[
				0.9999998807907104,
				1,
				0.9999999403953552
			],
			"translation":[
				0.10046064853668213,
				-0.0015935435658320785,
				0.00033695902675390244
			]
		},
		{
			"name":"RightBotLeafC_joint",
			"rotation":[
				0.006761813070625067,
				0.13140878081321716,
				-0.37380102276802063,
				0.9181278944015503
			],
			"scale":[
				1.0000001192092896,
				0.9999999403953552,
				1
			],
			"translation":[
				0.23000001907348633,
				-4.470348358154297e-08,
				-7.450580596923828e-09
			]
		},
		{
			"children":[
				8
			],
			"name":"RightBotLeafB_joint",
			"rotation":[
				-0.09904385358095169,
				0.15390007197856903,
				-0.6969295144081116,
				0.6933934092521667
			],
			"scale":[
				0.9999998211860657,
				0.9999997615814209,
				1.0000001192092896
			],
			"translation":[
				0.2149999439716339,
				-7.264316082000732e-08,
				-3.3527612686157227e-08
			]
		},
		{
			"children":[
				9
			],
			"name":"RightBotLeafA_joint",
			"rotation":[
				-0.948861837387085,
				-0.2638670802116394,
				0.01319847907871008,
				0.17280399799346924
			],
			"scale":[
				0.9999998807907104,
				0.9999998807907104,
				0.9999998211860657
			],
			"translation":[
				0.10046064853668213,
				-0.001593543915078044,
				0.00033695902675390244
			]
		},
		{
			"name":"LeftTopLeafC_joint",
			"rotation":[
				-0.1310262680053711,
				0.03700888156890869,
				0.13634583353996277,
				0.9812605381011963
			],
			"scale":[
				0.9999998211860657,
				1,
				1.0000001192092896
			],
			"translation":[
				0.15000000596046448,
				-3.026798367500305e-08,
				9.138602763414383e-09
			]
		},
		{
			"children":[
				11
			],
			"name":"LeftTopLeafB_joint",
			"rotation":[
				0.20595210790634155,
				-0.11226759105920792,
				-0.40523526072502136,
				0.8836085796356201
			],
			"scale":[
				0.9999998807907104,
				0.9999999403953552,
				0.9999997615814209
			],
			"translation":[
				0.09000002592802048,
				2.148681232938543e-08,
				-3.4924596548080444e-10
			]
		},
		{
			"children":[
				12
			],
			"name":"LeftTopLeafA_joint",
			"rotation":[
				0.011721565388143063,
				-0.0035506244748830795,
				-0.5113620758056641,
				0.85927814245224
			],
			"scale":[
				1,
				0.9999998211860657,
				1.0000001192092896
			],
			"translation":[
				0.09722375869750977,
				-0.0015935652190819383,
				0.00033695902675390244
			]
		},
		{
			"name":"RightTopLeafC_joint",
			"rotation":[
				-0.05518252030014992,
				-0.0010209025349467993,
				-0.2539321482181549,
				0.9656460881233215
			],
			"scale":[
				0.9999998211860657,
				0.9999998807907104,
				0.9999997615814209
			],
			"translation":[
				0.17000001668930054,
				8.940696716308594e-08,
				3.725290298461914e-09
			]
		},
		{
			"children":[
				14
			],
			"name":"RightTopLeafB_joint",
			"rotation":[
				-0.13132701814174652,
				0.06079232692718506,
				-0.42985764145851135,
				0.8912238478660583
			],
			"scale":[
				1.0000001192092896,
				1,
				0.9999998807907104
			],
			"translation":[
				0.09000007063150406,
				1.4528632164001465e-07,
				-7.450580596923828e-09
			]
		},
		{
			"children":[
				15
			],
			"name":"RightTopLeafA_joint",
			"rotation":[
				-0.8832063674926758,
				-0.44889163970947266,
				-0.04320526495575905,
				0.1287485808134079
			],
			"scale":[
				0.9999998807907104,
				0.9999998807907104,
				0.9999999403953552
			],
			"translation":[
				0.12414127588272095,
				-0.0015935603296384215,
				0.00033695902675390244
			]
		},
		{
			"name":"Nose_joint",
			"rotation":[
				2.1779688292531676e-15,
				7.105427357601002e-15,
				-9.084996930168216e-16,
				1
			],
			"translation":[
				0.10090962052345276,
				-7.450582373280668e-09,
				-5.610261588628873e-09
			]
		},
		{
			"children":[
				17
			],
			"name":"Head_joint",
			"rotation":[
				-2.838260293458461e-08,
				1.912249558699841e-08,
				-3.026798012228937e-08,
				1
			],
			"scale":[
				1,
				0.9999999403953552,
				1
			],
			"translation":[
				-5.913226852616305e-11,
				-5.48172618408671e-16,
				-1.4785306312603552e-09
			]
		},
		{
			"children":[
				18
			],
			"name":"StemI_joint",
			"rotation":[
				0.5277003645896912,
				-0.47067221999168396,
				-0.47067221999168396,
				0.5277003645896912
			],
			"scale":[
				0.9999999403953552,
				1,
				0.9999999403953552
			],
			"translation":[
				0.15442141890525818,
				-2.60770320892334e-08,
				-8.557059061331529e-09
			]
		},
		{
			"children":[
				19
			],
			"name":"StemH_joint",
			"rotation":[
				-0.7059560418128967,
				-0.04032507538795471,
				-0.04032503440976143,
				0.705955982208252
			],
			"translation":[
				0.18567895889282227,
				-1.574128739682823e-14,
				-6.203038083185675e-12
			]
		},
		{
			"children":[
				20
			],
			"name":"StemG_joint",
			"translation":[
				0.15299081802368164,
				5.0245088105871534e-15,
				3.467448550509289e-12
			]
		},
		{
			"children":[
				21
			],
			"name":"StemF_joint",
			"translation":[
				0.14492714405059814,
				-2.1153970231318348e-15,
				7.204903340607416e-12
			]
		},
		{
			"children":[
				22
			],
			"name":"StemE_joint",
			"rotation":[
				-2.524354896707238e-29,
				0,
				2.117582368135751e-22,
				1
			],
			"translation":[
				0.14548933506011963,
				-1.4901162970204496e-08,
				8.551381824872806e-12
			]
		},
		{
			"children":[
				13,
				16,
				23
			],
			"name":"StemD_joint",
			"rotation":[
				0,
				0,
				1.504632769052528e-36,
				1
			],
			"scale":[
				1,
				0.9999999403953552,
				1
			],
			"translation":[
				0.15113228559494019,
				4.948453298736716e-15,
				-3.446132268436486e-12
			]
		},
		{
			"children":[
				24
			],
			"name":"StemC_joint",
			"translation":[
				0.15254470705986023,
				-5.729844580710597e-15,
				-4.913403017781093e-12
			]
		},
		{
			"children":[
				7,
				10,
				25
			],
			"name":"StemB_joint",
			"translation":[
				0.2937898337841034,
				-6.402806751589982e-16,
				3.396394276933279e-12
			]
		},
		{
			"children":[
				26
			],
			"name":"StemA_joint",
			"rotation":[
				0,
				0,
				0.7071067690849304,
				0.7071067690849304
			],
			"translation":[
				0,
				0,
				-0.00033695902675390244
			]
		},
		{
			"children":[
				3,
				4,
				27
			],
			"name":"WorldRoot2_joint"
		},
		{
			"children":[
				2,
				28
			],
			"name":"WorldRoot1_joint"
		},
		{
			"children":[
				0,
				29
			],
			"name":"npc_custom_racistSunflower_mdl"
		},
		{
			"children":[
				30
			],
			"name":"npc_custom_racistSunflower_mdl (merge)",
			"rotation":[
				-0.7071067690849304,
				0,
				0,
				0.7071067690849304
			]
		},
		{
			"mesh":0,
			"name":"WorldRoot1_joint",
			"skin":0
		},
		{
			"children":[
				32,
				31
			],
			"name":"Armature",
			"rotation":[
				0.7071068286895752,
				0,
				0,
				0.7071068286895752
			]
		}
	],
	"materials":[
		{
			"doubleSided":true,
			"extensions":{
				"KHR_materials_specular":{
					"specularColorFactor":[
						0.4000000059604645,
						0.4000000059604645,
						0.4000000059604645
					]
				}
			},
			"name":"racistSunflower_body_FGC_mat",
			"pbrMetallicRoughness":{
				"baseColorTexture":{
					"index":0
				},
				"metallicFactor":0
			}
		},
		{
			"doubleSided":true,
			"extensions":{
				"KHR_materials_specular":{
					"specularColorFactor":[
						0.4000000059604645,
						0.4000000059604645,
						0.4000000059604645
					]
				}
			},
			"name":"racistSunflower_mouthnpc_FGCD_mat",
			"pbrMetallicRoughness":{
				"baseColorTexture":{
					"index":1
				},
				"metallicFactor":0
			}
		},
		{
			"alphaMode":"BLEND",
			"doubleSided":true,
			"extensions":{
				"KHR_materials_specular":{
					"specularColorFactor":[
						0.4000000059604645,
						0.4000000059604645,
						0.4000000059604645
					]
				}
			},
			"name":"racistSunflower_mouthnpc_FGCD_mat.001",
			"pbrMetallicRoughness":{
				"baseColorTexture":{
					"index":2
				},
				"metallicFactor":0
			}
		}
	],
	"meshes":[
		{
			"name":"WorldRoot1_joint",
			"primitives":[
				{
					"attributes":{
						"POSITION":0,
						"NORMAL":1,
						"TEXCOORD_0":2,
						"JOINTS_0":3,
						"WEIGHTS_0":4
					},
					"indices":5,
					"material":0
				},
				{
					"attributes":{
						"POSITION":6,
						"NORMAL":7,
						"TEXCOORD_0":8,
						"JOINTS_0":9,
						"WEIGHTS_0":10
					},
					"indices":11,
					"material":1
				},
				{
					"attributes":{
						"POSITION":12,
						"NORMAL":13,
						"TEXCOORD_0":14,
						"JOINTS_0":15,
						"WEIGHTS_0":16
					},
					"indices":11,
					"material":2
				}
			]
		}
	],
	"textures":[
		{
			"sampler":0,
			"source":0
		},
		{
			"sampler":0,
			"source":0
		},
		{
			"sampler":0,
			"source":1
		}
	],
	"images":[
		{
			"mimeType":"image/png",
			"name":"npc_custom_racistSunflower_col",
			"uri":"npc_custom_racistSunflower_col.png"
		},
		{
			"mimeType":"image/png",
			"name":"npc_custom_mouth_greasedUpDeafGuy_col",
			"uri":"npc_custom_mouth_greasedUpDeafGuy_col.png"
		}
	],
	"skins":[
		{
			"inverseBindMatrices":17,
			"joints":[
				31,
				30,
				0,
				29,
				2,
				1,
				28,
				3,
				4,
				27,
				26,
				7,
				6,
				5,
				10,
				9,
				8,
				25,
				24,
				13,
				12,
				11,
				16,
				15,
				14,
				23,
				22,
				21,
				20,
				19,
				18,
				17
			],
			"name":"Armature"
		}
	],
	"accessors":[
		{
			"bufferView":0,
			"componentType":5126,
			"count":484,
			"max":[
				0.4513964354991913,
				1.816306471824646,
				0.19753825664520264
			],
			"min":[
				-0.43669742345809937,
				-9.50018952394771e-10,
				-0.08517216891050339
			],
			"type":"VEC3"
		},
		{
			"bufferView":1,
			"componentType":5126,
			"count":484,
			"type":"VEC3"
		},
		{
			"bufferView":2,
			"componentType":5126,
			"count":484,
			"type":"VEC2"
		},
		{
			"bufferView":3,
			"componentType":5121,
			"count":484,
			"type":"VEC4"
		},
		{
			"bufferView":4,
			"componentType":5126,
			"count":484,
			"type":"VEC4"
		},
		{
			"bufferView":5,
			"componentType":5123,
			"count":1476,
			"type":"SCALAR"
		},
		{
			"bufferView":6,
			"componentType":5126,
			"count":19,
			"max":[
				0.15388374030590057,
				1.5357542037963867,
				0.11039287596940994
			],
			"min":[
				-0.15543584525585175,
				1.2263654470443726,
				0.11039219051599503
			],
			"type":"VEC3"
		},
		{
			"bufferView":7,
			"componentType":5126,
			"count":19,
			"type":"VEC3"
		},
		{
			"bufferView":8,
			"componentType":5126,
			"count":19,
			"type":"VEC2"
		},
		{
			"bufferView":9,
			"componentType":5121,
			"count":19,
			"type":"VEC4"
		},
		{
			"bufferView":10,
			"componentType":5126,
			"count":19,
			"type":"VEC4"
		},
		{
			"bufferView":11,
			"componentType":5123,
			"count":54,
			"type":"SCALAR"
		},
		{
			"bufferView":12,
			"componentType":5126,
			"count":19,
			"max":[
				0.15388374030590057,
				1.5357542037963867,
				0.11103115230798721
			],
			"min":[
				-0.15543584525585175,
				1.2263654470443726,
				0.1110304668545723
			],
			"type":"VEC3"
		},
		{
			"bufferView":13,
			"componentType":5126,
			"count":19,
			"type":"VEC3"
		},
		{
			"bufferView":14,
			"componentType":5126,
			"count":19,
			"type":"VEC2"
		},
		{
			"bufferView":15,
			"componentType":5121,
			"count":19,
			"type":"VEC4"
		},
		{
			"bufferView":16,
			"componentType":5126,
			"count":19,
			"type":"VEC4"
		},
		{
			"bufferView":17,
			"componentType":5126,
			"count":32,
			"type":"MAT4"
		}
	],
	"bufferViews":[
		{
			"buffer":0,
			"byteLength":5808,
			"byteOffset":0,
			"target":34962
		},
		{
			"buffer":0,
			"byteLength":5808,
			"byteOffset":5808,
			"target":34962
		},
		{
			"buffer":0,
			"byteLength":3872,
			"byteOffset":11616,
			"target":34962
		},
		{
			"buffer":0,
			"byteLength":1936,
			"byteOffset":15488,
			"target":34962
		},
		{
			"buffer":0,
			"byteLength":7744,
			"byteOffset":17424,
			"target":34962
		},
		{
			"buffer":0,
			"byteLength":2952,
			"byteOffset":25168,
			"target":34963
		},
		{
			"buffer":0,
			"byteLength":228,
			"byteOffset":28120,
			"target":34962
		},
		{
			"buffer":0,
			"byteLength":228,
			"byteOffset":28348,
			"target":34962
		},
		{
			"buffer":0,
			"byteLength":152,
			"byteOffset":28576,
			"target":34962
		},
		{
			"buffer":0,
			"byteLength":76,
			"byteOffset":28728,
			"target":34962
		},
		{
			"buffer":0,
			"byteLength":304,
			"byteOffset":28804,
			"target":34962
		},
		{
			"buffer":0,
			"byteLength":108,
			"byteOffset":29108,
			"target":34963
		},
		{
			"buffer":0,
			"byteLength":228,
			"byteOffset":29216,
			"target":34962
		},
		{
			"buffer":0,
			"byteLength":228,
			"byteOffset":29444,
			"target":34962
		},
		{
			"buffer":0,
			"byteLength":152,
			"byteOffset":29672,
			"target":34962
		},
		{
			"buffer":0,
			"byteLength":76,
			"byteOffset":29824,
			"target":34962
		},
		{
			"buffer":0,
			"byteLength":304,
			"byteOffset":29900,
			"target":34962
		},
		{
			"buffer":0,
			"byteLength":2048,
			"byteOffset":30204
		}
	],
	"samplers":[
		{
			"magFilter":9729,
			"minFilter":9987
		}
	],
	"buffers":[
		{
			"byteLength":32252,
			"uri":"Racist%20Sunflower.bin"
		}
	]
}
