{
	"asset":{
		"generator":"Khronos glTF Blender I/O v5.0.21",
		"version":"2.0"
	},
	"extensionsUsed":[
		"KHR_materials_specular"
	],
	"scene":0,
	"scenes":[
		{
			"name":"Scene",
			"nodes":[
				40
			]
		}
	],
	"nodes":[
		{
			"name":"PupilsAnim_joint",
			"translation":[
				0,
				0,
				0.10854047536849976
			]
		},
		{
			"children":[
				0
			],
			"name":"FacialAnim_joint"
		},
		{
			"name":"LeftToe_joint",
			"rotation":[
				-0.014876177534461021,
				-0.005960692651569843,
				-0.3719148635864258,
				0.9281285405158997
			],
			"scale":[
				1,
				0.9999999403953552,
				0.9999997615814209
			],
			"translation":[
				0.1981159746646881,
				-1.3715180102735758e-07,
				5.2174982556607574e-08
			]
		},
		{
			"children":[
				2
			],
			"name":"LeftAnkle_joint",
			"rotation":[
				0.02498512715101242,
				0.011340259574353695,
				-0.44087615609169006,
				0.8971484899520874
			],
			"scale":[
				1,
				0.9999998807907104,
				1
			],
			"translation":[
				0.22199992835521698,
				4.598405212163925e-08,
				1.6676494851708412e-08
			]
		},
		{
			"children":[
				3
			],
			"name":"LeftKnee_joint",
			"rotation":[
				-1.281178541034933e-08,
				-7.177693817084219e-08,
				0.030856873840093613,
				0.9995238184928894
			],
			"scale":[
				1.0000001192092896,
				1,
				1
			],
			"translation":[
				0.30749985575675964,
				-5.020410753786564e-10,
				1.1525753507157788e-07
			]
		},
		{
			"children":[
				4
			],
			"name":"LeftHip_joint",
			"rotation":[
				-0.9994826316833496,
				0.019050734117627144,
				0.025914303958415985,
				0.00018154270946979523
			],
			"scale":[
				1.0000004768371582,
				1,
				0.9999999403953552
			],
			"translation":[
				0.10499995201826096,
				-0.007000039331614971,
				-0.10600002110004425
			]
		},
		{
			"name":"RightToe_joint",
			"rotation":[
				0.0003362038405612111,
				0.00013471760030370206,
				-0.37195923924446106,
				0.9282490015029907
			],
			"scale":[
				0.9999998807907104,
				1,
				0.9999998807907104
			],
			"translation":[
				-0.19800007343292236,
				6.475602276623249e-09,
				4.721232471638359e-08
			]
		},
		{
			"children":[
				6
			],
			"name":"RightAnkle_joint",
			"rotation":[
				0.0102770384401083,
				0.018566351383924484,
				-0.440643310546875,
				0.8974314332008362
			],
			"scale":[
				0.9999998807907104,
				0.9999999403953552,
				0.9999997615814209
			],
			"translation":[
				-0.22200004756450653,
				-7.62520357966423e-09,
				-2.7346686692908406e-08
			]
		},
		{
			"children":[
				7
			],
			"name":"RightKnee_joint",
			"rotation":[
				2.596614422145649e-06,
				-8.416991477133706e-05,
				0.03086373209953308,
				0.9995235800743103
			],
			"scale":[
				1,
				1,
				1.0000001192092896
			],
			"translation":[
				-0.30750009417533875,
				3.017339622601867e-08,
				-2.3140273697208613e-08
			]
		},
		{
			"children":[
				8
			],
			"name":"RightHip_joint",
			"rotation":[
				0.019050976261496544,
				0.9994834661483765,
				-0.00017852320161182433,
				0.025881165638566017
			],
			"scale":[
				1,
				0.9999998211860657,
				1
			],
			"translation":[
				0.10499996691942215,
				-0.007000058423727751,
				0.10600000619888306
			]
		},
		{
			"children":[
				5,
				9
			],
			"name":"CenterHip_joint",
			"rotation":[
				0.4999999701976776,
				-0.5,
				-0.5,
				0.5
			],
			"scale":[
				0.9999999403953552,
				0.9999997615814209,
				0.9999998807907104
			],
			"translation":[
				-6.617444900424222e-24,
				-6.660318963014333e-10,
				2.7679547542902583e-10
			]
		},
		{
			"name":"Jaw_joint",
			"rotation":[
				-6.753861674161895e-16,
				4.593513069917066e-12,
				-7.450580596923828e-09,
				1
			],
			"translation":[
				-0.03173745051026344,
				0.2268732190132141,
				-1.387441384004262e-09
			]
		},
		{
			"name":"Nose_joint",
			"rotation":[
				-0.49545708298683167,
				-0.50450199842453,
				-0.49545708298683167,
				0.50450199842453
			],
			"scale":[
				0.9999998807907104,
				0.9999998807907104,
				1
			],
			"translation":[
				0.19661302864551544,
				0.18681906163692474,
				8.595138822897752e-09
			]
		},
		{
			"children":[
				11,
				12
			],
			"name":"Head_joint",
			"rotation":[
				3.953853355831427e-10,
				2.317351822586633e-12,
				-0.009044869802892208,
				0.9999591112136841
			],
			"scale":[
				0.9999998807907104,
				0.9999998807907104,
				1
			],
			"translation":[
				0.2956109046936035,
				-0.005366531666368246,
				1.2921572256630043e-08
			]
		},
		{
			"name":"LeftIndexFinger_joint",
			"rotation":[
				-9.685754776000977e-08,
				1.4156103134155273e-07,
				2.421438694000244e-07,
				1
			],
			"translation":[
				0.13572239875793457,
				0.04991680383682251,
				0.0008654110133647919
			]
		},
		{
			"name":"LeftMidFinger_joint",
			"rotation":[
				-6.51925802230835e-08,
				1.5087425708770752e-07,
				1.86264500712241e-07,
				1
			],
			"scale":[
				1.0000001192092896,
				1,
				0.9999999403953552
			],
			"translation":[
				0.1371947079896927,
				0.0033968836069107056,
				-0.0014659427106380463
			]
		},
		{
			"name":"LeftPinkyFinger_joint",
			"rotation":[
				-7.450580596923828e-08,
				1.4528632164001465e-07,
				2.384185791015625e-07,
				1
			],
			"scale":[
				1,
				1,
				0.9999999403953552
			],
			"translation":[
				0.1369810253381729,
				-0.04501818120479584,
				-0.003562428057193756
			]
		},
		{
			"name":"LeftThumb_joint",
			"rotation":[
				0.08875507116317749,
				-0.14572003483772278,
				0.03007565066218376,
				0.9848775267601013
			],
			"scale":[
				0.9999999403953552,
				0.9999999403953552,
				1
			],
			"translation":[
				0.059373512864112854,
				0.10219240188598633,
				0.015469163656234741
			]
		},
		{
			"name":"LeftWeapon_joint",
			"rotation":[
				0.05149524658918381,
				0.7083881497383118,
				0.010654978454113007,
				0.7038614749908447
			],
			"scale":[
				0.9999998211860657,
				0.9999998807907104,
				1
			],
			"translation":[
				0.11218826472759247,
				-0.0003286600112915039,
				0.02797524631023407
			]
		},
		{
			"children":[
				14,
				15,
				16,
				17,
				18
			],
			"name":"LeftHand_joint",
			"rotation":[
				3.725290298461914e-08,
				-1.0691583156585693e-06,
				-7.078051567077637e-08,
				1
			],
			"scale":[
				1,
				1,
				1.0000001192092896
			],
			"translation":[
				0.22649997472763062,
				7.450580596923828e-09,
				-1.7508864402770996e-07
			]
		},
		{
			"children":[
				19
			],
			"name":"LeftElbow_joint",
			"rotation":[
				0.7066829800605774,
				-0.024479664862155914,
				0.02447952702641487,
				0.7066828608512878
			],
			"scale":[
				1.0000001192092896,
				0.9999998807907104,
				0.9999999403953552
			],
			"translation":[
				0.2955000400543213,
				5.029141902923584e-08,
				1.4901161193847656e-08
			]
		},
		{
			"children":[
				20
			],
			"name":"LeftShoulder_joint",
			"rotation":[
				-0.00711106788367033,
				0.6492431163787842,
				0.653172492980957,
				0.3896133303642273
			],
			"scale":[
				0.9999999403953552,
				0.9999998807907104,
				1.000000238418579
			],
			"translation":[
				-0.17400000989437103,
				-4.999402136718345e-08,
				8.234665216377834e-08
			]
		},
		{
			"children":[
				21
			],
			"name":"LeftCollar_joint",
			"rotation":[
				0.006395685952156782,
				0.7070778608322144,
				-0.006395685952156782,
				0.7070778608322144
			],
			"scale":[
				0.9999999403953552,
				0.9999997019767761,
				0.9999998211860657
			],
			"translation":[
				0.15899991989135742,
				-0.03300000727176666,
				0.05500000715255737
			]
		},
		{
			"name":"RightIndexFinger_joint",
			"rotation":[
				-2.4400651454925537e-07,
				1.6763806343078613e-07,
				-8.568167686462402e-08,
				1
			],
			"translation":[
				-0.13572239875793457,
				-0.049916744232177734,
				-0.0008652731776237488
			]
		},
		{
			"name":"RightMidFinger_joint",
			"rotation":[
				-2.551823854446411e-07,
				1.1734664440155029e-07,
				-3.725290298461914e-08,
				1
			],
			"translation":[
				-0.1371946930885315,
				-0.0033967792987823486,
				0.0014661811292171478
			]
		},
		{
			"name":"RightPinkyFinger_joint",
			"rotation":[
				-4.0978193283081055e-08,
				-3.725290298461914e-09,
				-3.91155481338501e-08,
				1
			],
			"translation":[
				-0.1369810700416565,
				0.045018270611763,
				0.003562506288290024
			]
		},
		{
			"name":"RightThumb_joint",
			"rotation":[
				0.08875497430562973,
				-0.14572012424468994,
				0.0300754364579916,
				0.9848775267601013
			],
			"scale":[
				1,
				1.000000238418579,
				1.000000238418579
			],
			"translation":[
				-0.05937356501817703,
				-0.10219234228134155,
				-0.015469074249267578
			]
		},
		{
			"name":"RightWeapon_joint",
			"rotation":[
				-0.7038680911064148,
				-0.010575054213404655,
				0.70838862657547,
				0.05141519755125046
			],
			"scale":[
				1.000009298324585,
				0.9999999403953552,
				1.000020980834961
			],
			"translation":[
				-0.11218761652708054,
				0.0002643167972564697,
				-0.027978554368019104
			]
		},
		{
			"children":[
				23,
				24,
				25,
				26,
				27
			],
			"name":"RightHand_joint",
			"rotation":[
				1.8067662210796698e-07,
				-1.6428532489953795e-06,
				-9.313225746154785e-09,
				1
			],
			"scale":[
				1,
				0.9999997615814209,
				0.9999997615814209
			],
			"translation":[
				-0.22650004923343658,
				5.960464477539063e-08,
				-3.725290298461914e-08
			]
		},
		{
			"children":[
				28
			],
			"name":"RightElbow_joint",
			"rotation":[
				2.0315013671279303e-07,
				-1.3102252296448569e-06,
				0.0346197746694088,
				0.9994005560874939
			],
			"scale":[
				0.9999999403953552,
				1.0000001192092896,
				0.9999998211860657
			],
			"translation":[
				-0.29550009965896606,
				-2.1606683731079102e-07,
				-5.038455128669739e-06
			]
		},
		{
			"children":[
				29
			],
			"name":"RightShoulder_joint",
			"rotation":[
				0.27050143480300903,
				0.9209497570991516,
				0.002676186617463827,
				0.2804877460002899
			],
			"scale":[
				0.9999997615814209,
				0.9999998807907104,
				1.0000001192092896
			],
			"translation":[
				0.17400003969669342,
				-1.1768074514861837e-08,
				4.5428848238771025e-08
			]
		},
		{
			"children":[
				30
			],
			"name":"RightCollar_joint",
			"rotation":[
				-0.7070779204368591,
				0.006395682226866484,
				0.7070778012275696,
				0.006395681761205196
			],
			"scale":[
				0.9999998807907104,
				0.9999997019767761,
				0.9999998211860657
			],
			"translation":[
				0.15899991989135742,
				-0.03300000727176666,
				-0.05499999225139618
			]
		},
		{
			"children":[
				13,
				22,
				31
			],
			"name":"SpineB_joint",
			"rotation":[
				4.632211430296955e-23,
				0,
				0,
				1
			],
			"translation":[
				0.20610761642456055,
				-2.9797313061408204e-08,
				9.009248458369257e-09
			]
		},
		{
			"children":[
				32
			],
			"name":"SpineA_joint",
			"rotation":[
				0.5,
				0.5,
				0.5,
				0.5
			],
			"scale":[
				1,
				0.9999999403953552,
				1
			],
			"translation":[
				6.617444900424222e-24,
				-6.660318963014333e-10,
				2.7679547542902583e-10
			]
		},
		{
			"children":[
				10,
				33
			],
			"name":"CenterRoot_joint",
			"translation":[
				-4.149081042539843e-17,
				0.7684822082519531,
				0.00882191676646471
			]
		},
		{
			"children":[
				34
			],
			"name":"WorldRoot2_joint"
		},
		{
			"children":[
				1,
				35
			],
			"name":"WorldRoot1_joint"
		},
		{
			"children":[
				36
			],
			"name":"npc_custom_seamus_mdl"
		},
		{
			"children":[
				37
			],
			"name":"npc_custom_seamus_mdl (merge)",
			"rotation":[
				-0.7071067690849304,
				0,
				0,
				0.7071067690849304
			]
		},
		{
			"mesh":0,
			"name":"seamus_geo",
			"skin":0
		},
		{
			"children":[
				39,
				38
			],
			"name":"Armature",
			"rotation":[
				0.7071068286895752,
				0,
				0,
				0.7071068286895752
			]
		}
	],
	"materials":[
		{
			"doubleSided":true,
			"extensions":{
				"KHR_materials_specular":{
					"specularColorFactor":[
						0.4000000059604645,
						0.4000000059604645,
						0.4000000059604645
					]
				}
			},
			"name":"seamus_body_FGF_mat",
			"pbrMetallicRoughness":{
				"baseColorTexture":{
					"index":0
				},
				"metallicFactor":0
			}
		},
		{
			"doubleSided":true,
			"extensions":{
				"KHR_materials_specular":{
					"specularColorFactor":[
						0.4000000059604645,
						0.4000000059604645,
						0.4000000059604645
					]
				}
			},
			"name":"seamus_leftPupil_FGCE_mat",
			"pbrMetallicRoughness":{
				"baseColorTexture":{
					"index":1
				},
				"metallicFactor":0
			}
		},
		{
			"alphaMode":"BLEND",
			"doubleSided":true,
			"extensions":{
				"KHR_materials_specular":{
					"specularColorFactor":[
						0.4000000059604645,
						0.4000000059604645,
						0.4000000059604645
					]
				}
			},
			"name":"seamus_brows_FGFG_mat",
			"pbrMetallicRoughness":{
				"baseColorTexture":{
					"index":2
				},
				"metallicFactor":0,
				"roughnessFactor":0.5527864098548889
			}
		}
	],
	"meshes":[
		{
			"name":"seamus_geo",
			"primitives":[
				{
					"attributes":{
						"POSITION":0,
						"NORMAL":1,
						"TEXCOORD_0":2,
						"JOINTS_0":3,
						"WEIGHTS_0":4
					},
					"indices":5,
					"material":0
				},
				{
					"attributes":{
						"POSITION":6,
						"NORMAL":7,
						"TEXCOORD_0":8,
						"JOINTS_0":9,
						"WEIGHTS_0":10
					},
					"indices":11,
					"material":1
				},
				{
					"attributes":{
						"POSITION":12,
						"NORMAL":13,
						"TEXCOORD_0":14,
						"JOINTS_0":15,
						"WEIGHTS_0":16
					},
					"indices":17,
					"material":2
				}
			]
		}
	],
	"textures":[
		{
			"sampler":0,
			"source":0
		},
		{
			"sampler":0,
			"source":1
		},
		{
			"sampler":0,
			"source":2
		}
	],
	"images":[
		{
			"mimeType":"image/png",
			"name":"npc_custom_seamus_col",
			"uri":"npc_custom_seamus_col.png"
		},
		{
			"mimeType":"image/png",
			"name":"npc_shared_pupil_col_Edited",
			"uri":"npc_shared_pupil_col_Edited.png"
		},
		{
			"mimeType":"image/png",
			"name":"npc_shared_browsSeamus_col",
			"uri":"npc_shared_browsSeamus_col.png"
		}
	],
	"skins":[
		{
			"inverseBindMatrices":18,
			"joints":[
				38,
				37,
				36,
				1,
				0,
				35,
				34,
				10,
				5,
				4,
				3,
				2,
				9,
				8,
				7,
				6,
				33,
				32,
				13,
				11,
				12,
				22,
				21,
				20,
				19,
				14,
				15,
				16,
				17,
				18,
				31,
				30,
				29,
				28,
				23,
				24,
				25,
				26,
				27
			],
			"name":"Armature"
		}
	],
	"accessors":[
		{
			"bufferView":0,
			"componentType":5126,
			"count":1833,
			"max":[
				0.6758526563644409,
				1.7872222661972046,
				0.34540674090385437
			],
			"min":[
				-0.6758524775505066,
				6.219116333028296e-10,
				-0.17537778615951538
			],
			"type":"VEC3"
		},
		{
			"bufferView":1,
			"componentType":5126,
			"count":1833,
			"type":"VEC3"
		},
		{
			"bufferView":2,
			"componentType":5126,
			"count":1833,
			"type":"VEC2"
		},
		{
			"bufferView":3,
			"componentType":5121,
			"count":1833,
			"type":"VEC4"
		},
		{
			"bufferView":4,
			"componentType":5126,
			"count":1833,
			"type":"VEC4"
		},
		{
			"bufferView":5,
			"componentType":5123,
			"count":6576,
			"type":"SCALAR"
		},
		{
			"bufferView":6,
			"componentType":5126,
			"count":28,
			"max":[
				0.10972399264574051,
				1.5929235219955444,
				0.24661603569984436
			],
			"min":[
				0.043151166290044785,
				1.518612027168274,
				0.2245345264673233
			],
			"type":"VEC3"
		},
		{
			"bufferView":7,
			"componentType":5126,
			"count":28,
			"type":"VEC3"
		},
		{
			"bufferView":8,
			"componentType":5126,
			"count":28,
			"type":"VEC2"
		},
		{
			"bufferView":9,
			"componentType":5121,
			"count":28,
			"type":"VEC4"
		},
		{
			"bufferView":10,
			"componentType":5126,
			"count":28,
			"type":"VEC4"
		},
		{
			"bufferView":11,
			"componentType":5123,
			"count":102,
			"type":"SCALAR"
		},
		{
			"bufferView":12,
			"componentType":5126,
			"count":15,
			"max":[
				0.15572839975357056,
				1.6692852973937988,
				0.25934314727783203
			],
			"min":[
				-0.15572813153266907,
				1.5419057607650757,
				0.2004888951778412
			],
			"type":"VEC3"
		},
		{
			"bufferView":13,
			"componentType":5126,
			"count":15,
			"type":"VEC3"
		},
		{
			"bufferView":14,
			"componentType":5126,
			"count":15,
			"type":"VEC2"
		},
		{
			"bufferView":15,
			"componentType":5121,
			"count":15,
			"type":"VEC4"
		},
		{
			"bufferView":16,
			"componentType":5126,
			"count":15,
			"type":"VEC4"
		},
		{
			"bufferView":17,
			"componentType":5123,
			"count":27,
			"type":"SCALAR"
		},
		{
			"bufferView":18,
			"componentType":5126,
			"count":39,
			"type":"MAT4"
		}
	],
	"bufferViews":[
		{
			"buffer":0,
			"byteLength":21996,
			"byteOffset":0,
			"target":34962
		},
		{
			"buffer":0,
			"byteLength":21996,
			"byteOffset":21996,
			"target":34962
		},
		{
			"buffer":0,
			"byteLength":14664,
			"byteOffset":43992,
			"target":34962
		},
		{
			"buffer":0,
			"byteLength":7332,
			"byteOffset":58656,
			"target":34962
		},
		{
			"buffer":0,
			"byteLength":29328,
			"byteOffset":65988,
			"target":34962
		},
		{
			"buffer":0,
			"byteLength":13152,
			"byteOffset":95316,
			"target":34963
		},
		{
			"buffer":0,
			"byteLength":336,
			"byteOffset":108468,
			"target":34962
		},
		{
			"buffer":0,
			"byteLength":336,
			"byteOffset":108804,
			"target":34962
		},
		{
			"buffer":0,
			"byteLength":224,
			"byteOffset":109140,
			"target":34962
		},
		{
			"buffer":0,
			"byteLength":112,
			"byteOffset":109364,
			"target":34962
		},
		{
			"buffer":0,
			"byteLength":448,
			"byteOffset":109476,
			"target":34962
		},
		{
			"buffer":0,
			"byteLength":204,
			"byteOffset":109924,
			"target":34963
		},
		{
			"buffer":0,
			"byteLength":180,
			"byteOffset":110128,
			"target":34962
		},
		{
			"buffer":0,
			"byteLength":180,
			"byteOffset":110308,
			"target":34962
		},
		{
			"buffer":0,
			"byteLength":120,
			"byteOffset":110488,
			"target":34962
		},
		{
			"buffer":0,
			"byteLength":60,
			"byteOffset":110608,
			"target":34962
		},
		{
			"buffer":0,
			"byteLength":240,
			"byteOffset":110668,
			"target":34962
		},
		{
			"buffer":0,
			"byteLength":54,
			"byteOffset":110908,
			"target":34963
		},
		{
			"buffer":0,
			"byteLength":2496,
			"byteOffset":110964
		}
	],
	"samplers":[
		{
			"magFilter":9729,
			"minFilter":9987
		}
	],
	"buffers":[
		{
			"byteLength":113460,
			"uri":"Seamus.bin"
		}
	]
}
